SplineFontDB: 3.2
FontName: BARC
FullName: The Bokeh Annotation and Reporting Component (BARC) 
FamilyName: BARC
Weight: Regular
Copyright: Copyright (c) 2020, James Groves
UComments: "2020-8-7: Created with FontForge (http://fontforge.org)"
Version: 001.000
ItalicAngle: 0
UnderlinePosition: -100
UnderlineWidth: 50
Ascent: 800
Descent: 200
InvalidEm: 0
LayerCount: 3
Layer: 0 0 "Back" 1
Layer: 1 0 "Fore" 0
Layer: 2 0 "Back 2" 1
XUID: [1021 616 -1694118403 13591]
StyleMap: 0x0000
FSType: 0
OS2Version: 0
OS2_WeightWidthSlopeOnly: 0
OS2_UseTypoMetrics: 1
CreationTime: 1596818005
ModificationTime: 1597328934
OS2TypoAscent: 0
OS2TypoAOffset: 1
OS2TypoDescent: 0
OS2TypoDOffset: 1
OS2TypoLinegap: 90
OS2WinAscent: 0
OS2WinAOffset: 1
OS2WinDescent: 0
OS2WinDOffset: 1
HheadAscent: 0
HheadAOffset: 1
HheadDescent: 0
HheadDOffset: 1
OS2Vendor: 'PfEd'
MarkAttachClasses: 1
DEI: 91125
LangName: 1033
Encoding: UnicodeFull
UnicodeInterp: none
NameList: AGL For New Fonts
DisplaySize: -48
AntiAlias: 1
FitToEm: 0
WinInfo: 983151 39 14
BeginPrivate: 0
EndPrivate
BeginChars: 1114112 117

StartChar: one
Encoding: 49 49 0
Width: 1000
HStem: 1 118<462 516> 120 54<383.473 594.773> 738 54<383.473 594.773>
VStem: 153 54<350.473 561.527> 462 54<1 119> 771 55<350.473 561.527>
LayerCount: 3
Fore
SplineSet
489 792 m 0
 675 792 826 641 826 456 c 0
 826 271 675 120 489 120 c 0
 304 120 153 271 153 456 c 0
 153 641 304 792 489 792 c 0
489 738 m 0
 333 738 207 612 207 456 c 0
 207 300 333 174 489 174 c 0
 645 174 771 300 771 456 c 0
 771 612 645 738 489 738 c 0
462 119 m 1
 516 119 l 1
 516 1 l 1
 462 1 l 1
 462 119 l 1
EndSplineSet
Validated: 1
EndChar

StartChar: uF0000
Encoding: 983040 983040 1
Width: 1000
HStem: 0 55<397.29 614.71> 618 55<400.473 611.527>
VStem: 170 54<230.543 441.773> 788 54<230.543 441.773>
LayerCount: 3
Fore
SplineSet
506 673 m 0
 691 673 842 522 842 336 c 0
 842 151 691 0 506 0 c 0
 321 0 170 151 170 336 c 0
 170 522 321 673 506 673 c 0
506 618 m 0
 350 618 224 492 224 336 c 0
 224 180 350 55 506 55 c 0
 662 55 788 180 788 336 c 0
 788 492 662 618 506 618 c 0
EndSplineSet
Validated: 1
Comment: "Cloud development NOT+AAoA-observed or NOT observable+AAoA-during past hour "
EndChar

StartChar: uF0001
Encoding: 983041 983041 2
Width: 1000
HStem: 0 53<397.492 473 528 604.508> 617 54<395.227 606.527>
VStem: 164 55<231.959 440.527> 473 55<-120 1.69324> 783 54<231.959 440.527>
LayerCount: 3
Fore
SplineSet
501 671 m 0
 686 671 837 520 837 335 c 0
 837 159 701 14 528 0 c 1
 528 -120 l 1
 473 -120 l 1
 473 0 l 1
 301 14 164 159 164 335 c 0
 164 520 315 671 501 671 c 0
501 617 m 0
 345 617 219 491 219 335 c 0
 219 179 345 53 501 53 c 0
 657 53 783 179 783 335 c 0
 783 491 657 617 501 617 c 0
EndSplineSet
Validated: 1
Comment: "Clouds generally dissolving or+AAoA-becoming less developed during+AAoA-past hour"
EndChar

StartChar: uF0002
Encoding: 983042 983042 3
Width: 1000
HStem: 0 55<399.775 612.225> 309 55<51 172.693 839.307 961> 618 55<402.959 609.041>
VStem: 171 53<232.631 309 364 439.508> 788 53<232.631 309 364 439.508>
CounterMasks: 1 e0
LayerCount: 3
Fore
SplineSet
506 673 m 0
 682 673 827 536 841 364 c 1
 961 364 l 1
 961 309 l 1
 841 309 l 1
 827 136 682 0 506 0 c 0
 330 0 185 136 171 309 c 1
 51 309 l 1
 51 364 l 1
 171 364 l 1
 185 536 330 673 506 673 c 0
506 618 m 0
 350 618 224 492 224 336 c 0
 224 180 350 55 506 55 c 0
 662 55 788 180 788 336 c 0
 788 492 662 618 506 618 c 0
EndSplineSet
Validated: 1
Comment: "State of sky on the whole+AAoA-unchanged during past hour"
EndChar

StartChar: uF0003
Encoding: 983043 983043 4
Width: 1000
HStem: 0 55<395.29 612.71> 618 53<400.492 477 531 607.508>
VStem: 168 54<230.543 439.235> 477 54<669.31 791> 786 54<230.543 439.235>
CounterMasks: 1 38
LayerCount: 3
Fore
SplineSet
477 791 m 1
 531 791 l 1
 531 671 l 1
 704 657 840 513 840 336 c 0
 840 151 689 0 504 0 c 0
 319 0 168 151 168 336 c 0
 168 513 304 657 477 671 c 1
 477 791 l 1
504 618 m 0
 348 618 222 492 222 336 c 0
 222 180 348 55 504 55 c 0
 660 55 786 180 786 336 c 0
 786 492 660 618 504 618 c 0
EndSplineSet
Validated: 1
Comment: "Clouds generally forming or+AAoA-developing during past hour"
EndChar

StartChar: uF0004
Encoding: 983044 983044 5
Width: 1000
HStem: 551 55<354.864 437.622 681.864 765.099> 715 54<190.901 274.136 514.347 601.136 844.656 887>
VStem: 123 55<-158 700.622> 287 55<619.424 700.622> 451 54<619.424 704.002> 614 55<619.424 700.622> 778 55<619.424 702.344>
LayerCount: 3
Fore
SplineSet
233 769 m 0
 259 769 286 761 307 742 c 0
 328 723 342 694 342 660 c 0
 342 640 348 628 358 619 c 0
 368 611 382 606 396 606 c 0
 411 606 425 611 434 619 c 0
 444 628 451 640 451 660 c 0
 451 694 464 723 485 742 c 0
 506 761 533 769 560 769 c 0
 586 769 613 761 634 742 c 0
 655 723 669 694 669 660 c 0
 669 640 676 628 685 619 c 0
 695 611 709 606 723 606 c 0
 738 606 752 611 762 619 c 0
 771 628 778 640 778 660 c 0
 778 720 827 769 887 769 c 1
 887 715 l 1
 857 715 833 691 833 660 c 0
 833 626 819 597 798 578 c 0
 777 560 750 551 723 551 c 0
 697 551 670 560 649 578 c 0
 628 597 614 626 614 660 c 0
 614 681 608 693 598 701 c 0
 588 710 574 715 560 715 c 0
 545 715 531 710 522 701 c 0
 512 693 505 681 505 660 c 0
 505 626 492 597 471 578 c 0
 450 560 423 551 396 551 c 0
 370 551 343 560 322 578 c 0
 301 597 287 626 287 660 c 0
 287 681 280 693 271 701 c 0
 261 710 247 715 233 715 c 0
 218 715 204 710 194 701 c 0
 185 693 178 681 178 660 c 2
 178 -158 l 1
 123 -158 l 1
 123 660 l 2
 123 694 137 723 158 742 c 0
 179 761 206 769 233 769 c 0
EndSplineSet
Validated: 1
Comment: "Visibility reduced by smoke "
EndChar

StartChar: uF0005
Encoding: 983045 983045 6
Width: 1000
HStem: 0 55<194.091 367.533 628.138 801.647> 436 55<194.091 367.533 628.138 801.647>
VStem: 34 55<159.679 330.909> 471 54<158.473 332.179> 907 54<159.679 330.909>
LayerCount: 3
Fore
SplineSet
280 491 m 0
 375 491 457 435 498 356 c 1
 538 435 621 491 716 491 c 0
 851 491 961 381 961 245 c 0
 961 110 851 0 716 0 c 0
 621 0 538 55 498 135 c 1
 457 55 375 0 280 0 c 0
 144 0 34 110 34 245 c 0
 34 381 144 491 280 491 c 0
280 436 m 0
 174 436 89 351 89 245 c 0
 89 140 174 55 280 55 c 0
 385 55 471 140 471 245 c 0
 471 351 385 436 280 436 c 0
716 436 m 0
 610 436 525 351 525 245 c 0
 525 140 610 55 716 55 c 0
 822 55 907 140 907 245 c 0
 907 351 822 436 716 436 c 0
EndSplineSet
Validated: 1
Comment: "Haze"
EndChar

StartChar: uF0006
Encoding: 983046 983046 7
Width: 1000
HStem: -154 55<398.353 569.647> 282 55<399.885 568.115> 721 52<417.468 579.985>
VStem: 239 54<6.88486 91 443.762 615.247> 675 54<5.67902 176.909 528 617.708>
LayerCount: 3
Fore
SplineSet
484 773 m 0
 619 773 729 663 729 528 c 1
 675 528 l 1
 675 626 601 721 508 721 c 0
 500 721 492 720 484 719 c 0
 366 698 293 633 293 530 c 0
 293 529 293 529 293 528 c 0
 294 422 378 337 484 337 c 0
 619 337 729 227 729 91 c 0
 729 -44 619 -154 484 -154 c 0
 349 -154 239 -44 239 91 c 1
 293 91 l 1
 293 -14 378 -99 484 -99 c 0
 590 -99 675 -14 675 91 c 0
 675 197 590 282 484 282 c 0
 349 282 239 393 239 528 c 0
 239 663 349 773 484 773 c 0
EndSplineSet
Validated: 1
Comment: "Widespread dust in suspension+AAoA-in the air, NOT raised by wind,+AAoA-at time of observation"
EndChar

StartChar: uF0007
Encoding: 983047 983047 8
Width: 1000
HStem: 0 21G<472 510> 46 38<430.171 472 510 551.577> 287 38<430.171 472 510 546.417> 525 38<430.171 472 510 551.577>
VStem: 351 38<125.585 184 366.527 483.693> 472 38<0 49.8175 84 284 325 525 559.206 609> 592 39<124.65 243.35 425 483.855>
LayerCount: 3
Fore
SplineSet
472 609 m 1
 510 609 l 1
 510 563 l 2
 578 554 631 496 631 425 c 1
 592 425 l 1
 592 475 557 516 510 525 c 1
 510 322 l 2
 578 313 631 254 631 184 c 0
 631 114 578 55 510 46 c 2
 510 0 l 1
 472 0 l 1
 472 46 l 2
 404 55 351 114 351 184 c 1
 389 184 l 1
 389 134 425 93 472 84 c 1
 472 287 l 2
 404 296 351 355 351 425 c 0
 351 496 404 554 472 563 c 2
 472 609 l 1
472 525 m 1
 425 516 389 475 389 425 c 0
 389 375 425 334 472 325 c 1
 472 525 l 1
510 284 m 1
 510 84 l 1
 557 93 592 134 592 184 c 0
 592 234 557 275 510 284 c 1
EndSplineSet
Validated: 1
Comment: "Dust or sand raised by wind,+AAoA-at time of observation"
EndChar

StartChar: uF0008
Encoding: 983048 983048 9
Width: 1000
Flags: W
HStem: 17 52<405.582 608.97> 196 51<421.542 591.384> 337 52<419.719 592.175> 411 52<421.542 591.384> 553 52<419.719 592.175> 732 52<410.166 607.999>
VStem: 290 48<123.848 251.988 332.878 467.988 548.878 675.385> 605 49<263.201 321.327 479.138 537.327>
LayerCount: 3
Fore
SplineSet
519 784 m 0
 520 784 521 784 522 784 c 0
 540 784 558 782 574 780 c 0
 591 777 606 772 619 766 c 0
 632 759 645 751 652 735 c 2
 608 713 l 2
 608 711 606 715 599 719 c 0
 592 723 580 726 566 729 c 0
 553 731 538 732 522 732 c 0
 504 732 485 731 467 727 c 0
 431 721 398 708 374 690 c 0
 351 671 338 649 338 616 c 0
 338 588 345 567 355 548 c 1
 388 577 428 594 468 601 c 0
 483 604 498 605 512 605 c 0
 540 605 566 601 589 592 c 0
 606 585 622 575 634 561 c 0
 646 547 654 529 654 508 c 0
 654 488 646 469 634 455 c 0
 622 442 606 432 589 425 c 0
 566 416 540 411 512 411 c 0
 498 411 483 413 468 415 c 0
 428 422 388 440 355 469 c 1
 345 450 338 428 338 400 c 0
 338 373 345 351 355 332 c 1
 388 361 428 379 468 385 c 0
 483 388 498 389 512 389 c 0
 540 389 566 385 589 376 c 0
 606 369 622 359 634 345 c 0
 646 331 654 313 654 292 c 0
 654 272 646 253 634 240 c 0
 622 226 606 216 589 209 c 0
 566 200 540 196 512 196 c 0
 498 196 483 197 468 199 c 0
 428 206 388 224 355 253 c 1
 345 234 338 212 338 184 c 0
 338 151 351 129 373 111 c 0
 395 92 427 80 461 73 c 0
 479 70 497 69 515 69 c 0
 531 69 546 70 559 72 c 0
 588 77 608 89 610 92 c 2
 649 61 l 1
 631 35 601 27 567 21 c 0
 551 18 533 17 515 17 c 0
 494 17 473 19 453 22 c 0
 413 30 374 44 343 70 c 0
 312 96 290 136 290 184 c 0
 290 228 304 263 324 292 c 0
 304 322 290 357 290 400 c 0
 290 444 304 479 324 508 c 0
 304 538 290 573 290 616 c 0
 290 665 313 705 345 731 c 0
 378 757 418 771 459 778 c 0
 479 782 499 784 519 784 c 0
528 553 m 0
 523 553 517 553 511 553 c 0
 500 553 488 552 476 550 c 0
 442 545 410 530 386 508 c 1
 410 487 442 472 476 466 c 0
 488 464 500 463 512 463 c 0
 534 463 556 467 572 474 c 0
 584 478 593 485 598 491 c 0
 603 497 605 502 605 508 c 0
 605 515 603 520 598 526 c 0
 593 532 584 538 572 543 c 0
 560 548 544 551 528 553 c 0
528 337 m 0
 523 337 517 337 511 337 c 0
 500 337 488 336 476 334 c 0
 442 329 410 314 386 292 c 1
 410 271 442 256 476 251 c 0
 488 248 500 247 512 247 c 0
 534 247 556 251 572 258 c 0
 584 262 593 269 598 275 c 0
 603 281 605 286 605 292 c 0
 605 299 603 304 598 310 c 0
 593 316 584 322 572 327 c 0
 560 332 544 335 528 337 c 0
EndSplineSet
Validated: 1
Comment: "Well developed dust+AAoA-devil(s) within past hour"
EndChar

StartChar: uF0009
Encoding: 983049 983049 10
Width: 1000
HStem: 0 21G<164 239.814 751.186 827> 21 54<422.768 568.532> 349 54<195 362 420.296 570.054 629 732> 676 54<421.984 567.995>
VStem: 44 54<245.108 506.667> 304 54<139.396 212 466.768 612.532> 632 54<138.373 285.294 539 611.634> 893 54<245.108 506.667>
LayerCount: 3
Fore
SplineSet
224 752 m 1xbf
 258 709 l 1
 151 623 98 500 98 376 c 0
 98 252 151 128 258 43 c 1
 224 0 l 1
 104 96 44 236 44 376 c 0
 44 516 104 655 224 752 c 1xbf
767 752 m 1
 887 655 947 516 947 376 c 0
 947 236 887 96 767 0 c 1
 733 43 l 1
 840 128 893 252 893 376 c 0
 893 500 840 623 733 709 c 1
 767 752 l 1
496 730 m 0
 503 730 510 730 516 729 c 0
 534 727 552 723 568 716 c 0
 635 688 686 623 686 539 c 1
 632 539 l 1
 632 601 595 646 548 665 c 0
 530 673 512 676 494 676 c 0
 461 676 427 664 399 636 c 0
 371 608 358 574 358 541 c 0
 358 523 362 504 369 487 c 0
 389 439 433 403 495 403 c 2
 732 403 l 1
 732 445 l 1
 801 399 l 1
 835 376 l 1
 732 307 l 1
 732 349 l 1
 629 349 l 1
 647 330 662 309 672 285 c 0
 681 262 686 237 686 211 c 0
 686 164 669 116 630 77 c 0
 592 39 543 21 496 21 c 0
 471 21 445 26 422 36 c 0
 356 63 304 128 304 212 c 1
 359 212 l 1
 359 150 395 106 443 86 c 0
 460 79 479 75 497 75 c 0x7f
 530 75 564 88 592 116 c 0
 620 144 632 177 632 211 c 0
 632 229 628 247 621 264 c 0
 602 312 557 349 495 349 c 2
 195 349 l 1
 195 403 l 1
 362 403 l 1
 343 421 329 443 319 466 c 0
 309 490 304 515 304 540 c 0
 304 587 322 636 360 674 c 0
 399 713 447 730 495 730 c 0
 496 730 l 0
EndSplineSet
Validated: 1
Comment: "Dust storm or sand storm within+AAoA-sight of or at station during+AAoA-past hour"
EndChar

StartChar: uF0027
Encoding: 983079 983079 11
Width: 1000
HStem: 253 55<174 810> 417 54<174 810>
LayerCount: 3
Fore
SplineSet
174 471 m 1
 810 471 l 1
 810 417 l 1
 174 417 l 1
 174 471 l 1
174 308 m 1
 810 308 l 1
 810 253 l 1
 174 253 l 1
 174 308 l 1
EndSplineSet
Validated: 1
Comment: "Light fog"
EndChar

StartChar: uF0028
Encoding: 983080 983080 12
Width: 1000
HStem: 188 55<181 444 553 817> 361 54<181 444 553 817> 533 55<181 444 553 817>
VStem: 181 263<188 243 361 415 533 588> 553 264<188 243 361 415 533 588>
CounterMasks: 1 e0
LayerCount: 3
Fore
SplineSet
181 588 m 1
 444 588 l 1
 444 533 l 1
 181 533 l 1
 181 588 l 1
553 588 m 1
 817 588 l 1
 817 533 l 1
 553 533 l 1
 553 588 l 1
181 415 m 1
 444 415 l 1
 444 361 l 1
 181 361 l 1
 181 415 l 1
553 415 m 1
 817 415 l 1
 817 361 l 1
 553 361 l 1
 553 415 l 1
181 243 m 1
 444 243 l 1
 444 188 l 1
 181 188 l 1
 181 243 l 1
553 243 m 1
 817 243 l 1
 817 188 l 1
 553 188 l 1
 553 243 l 1
EndSplineSet
Validated: 1
Comment: "Patches of shallow fog at station,+AAoA-NOT deeper than 6 feet on land"
EndChar

StartChar: uF0186
Encoding: 983430 983430 13
Width: 1000
Flags: W
LayerCount: 3
Fore
SplineSet
0 -202 m 25
 493 294 l 25
 1000 -200 l 25
 0 -202 l 25
EndSplineSet
Validated: 1
EndChar

StartChar: uF0187
Encoding: 983431 983431 14
Width: 1000
Flags: W
LayerCount: 3
Fore
SplineSet
0 -200 m 1
 0 -200 0 -200 -0 -199 c 0
 0 -173 6 390 497 398 c 0
 500 398 504 398 507 398 c 0
 1000 398 989 -194 1000 -198 c 0
 1000 -200 888 -200 729 -200 c 0
 577 -200 382 -200 202 -200 c 0
 131 -200 63 -200 0 -200 c 1
EndSplineSet
Validated: 1
EndChar

StartChar: uF0188
Encoding: 983432 983432 15
Width: 1000
Flags: W
LayerCount: 3
Fore
SplineSet
0 800 m 25
 1000 798 l 25
 493 304 l 25
 0 800 l 25
EndSplineSet
Validated: 1
EndChar

StartChar: uF0189
Encoding: 983433 983433 16
Width: 1000
Flags: W
LayerCount: 3
Fore
SplineSet
0 802 m 9
 1000 798 l 17
 1000 798 1000 794 1000 787 c 0
 1000 716 979 307 501 298 c 0
 496 298 491 298 486 298 c 0
 19 298 0 724 -0 793 c 0
 0 799 0 802 0 802 c 9
EndSplineSet
Validated: 1
EndChar

StartChar: uF0029
Encoding: 983081 983081 17
Width: 1000
HStem: 220 55<195 831> 393 54<195 458 567 831> 565 55<195 458 567 831>
CounterMasks: 1 e0
LayerCount: 3
Fore
SplineSet
195 620 m 1
 458 620 l 1
 458 565 l 1
 195 565 l 1
 195 620 l 1
567 620 m 1
 831 620 l 1
 831 565 l 1
 567 565 l 1
 567 620 l 1
195 447 m 1
 458 447 l 1
 458 393 l 1
 195 393 l 1
 195 447 l 1
567 447 m 1
 831 447 l 1
 831 393 l 1
 567 393 l 1
 567 447 l 1
195 275 m 1
 831 275 l 1
 831 220 l 1
 195 220 l 1
 195 275 l 1
EndSplineSet
Validated: 1
Comment: "More or less continuous shallow+AAoA-fog at station, NOT deeper than+AAoA-6 feet on land"
EndChar

StartChar: uF002A
Encoding: 983082 983082 18
Width: 1000
HStem: 0 21G<518 629>
VStem: 302 327
LayerCount: 3
Fore
SplineSet
570 661 m 1
 615 630 l 1
 374 294 l 5
 593 75 l 5
 629 111 l 5
 629 0 l 5
 584 0 l 5
 518 0 l 5
 554 36 l 5
 302 288 l 5
 570 661 l 1
EndSplineSet
Validated: 1
Comment: "Lightning visible, no thunder+AAoA-heard"
EndChar

StartChar: uF002B
Encoding: 983083 983083 19
Width: 1000
HStem: 240 55<400.885 667.861> 416 200<472.358 596.065>
VStem: 434 200<454.358 578.065>
LayerCount: 3
Fore
SplineSet
634 516 m 0
 634 461 590 416 534 416 c 0
 479 416 434 461 434 516 c 0
 434 572 479 616 534 616 c 0
 590 616 634 572 634 516 c 0
218 435 m 1
 303 341 419 295 534 295 c 0
 650 295 766 341 851 435 c 1
 891 398 l 1
 796 293 665 240 534 240 c 0
 404 240 273 293 178 398 c 1
 218 435 l 1
EndSplineSet
Validated: 1
Comment: "Precipitation within sight, but+AAoA-NOT reaching the ground"
EndChar

StartChar: uF002C
Encoding: 983084 983084 20
Width: 1000
Flags: HM
HStem: 290 200<424.539 548.016>
VStem: 272 54<256.75 523.637> 386 200<328.455 451.932> 647 54<256.75 523.637>
CounterMasks: 1 70
LayerCount: 3
Fore
SplineSet
586 390 m 0
 586 445 542 490 486 490 c 0
 431 490 386 445 386 390 c 0
 386 335 431 290 486 290 c 0
 542 290 586 335 586 390 c 0
168 747 m 1
 273 651 326 521 326 390 c 0
 326 260 273 129 168 34 c 1
 132 74 l 1
 225 159 272 275 272 390 c 0
 272 506 225 621 132 706 c 1
 168 747 l 1
804 747 m 1
 841 706 l 1
 748 621 701 506 701 390 c 0
 701 275 748 159 841 74 c 1
 804 34 l 1
 699 129 647 260 647 390 c 0
 647 521 699 651 804 747 c 1
EndSplineSet
Validated: 9
Comment: "Precipitation within sight,+AAoA-reaching the ground, but distant+AAoA-from station"
EndChar

StartChar: uF002D
Encoding: 983085 983085 21
Width: 1000
Flags: W
HStem: 315 181<441.146 560.448>
VStem: 225 54<272.139 539.115> 410 182<347.807 463.371> 722 55<272.139 539.115>
LayerCount: 3
Fore
SplineSet
501 496 m 0
 450 496 410 456 410 406 c 0
 410 355 450 315 501 315 c 0
 551 315 592 355 592 406 c 0
 592 456 551 496 501 496 c 0
382 762 m 1
 419 722 l 1
 326 637 279 521 279 406 c 0
 279 290 326 174 419 89 c 1
 382 49 l 1
 277 144 225 275 225 406 c 0
 225 536 277 667 382 762 c 1
619 762 m 1
 724 667 777 536 777 406 c 0
 777 275 724 144 619 49 c 1
 582 89 l 1
 676 174 722 290 722 406 c 0
 722 521 676 637 582 722 c 1
 619 762 l 1
EndSplineSet
Validated: 9
Comment: "Precipitation within sight,+AAoA-reaching the ground, near to+AAoA-but NOT at station"
EndChar

StartChar: uF002E
Encoding: 983086 983086 22
Width: 1000
HStem: 0 21G<302 357> 645 55<257 302 357 640>
VStem: 302 55<0 645>
LayerCount: 3
Fore
SplineSet
257 700 m 1
 746 700 l 1
 474 321 l 1
 693 102 l 1
 729 139 l 1
 729 27 l 1
 684 27 l 1
 618 27 l 1
 654 64 l 1
 403 315 l 1
 640 645 l 1
 357 645 l 1
 357 0 l 1
 302 0 l 1
 302 645 l 1
 257 645 l 1
 257 700 l 1
EndSplineSet
Validated: 1
Comment: "Thunder heard, but no+AAoA-precipitation at the station"
EndChar

StartChar: uF002F
Encoding: 983087 983087 23
Width: 1000
LayerCount: 3
Fore
SplineSet
222 760 m 1
 502 629 l 1
 781 760 l 1
 818 724 l 1
 502 14 l 1
 186 724 l 1
 222 760 l 1
265 680 m 1
 502 148 l 1
 738 680 l 1
 513 574 l 1
 502 569 l 1
 265 680 l 1
EndSplineSet
Validated: 1
Comment: "Squall(s) within sight during+AAoA-past hour"
EndChar

StartChar: uF0030
Encoding: 983088 983088 24
Width: 1000
VStem: 381 55<155 621> 508 55<155 621>
LayerCount: 3
Fore
SplineSet
281 782 m 1
 436 646 l 1
 436 130 l 1
 281 -5 l 1
 245 36 l 1
 381 155 l 1
 381 621 l 1
 245 740 l 1
 281 782 l 1
663 782 m 1
 699 740 l 1
 563 621 l 1
 563 155 l 1
 699 36 l 1
 663 -5 l 1
 508 130 l 1
 508 646 l 1
 663 782 l 1
EndSplineSet
Validated: 1
Comment: "Funnel cloud(s) within sight+AAoA-during past hour"
EndChar

StartChar: uF004E
Encoding: 983118 983118 25
Width: 1000
HStem: -44 55<526 626> 720 54<526 626>
VStem: 526 155<-44 11 720 774> 626 55<11 720>
LayerCount: 3
Fore
SplineSet
388 140 m 0xc0
 377 145 373 153 373 167 c 0
 373 181 375 185 394 200 c 0
 413 215 432 235 432 240 c 0
 432 240 432 241 431 241 c 0
 431 242 423 243 414 244 c 0
 357 250 313 287 297 341 c 0
 295 350 294 363 294 377 c 0
 294 391 295 405 297 413 c 0
 315 475 370 511 426 511 c 0
 459 511 492 499 519 472 c 0
 544 446 557 415 557 377 c 0
 557 377 557 377 557 376 c 0
 557 351 554 339 543 317 c 0
 539 309 534 296 531 288 c 0
 512 237 482 194 441 158 c 0
 423 142 412 136 402 136 c 0
 397 136 393 137 388 140 c 0xc0
526 774 m 1xe0
 681 774 l 1
 681 -44 l 1
 526 -44 l 1
 526 11 l 1xe0
 626 11 l 1
 626 720 l 1xd0
 526 720 l 1
 526 774 l 1xe0
EndSplineSet
Validated: 1
Comment: "Drizzle (NOT freezing and NOT+AAoA-falling as showers) during past+AAoA-hour, but NOT at time of+AAoA-observation"
EndChar

StartChar: uF004F
Encoding: 983119 983119 26
Width: 1000
HStem: -56 55<496 596> 244 218<340.078 471.131> 708 54<496 596>
VStem: 296 219<287.869 418.131> 496 155<-56 -1 708 762> 596 55<-1 708>
LayerCount: 3
Fore
SplineSet
406 462 m 0xf0
 466 462 515 413 515 353 c 0
 515 293 466 244 406 244 c 0
 345 244 296 293 296 353 c 0
 296 413 345 462 406 462 c 0xf0
496 762 m 1xe8
 651 762 l 1
 651 -56 l 1
 496 -56 l 1
 496 -1 l 1xe8
 596 -1 l 1
 596 708 l 1xe4
 496 708 l 1
 496 762 l 1xe8
EndSplineSet
Validated: 1
Comment: "Rain (NOT freezing and NOT+AAoA-falling as showers) during past+AAoA-hour, but NOT at time of+AAoA-observation"
EndChar

StartChar: uF0050
Encoding: 983120 983120 27
Width: 1000
Flags: HMW
LayerCount: 3
Fore
SplineSet
354.006835938 395.703125 m 0
 363.907226562 395.533203125 372.520507812 390.10546875 377.16015625 382.06640625 c 2
 403.544921875 336.36328125 l 1
 429.9296875 382.06640625 l 2
 434.537109375 390.025390625 443.044921875 395.416992188 452.834960938 395.66796875 c 0
 453.087890625 395.674804688 453.357421875 395.66015625 453.611328125 395.66015625 c 0
 458.55078125 395.66015625 463.184570312 394.344726562 467.181640625 392.044921875 c 0
 475.344726562 387.330078125 480.795898438 378.49609375 480.795898438 368.399414062 c 0
 480.795898438 363.446289062 479.47265625 358.799804688 477.16015625 354.793945312 c 2
 450.775390625 309.090820312 l 1
 503.544921875 309.090820312 l 2
 518.59765625 309.090820312 530.818359375 296.870117188 530.818359375 281.818359375 c 0
 530.818359375 266.765625 518.59765625 254.544921875 503.544921875 254.544921875 c 2
 450.775390625 254.544921875 l 1
 477.16015625 208.841796875 l 2
 479.47265625 204.836914062 480.842773438 200.177734375 480.842773438 195.224609375 c 0
 480.842773438 185.127929688 475.344726562 176.305664062 467.181640625 171.590820312 c 0
 463.17578125 169.278320312 458.517578125 167.908203125 453.563476562 167.908203125 c 0
 443.467773438 167.908203125 434.645507812 173.40625 429.9296875 181.569335938 c 2
 403.544921875 227.272460938 l 1
 377.16015625 181.569335938 l 2
 372.4453125 173.40625 363.611328125 167.955078125 353.514648438 167.955078125 c 0
 348.561523438 167.955078125 343.9140625 169.278320312 339.909179688 171.590820312 c 0
 331.74609375 176.305664062 326.293945312 185.139648438 326.293945312 195.236328125 c 0
 326.293945312 200.189453125 327.618164062 204.836914062 329.9296875 208.841796875 c 2
 356.315429688 254.544921875 l 1
 303.544921875 254.544921875 l 2
 288.493164062 254.544921875 276.272460938 266.765625 276.272460938 281.818359375 c 0
 276.272460938 296.870117188 288.493164062 309.090820312 303.544921875 309.090820312 c 2
 356.315429688 309.090820312 l 1
 329.9296875 354.793945312 l 2
 327.618164062 358.799804688 326.248046875 363.458007812 326.248046875 368.412109375 c 0
 326.248046875 378.5078125 331.74609375 387.330078125 339.909179688 392.044921875 c 0
 343.91796875 394.362304688 348.590820312 395.70703125 353.549804688 395.70703125 c 0
 353.703125 395.70703125 353.854492188 395.705078125 354.006835938 395.703125 c 0
490.454101562 791.181640625 m 1
 645 791.181640625 l 1
 645 -27 l 1
 490.454101562 -27 l 1
 490.454101562 27.544921875 l 1
 590.454101562 27.544921875 l 1
 590.454101562 736.63671875 l 1
 490.454101562 736.63671875 l 1
 490.454101562 791.181640625 l 1
EndSplineSet
Validated: 1
Comment: "Snow (NOT falling as showers)+AAoA-during past hour, but NOT at+AAoA-time of observation"
EndChar

StartChar: uF0051
Encoding: 983121 983121 28
Width: 1000
Flags: HMW
LayerCount: 3
Fore
SplineSet
354.006835938 395.703125 m 0
 363.907226562 395.533203125 372.520507812 390.10546875 377.16015625 382.06640625 c 2
 403.544921875 336.36328125 l 1
 429.9296875 382.06640625 l 2
 434.537109375 390.025390625 443.044921875 395.416992188 452.834960938 395.66796875 c 0
 453.087890625 395.674804688 453.357421875 395.66015625 453.611328125 395.66015625 c 0
 458.55078125 395.66015625 463.184570312 394.344726562 467.181640625 392.044921875 c 0
 475.344726562 387.330078125 480.795898438 378.49609375 480.795898438 368.399414062 c 0
 480.795898438 363.446289062 479.47265625 358.799804688 477.16015625 354.793945312 c 2
 450.775390625 309.090820312 l 1
 503.544921875 309.090820312 l 2
 518.59765625 309.090820312 530.818359375 296.870117188 530.818359375 281.818359375 c 0
 530.818359375 266.765625 518.59765625 254.544921875 503.544921875 254.544921875 c 2
 450.775390625 254.544921875 l 1
 477.16015625 208.841796875 l 2
 479.47265625 204.836914062 480.842773438 200.177734375 480.842773438 195.224609375 c 0
 480.842773438 185.127929688 475.344726562 176.305664062 467.181640625 171.590820312 c 0
 463.17578125 169.278320312 458.517578125 167.908203125 453.563476562 167.908203125 c 0
 443.467773438 167.908203125 434.645507812 173.40625 429.9296875 181.569335938 c 2
 403.544921875 227.272460938 l 1
 377.16015625 181.569335938 l 2
 372.4453125 173.40625 363.611328125 167.955078125 353.514648438 167.955078125 c 0
 348.561523438 167.955078125 343.9140625 169.278320312 339.909179688 171.590820312 c 0
 331.74609375 176.305664062 326.293945312 185.139648438 326.293945312 195.236328125 c 0
 326.293945312 200.189453125 327.618164062 204.836914062 329.9296875 208.841796875 c 2
 356.315429688 254.544921875 l 1
 303.544921875 254.544921875 l 2
 288.493164062 254.544921875 276.272460938 266.765625 276.272460938 281.818359375 c 0
 276.272460938 296.870117188 288.493164062 309.090820312 303.544921875 309.090820312 c 2
 356.315429688 309.090820312 l 1
 329.9296875 354.793945312 l 2
 327.618164062 358.799804688 326.248046875 363.458007812 326.248046875 368.412109375 c 0
 326.248046875 378.5078125 331.74609375 387.330078125 339.909179688 392.044921875 c 0
 343.91796875 394.362304688 348.590820312 395.70703125 353.549804688 395.70703125 c 0
 353.703125 395.70703125 353.854492188 395.705078125 354.006835938 395.703125 c 0
403.544921875 645.454101562 m 0
 463.686523438 645.454101562 512.635742188 596.504882812 512.635742188 536.36328125 c 0
 512.635742188 476.221679688 463.686523438 427.272460938 403.544921875 427.272460938 c 0
 343.403320312 427.272460938 294.454101562 476.221679688 294.454101562 536.36328125 c 0
 294.454101562 596.504882812 343.403320312 645.454101562 403.544921875 645.454101562 c 0
494.454101562 818.181640625 m 1
 649 818.181640625 l 1
 649 0 l 1
 494.454101562 0 l 1
 494.454101562 54.544921875 l 1
 594.454101562 54.544921875 l 1
 594.454101562 763.63671875 l 1
 494.454101562 763.63671875 l 1
 494.454101562 818.181640625 l 1
EndSplineSet
Validated: 1
Comment: "Rain and snow (NOT falling as+AAoA-showers) during past hour, but+AAoA-NOT at time of observation"
EndChar

StartChar: uF0052
Encoding: 983122 983122 29
Width: 1000
HStem: -130 55<638 738> 161 54<459.218 581.072> 415 55<204.928 326.782> 706 55<638 738>
VStem: 111 55<270.687 375.078> 366 54<255.078 375.078> 620 55<255.078 360.313> 638 155<-130 -75 706 761> 738 55<-75 706>
LayerCount: 3
Fore
SplineSet
366 315 m 0xfe
 366 371 321 415 266 415 c 0
 210 415 166 371 166 315 c 2
 166 297 l 2
 166 282 154 270 138 270 c 0
 123 270 111 282 111 297 c 2
 111 315 l 2
 111 400 181 470 266 470 c 0
 351 470 420 400 420 315 c 0
 420 260 465 215 520 215 c 0
 576 215 620 260 620 315 c 2
 620 334 l 2
 620 349 632 361 648 361 c 0
 663 361 675 349 675 334 c 2
 675 315 l 2
 675 230 605 161 520 161 c 0
 435 161 366 230 366 315 c 0xfe
638 761 m 1xfd
 793 761 l 1
 793 -130 l 1
 638 -130 l 1
 638 -75 l 1xfd
 738 -75 l 1
 738 706 l 1xfc80
 638 706 l 1
 638 761 l 1xfd
EndSplineSet
Validated: 1
Comment: "Freezing drizzle or freezing rain+AAoA(NOT falling as showers) during+AAoA-past hour, but NOT at time+AAoA-of observatio"
EndChar

StartChar: uF0053
Encoding: 983123 983123 30
Width: 1000
HStem: -122 55<580 680> 342 54<285 512> 445 218<330.508 461.131> 714 55<580 680>
VStem: 286 219<490.988 617.012> 580 155<-122 -67 714 769> 680 55<-67 714>
LayerCount: 3
Fore
SplineSet
396 663 m 0xf8
 456 663 505 614 505 554 c 0
 505 494 456 445 396 445 c 0
 336 445 286 494 286 554 c 0
 286 614 336 663 396 663 c 0xf8
203 396 m 1
 399 396 l 1
 594 396 l 1
 399 -64 l 1
 203 396 l 1
285 342 m 1
 399 75 l 1
 512 342 l 1
 399 342 l 1
 285 342 l 1
580 769 m 1xfc
 735 769 l 1
 735 -122 l 1
 580 -122 l 1
 580 -67 l 1xfc
 680 -67 l 1
 680 714 l 1xfa
 580 714 l 1
 580 769 l 1xfc
EndSplineSet
Validated: 1
Comment: "Showers of rain during past hour,+AAoA-but NOT at time of observation"
EndChar

StartChar: uF0054
Encoding: 983124 983124 31
Width: 1000
Flags: W
HStem: -122 55<580 680> 342 54<285 512> 544.545 54.5459<276.827 356.315 450.775 530.264> 714 55<580 680>
VStem: 580 155<-122 -67 714 769> 680 55<-67 714>
LayerCount: 3
Fore
SplineSet
354.006835938 685.703125 m 0xf0
 363.907226562 685.533203125 372.520507812 680.10546875 377.16015625 672.06640625 c 2
 403.544921875 626.36328125 l 1
 429.9296875 672.06640625 l 2
 434.537109375 680.025390625 443.044921875 685.416992188 452.834960938 685.66796875 c 0
 453.087890625 685.674804688 453.357421875 685.66015625 453.611328125 685.66015625 c 0
 458.55078125 685.66015625 463.184570312 684.344726562 467.181640625 682.044921875 c 0
 475.344726562 677.330078125 480.795898438 668.49609375 480.795898438 658.399414062 c 0
 480.795898438 653.446289062 479.47265625 648.799804688 477.16015625 644.793945312 c 2
 450.775390625 599.090820312 l 1
 503.544921875 599.090820312 l 2
 518.59765625 599.090820312 530.818359375 586.870117188 530.818359375 571.818359375 c 0
 530.818359375 556.765625 518.59765625 544.544921875 503.544921875 544.544921875 c 2
 450.775390625 544.544921875 l 1
 477.16015625 498.841796875 l 2
 479.47265625 494.836914062 480.842773438 490.177734375 480.842773438 485.224609375 c 0
 480.842773438 475.127929688 475.344726562 466.305664062 467.181640625 461.590820312 c 0
 463.17578125 459.278320312 458.517578125 457.908203125 453.563476562 457.908203125 c 0
 443.467773438 457.908203125 434.645507812 463.40625 429.9296875 471.569335938 c 2
 403.544921875 517.272460938 l 1
 377.16015625 471.569335938 l 2
 372.4453125 463.40625 363.611328125 457.955078125 353.514648438 457.955078125 c 0
 348.561523438 457.955078125 343.9140625 459.278320312 339.909179688 461.590820312 c 0
 331.74609375 466.305664062 326.293945312 475.139648438 326.293945312 485.236328125 c 0
 326.293945312 490.189453125 327.618164062 494.836914062 329.9296875 498.841796875 c 2
 356.315429688 544.544921875 l 1
 303.544921875 544.544921875 l 2
 288.493164062 544.544921875 276.272460938 556.765625 276.272460938 571.818359375 c 0
 276.272460938 586.870117188 288.493164062 599.090820312 303.544921875 599.090820312 c 2
 356.315429688 599.090820312 l 1
 329.9296875 644.793945312 l 2
 327.618164062 648.799804688 326.248046875 653.458007812 326.248046875 658.412109375 c 0
 326.248046875 668.5078125 331.74609375 677.330078125 339.909179688 682.044921875 c 0
 343.91796875 684.362304688 348.590820312 685.70703125 353.549804688 685.70703125 c 0
 353.703125 685.70703125 353.854492188 685.705078125 354.006835938 685.703125 c 0xf0
203 396 m 1
 399 396 l 1
 594 396 l 1
 399 -64 l 1
 203 396 l 1
285 342 m 1
 399 75 l 1
 512 342 l 1
 399 342 l 1
 285 342 l 1
580 769 m 1xf8
 735 769 l 1
 735 -122 l 1
 580 -122 l 1
 580 -67 l 1xf8
 680 -67 l 1
 680 714 l 1xf4
 580 714 l 1
 580 769 l 1xf8
EndSplineSet
Validated: 1
Comment: "Showers of snow, or of rain+AAoA-and snow, during past hour,+AAoA-but NOT at time of observation"
EndChar

StartChar: uF0055
Encoding: 983125 983125 32
Width: 1000
HStem: -162 55<546 646> 302 54<251 478> 411 54<303 426> 674 55<546 646>
VStem: 546 155<-162 -107 674 729> 646 55<-107 674>
LayerCount: 3
Fore
SplineSet
365 682 m 1xf0
 521 411 l 1
 256 411 l 1
 208 411 l 1
 365 682 l 1xf0
365 573 m 1
 303 465 l 1
 426 465 l 1
 365 573 l 1
169 356 m 1
 365 356 l 1
 560 356 l 1
 365 -104 l 1
 169 356 l 1
251 302 m 1
 365 35 l 1
 478 302 l 1
 365 302 l 1
 251 302 l 1
546 729 m 1xf8
 701 729 l 1
 701 -162 l 1
 546 -162 l 1
 546 -107 l 1xf8
 646 -107 l 1
 646 674 l 1xf4
 546 674 l 1
 546 729 l 1xf8
EndSplineSet
Validated: 1
Comment: "Showers of hail, or of hail+AAoA-and rain, during past hour,+AAoA-but NOT at time of observation"
EndChar

StartChar: uF0056
Encoding: 983126 983126 33
Width: 1000
HStem: -136 55<732 832> 109 55<132 769> 282 55<132 769> 455 54<132 769> 700 55<732 832>
VStem: 732 155<-136 -81 700 755> 832 55<-81 700>
LayerCount: 3
Fore
SplineSet
132 509 m 1xf8
 769 509 l 1
 769 455 l 1
 132 455 l 1
 132 509 l 1xf8
132 337 m 1
 769 337 l 1
 769 282 l 1
 132 282 l 1
 132 337 l 1
132 164 m 1
 769 164 l 1
 769 109 l 1
 132 109 l 1
 132 164 l 1
732 755 m 1xfc
 887 755 l 1
 887 -136 l 1
 732 -136 l 1
 732 -81 l 1xfc
 832 -81 l 1
 832 700 l 1xfa
 732 700 l 1
 732 755 l 1xfc
EndSplineSet
Validated: 1
Comment: "Fog during past hour, but+AAoA-NOT at time of observation"
EndChar

StartChar: uF0057
Encoding: 983127 983127 34
Width: 1000
HStem: -148 55<640 740> 588 55<204 250 304 587> 688 55<640 740>
VStem: 250 54<-57 588> 640 155<-148 -93 688 743> 740 55<-93 688>
LayerCount: 3
Fore
SplineSet
204 643 m 1xf8
 694 643 l 1
 422 264 l 1
 640 45 l 1
 677 81 l 1
 677 -30 l 1
 631 -30 l 1
 566 -30 l 1
 602 7 l 1
 350 258 l 1
 587 588 l 1
 304 588 l 1
 304 -57 l 1
 250 -57 l 1
 250 588 l 1
 204 588 l 1
 204 643 l 1xf8
640 743 m 1
 795 743 l 1
 795 -148 l 1
 640 -148 l 1
 640 -93 l 1xf8
 740 -93 l 1
 740 688 l 1xf4
 640 688 l 1
 640 743 l 1
EndSplineSet
Validated: 1
Comment: "Thunderstorm (with or without+AAoA-precipitation) during past hour,+AAoA-but NOT at time of observation"
EndChar

StartChar: uF0075
Encoding: 983157 983157 35
Width: 1000
HStem: -0 54<336.768 482.339> 327 55<109 276 334.296 483.704 543 646> 655 54<336.347 481.471>
VStem: 218 54<118.396 191 445.768 591.339> 546 54<117.365 263.232 518 590.836> 782 55<-9 718>
CounterMasks: 1 e0
LayerCount: 3
Fore
SplineSet
410 709 m 0
 417 709 423 709 430 708 c 0
 448 706 465 702 482 695 c 0
 548 668 600 602 600 518 c 1
 546 518 l 1
 546 580 510 624 462 644 c 0
 445 651 426 655 408 655 c 0
 375 655 341 643 313 615 c 0
 285 587 272 553 272 520 c 0
 272 502 276 483 283 466 c 0
 303 418 347 382 409 382 c 2
 646 382 l 1
 646 424 l 1
 715 377 l 1
 749 355 l 1
 646 285 l 1
 646 327 l 1
 543 327 l 1
 561 309 576 288 586 264 c 0
 596 241 600 215 600 190 c 0
 600 143 583 95 544 56 c 0
 505 17 457 0 410 -0 c 0
 385 0 359 5 336 15 c 0
 270 42 218 107 218 191 c 1
 273 191 l 1
 273 129 309 85 357 65 c 0
 374 58 393 54 411 54 c 0
 444 54 478 67 506 95 c 0
 534 123 546 156 546 189 c 0
 546 207 542 226 535 243 c 0
 515 291 471 327 409 327 c 2
 109 327 l 1
 109 382 l 1
 276 382 l 1
 258 400 243 421 233 445 c 0
 223 468 218 494 218 519 c 0
 218 566 235 614 274 653 c 0
 313 692 362 709 409 709 c 0
 410 709 l 0
782 718 m 1
 837 718 l 1
 837 -9 l 1
 782 -9 l 1
 782 718 l 1
EndSplineSet
Validated: 1
Comment: "Slight or moderate dust storm or+AAoA-sand storm, has decreased+AAoA-during the past hour"
EndChar

StartChar: uF0076
Encoding: 983158 983158 36
Width: 1000
HStem: 3 54<403.768 547.774> 331 54<176 342 401.296 550.704 610 712> 659 54<402.87 547.471>
VStem: 285 54<121.396 194 448.703 595.319> 613 54<121.399 267.297 522 594.604>
CounterMasks: 1 e0
LayerCount: 3
Fore
SplineSet
477 713 m 0
 484 713 490 712 497 711 c 0
 515 709 532 705 549 698 c 0
 615 671 667 606 667 522 c 1
 612 522 l 1
 612 584 576 628 528 648 c 0
 511 655 492 659 474 659 c 0
 441 659 407 646 379 618 c 0
 351 590 339 556 339 523 c 0
 339 505 343 486 350 469 c 0
 370 421 414 385 476 385 c 2
 712 385 l 1
 712 427 l 1
 782 381 l 1
 816 358 l 1
 712 289 l 1
 712 331 l 1
 610 331 l 1
 628 313 642 291 652 267 c 0
 662 244 667 219 667 194 c 0
 667 147 650 98 611 59 c 0
 572 20 524 3 477 3 c 0
 452 3 426 8 403 18 c 0
 337 45 285 110 285 194 c 1
 340 194 l 1
 340 132 376 88 424 68 c 0
 441 61 459 57 477 57 c 0
 510 57 544 70 572 98 c 0
 600 126 613 160 613 193 c 0
 613 211 609 230 602 247 c 0
 582 295 538 331 476 331 c 2
 176 331 l 1
 176 385 l 1
 342 385 l 1
 324 403 310 425 300 449 c 0
 290 472 285 497 285 522 c 0
 285 569 302 618 341 657 c 0
 380 696 428 713 475 713 c 0
 477 713 l 0
EndSplineSet
Validated: 1
Comment: "Slight or moderate dust storm or+AAoA-sand storm, no appreciable+AAoA-change during past hour"
EndChar

StartChar: uF0077
Encoding: 983159 983159 37
Width: 1000
Flags: W
HStem: 8 55<518.268 664.319> 336 54<291 457 516.296 665.704 724 827> 664 54<517.87 662.471>
VStem: 182 62<3 727> 400 54<127.164 200 454.741 600.319> 728 54<126.661 272.232 527 599.604>
LayerCount: 3
Fore
SplineSet
182 727 m 1
 244 727 l 1
 244 3 l 1
 182 3 l 1
 182 727 l 1
591 718 m 0
 598 718 605 718 612 717 c 0
 630 715 647 710 664 703 c 0
 730 676 782 611 782 527 c 1
 727 527 l 1
 727 589 691 633 643 653 c 0
 626 660 607 664 589 664 c 0
 556 664 522 651 494 623 c 0
 466 595 454 561 454 528 c 0
 454 510 458 492 465 475 c 0
 485 427 529 390 591 390 c 2
 827 390 l 1
 827 432 l 1
 897 386 l 1
 931 363 l 1
 827 294 l 1
 827 336 l 1
 724 336 l 1
 742 318 757 297 767 273 c 0
 777 250 782 224 782 199 c 0
 782 152 765 104 726 65 c 0
 687 26 638 8 591 8 c 0
 566 8 541 13 518 23 c 0
 452 50 400 116 400 200 c 1
 454 200 l 1
 454 138 490 94 538 74 c 0
 555 67 574 63 592 63 c 0
 625 63 659 75 687 103 c 0
 715 131 728 165 728 198 c 0
 728 216 724 235 717 252 c 0
 697 300 653 336 591 336 c 2
 291 336 l 1
 291 390 l 1
 457 390 l 1
 439 408 424 430 414 454 c 0
 404 477 400 502 400 527 c 0
 400 574 417 623 456 662 c 0
 495 701 543 718 590 718 c 0
 591 718 l 0
EndSplineSet
Validated: 1
Comment: "Slight or moderate dust storm+AAoA-or sand storm, has increased+AAoA-during past hour"
EndChar

StartChar: uF0078
Encoding: 983160 983160 38
Width: 1000
HStem: 6 54<372.768 516.861> 301 18<136 508 605 695> 333 55<382.846 507.154> 402 19<136 285 382 695> 661 54<371.87 516.471>
VStem: 254 54<124.396 197 451.303 597.339> 582 54<125.139 270.105 524 596.636> 837 62<3 727>
LayerCount: 3
Fore
SplineSet
837 727 m 1
 899 727 l 1
 899 3 l 1
 837 3 l 1
 837 727 l 1
446 715 m 0
 453 715 459 715 466 714 c 0
 484 712 501 708 518 701 c 0
 584 674 636 608 636 524 c 1
 581 524 l 1
 581 586 545 630 497 650 c 0
 480 657 461 661 443 661 c 0
 410 661 377 649 349 621 c 0
 321 593 308 559 308 526 c 0
 308 508 312 489 319 472 c 0
 327 452 340 435 356 421 c 2
 695 421 l 1
 640 462 l 1
 650 477 l 1
 806 361 l 1
 650 244 l 1
 640 259 l 1
 695 301 l 1
 605 301 l 1
 611 291 617 281 621 270 c 0
 631 247 636 221 636 196 c 0
 636 149 619 101 580 62 c 0
 541 23 493 6 446 6 c 0
 421 6 395 11 372 21 c 0
 306 48 254 113 254 197 c 1
 309 197 l 1
 309 135 345 91 393 71 c 0
 410 64 429 60 447 60 c 0
 480 60 513 73 541 101 c 0
 569 129 582 162 582 195 c 0
 582 213 578 232 571 249 c 0
 563 269 550 287 534 301 c 2
 136 301 l 1
 136 319 l 1
 508 319 l 1
 490 328 469 333 445 333 c 0
 383 333 332 361 298 402 c 2
 136 402 l 1
 136 421 l 1
 285 421 l 1
 279 431 273 440 269 451 c 0
 259 474 254 500 254 525 c 0
 254 572 271 620 310 659 c 0
 349 698 397 715 444 715 c 0
 446 715 l 0
718 404 m 1
 718 402 l 1
 382 402 l 1
 400 393 421 388 445 388 c 0
 507 388 558 360 592 319 c 2
 718 319 l 1
 718 317 l 1
 775 361 l 1
 718 404 l 1
EndSplineSet
Validated: 1
Comment: "Severe dust storm or sand+AAoA-storm, has decreased during+AAoA-past hour"
EndChar

StartChar: uF007A
Encoding: 983162 983162 39
Width: 1000
Flags: W
HStem: 6 54<487.768 631.861> 301 18<251 623 720 810> 333 55<497.846 622.154> 402 19<251 400 497 810> 661 54<486.87 631.471>
VStem: 142 62<3 727> 369 54<124.396 197 451.303 597.339> 697 54<125.139 270.105 524 596.636>
LayerCount: 3
Fore
SplineSet
142 727 m 1
 204 727 l 1
 204 3 l 1
 142 3 l 1
 142 727 l 1
561 715 m 0
 568 715 574 715 581 714 c 0
 599 712 616 708 633 701 c 0
 699 674 751 608 751 524 c 1
 696 524 l 1
 696 586 660 630 612 650 c 0
 595 657 576 661 558 661 c 0
 525 661 492 649 464 621 c 0
 436 593 423 559 423 526 c 0
 423 508 427 489 434 472 c 0
 442 452 455 435 471 421 c 2
 810 421 l 1
 755 462 l 1
 765 477 l 1
 921 361 l 1
 765 244 l 1
 755 259 l 1
 810 301 l 1
 720 301 l 1
 726 291 732 281 736 270 c 0
 746 247 751 221 751 196 c 0
 751 149 734 101 695 62 c 0
 656 23 608 6 561 6 c 0
 536 6 510 11 487 21 c 0
 421 48 369 113 369 197 c 1
 424 197 l 1
 424 135 460 91 508 71 c 0
 525 64 544 60 562 60 c 0
 595 60 628 73 656 101 c 0
 684 129 697 162 697 195 c 0
 697 213 693 232 686 249 c 0
 678 269 665 287 649 301 c 2
 251 301 l 1
 251 319 l 1
 623 319 l 1
 605 328 584 333 560 333 c 0
 498 333 447 361 413 402 c 2
 251 402 l 1
 251 421 l 1
 400 421 l 1
 394 431 388 440 384 451 c 0
 374 474 369 500 369 525 c 0
 369 572 386 620 425 659 c 0
 464 698 512 715 559 715 c 0
 561 715 l 0
833 404 m 1
 833 402 l 1
 497 402 l 1
 515 393 536 388 560 388 c 0
 622 388 673 360 707 319 c 2
 833 319 l 1
 833 317 l 1
 890 361 l 1
 833 404 l 1
EndSplineSet
Validated: 1
Comment: "Severe dust storm or sand storm,+AAoA-has increased during past hour"
EndChar

StartChar: uF0079
Encoding: 983161 983161 40
Width: 1000
Flags: W
HStem: 6 54<372.768 516.861> 301 18<136 508 605 695> 333 55<382.846 507.154> 402 19<136 285 382 695> 661 54<371.87 516.471>
VStem: 254 54<124.396 197 451.303 597.339> 582 54<125.139 270.105 524 596.636>
LayerCount: 3
Fore
SplineSet
446 715 m 0
 453 715 459 715 466 714 c 0
 484 712 501 708 518 701 c 0
 584 674 636 608 636 524 c 1
 581 524 l 1
 581 586 545 630 497 650 c 0
 480 657 461 661 443 661 c 0
 410 661 377 649 349 621 c 0
 321 593 308 559 308 526 c 0
 308 508 312 489 319 472 c 0
 327 452 340 435 356 421 c 2
 695 421 l 1
 640 462 l 1
 650 477 l 1
 806 361 l 1
 650 244 l 1
 640 259 l 1
 695 301 l 1
 605 301 l 1
 611 291 617 281 621 270 c 0
 631 247 636 221 636 196 c 0
 636 149 619 101 580 62 c 0
 541 23 493 6 446 6 c 0
 421 6 395 11 372 21 c 0
 306 48 254 113 254 197 c 1
 309 197 l 1
 309 135 345 91 393 71 c 0
 410 64 429 60 447 60 c 0
 480 60 513 73 541 101 c 0
 569 129 582 162 582 195 c 0
 582 213 578 232 571 249 c 0
 563 269 550 287 534 301 c 2
 136 301 l 1
 136 319 l 1
 508 319 l 1
 490 328 469 333 445 333 c 0
 383 333 332 361 298 402 c 2
 136 402 l 1
 136 421 l 1
 285 421 l 1
 279 431 273 440 269 451 c 0
 259 474 254 500 254 525 c 0
 254 572 271 620 310 659 c 0
 349 698 397 715 444 715 c 0
 446 715 l 0
718 404 m 1
 718 402 l 1
 382 402 l 1
 400 393 421 388 445 388 c 0
 507 388 558 360 592 319 c 2
 718 319 l 1
 718 317 l 1
 775 361 l 1
 718 404 l 1
EndSplineSet
Validated: 1
Comment: "Severe dust storm or sand+AAoA-storm, no appreciable change+AAoA-during past hour"
EndChar

StartChar: uF007B
Encoding: 983163 983163 41
Width: 1000
Flags: W
HStem: 323 55<184 457 511 720>
VStem: 457 54<114 323 378 650>
LayerCount: 3
Fore
SplineSet
457 650 m 1
 511 650 l 1
 511 378 l 1
 720 378 l 1
 720 420 l 1
 790 373 l 1
 824 350 l 1
 720 281 l 1
 720 323 l 1
 511 323 l 1
 511 114 l 1
 553 114 l 1
 507 44 l 1
 484 10 l 1
 415 114 l 1
 457 114 l 1
 457 323 l 1
 184 323 l 1
 184 378 l 1
 457 378 l 1
 457 650 l 1
EndSplineSet
Validated: 1
Comment: "Slight or moderate drifting+AAoA-snow, generally low"
EndChar

StartChar: uF007C
Encoding: 983164 983164 42
Width: 1000
HStem: 284 19<188 470 524 747> 386 18<188 470 524 747>
VStem: 470 54<108 284 303 386 404 644>
LayerCount: 3
Fore
SplineSet
470 644 m 1
 524 644 l 1
 524 404 l 1
 747 404 l 1
 691 446 l 1
 702 461 l 1
 857 344 l 1
 702 228 l 1
 691 243 l 1
 747 284 l 1
 524 284 l 1
 524 108 l 1
 566 108 l 1
 520 38 l 1
 497 4 l 1
 428 108 l 1
 470 108 l 1
 470 284 l 1
 188 284 l 1
 188 303 l 1
 470 303 l 1
 470 386 l 1
 188 386 l 1
 188 404 l 1
 470 404 l 1
 470 644 l 1
770 388 m 1
 770 386 l 1
 524 386 l 1
 524 303 l 1
 770 303 l 1
 770 301 l 1
 827 344 l 1
 770 388 l 1
EndSplineSet
Validated: 1
Comment: "Heavy drifting snow,+AAoA-generally low"
EndChar

StartChar: uF007D
Encoding: 983165 983165 43
Width: 1000
HStem: 0 21G<462 517> 273 54<190 462 517 726>
VStem: 462 55<0 273 327 536>
LayerCount: 3
Fore
SplineSet
490 640 m 1
 559 536 l 1
 517 536 l 1
 517 327 l 1
 726 327 l 1
 726 369 l 1
 796 323 l 1
 830 300 l 1
 726 231 l 1
 726 273 l 1
 517 273 l 1
 517 0 l 1
 462 0 l 1
 462 273 l 1
 190 273 l 1
 190 327 l 1
 462 327 l 1
 462 536 l 1
 421 536 l 1
 467 606 l 1
 490 640 l 1
EndSplineSet
Validated: 1
Comment: "Slight or moderate drifting+AAoA-snow, generally high"
EndChar

StartChar: uF007E
Encoding: 983166 983166 44
Width: 1000
HStem: 0 21G<466 521> 240 18<185 466 521 744> 342 18<185 466 521 744>
VStem: 466 55<0 240 258 342 360 536>
LayerCount: 3
Fore
SplineSet
494 640 m 1
 563 536 l 1
 521 536 l 1
 521 360 l 1
 744 360 l 1
 688 402 l 1
 699 416 l 1
 854 300 l 1
 699 184 l 1
 688 198 l 1
 744 240 l 1
 521 240 l 1
 521 0 l 1
 466 0 l 1
 466 240 l 1
 185 240 l 1
 185 258 l 1
 466 258 l 1
 466 342 l 1
 185 342 l 1
 185 360 l 1
 466 360 l 1
 466 536 l 1
 425 536 l 1
 471 606 l 1
 494 640 l 1
766 343 m 1
 766 342 l 1
 521 342 l 1
 521 258 l 1
 766 258 l 1
 766 257 l 1
 824 300 l 1
 766 343 l 1
EndSplineSet
Validated: 1
Comment: "Heavy drifting snow,+AAoA-generally high"
EndChar

StartChar: uF009C
Encoding: 983196 983196 45
Width: 1000
Flags: W
HStem: 171 54<173 809> 343 55<173 809> 516 55<173 809>
VStem: 33 54<237.139 504.555> 894 55<237.139 504.555>
LayerCount: 3
Fore
SplineSet
191 727 m 1
 227 687 l 1
 134 602 87 487 87 371 c 0
 87 255 134 139 227 54 c 1
 191 14 l 1
 86 109 33 240 33 371 c 0
 33 502 86 632 191 727 c 1
791 727 m 1
 896 632 949 502 949 371 c 0
 949 240 896 109 791 14 c 1
 754 54 l 1
 847 139 894 255 894 371 c 0
 894 487 847 602 754 687 c 1
 791 727 l 1
173 571 m 1
 809 571 l 1
 809 516 l 1
 173 516 l 1
 173 571 l 1
173 398 m 1
 809 398 l 1
 809 343 l 1
 173 343 l 1
 173 398 l 1
173 225 m 1
 809 225 l 1
 809 171 l 1
 173 171 l 1
 173 225 l 1
EndSplineSet
Validated: 1
Comment: "Fog at distance at time of+AAoA-observation, but NOT at station+AAoA-during past hour"
EndChar

StartChar: uF009D
Encoding: 983197 983197 46
Width: 1000
HStem: 0 55<187 450 559 823> 173 54<187 823> 345 55<187 450 559 823>
CounterMasks: 1 e0
LayerCount: 3
Fore
SplineSet
187 400 m 1
 450 400 l 1
 450 345 l 1
 187 345 l 1
 187 400 l 1
559 400 m 1
 823 400 l 1
 823 345 l 1
 559 345 l 1
 559 400 l 1
187 227 m 1
 823 227 l 1
 823 173 l 1
 187 173 l 1
 187 227 l 1
187 55 m 1
 450 55 l 1
 450 0 l 1
 187 0 l 1
 187 55 l 1
559 55 m 1
 823 55 l 1
 823 0 l 1
 559 0 l 1
 559 55 l 1
EndSplineSet
Validated: 1
Comment: "Fog in patches"
EndChar

StartChar: uF009E
Encoding: 983198 983198 47
Width: 1000
HStem: 12 55<142 760> 357 55<142 396>
VStem: 814 55<12 412>
LayerCount: 3
Fore
SplineSet
869 412 m 1
 869 12 l 1
 814 12 l 1
 814 412 l 1
 869 412 l 1
142 67 m 1
 760 67 l 1
 760 12 l 1
 142 12 l 1
 142 67 l 1
142 239 m 1
 142 185 l 1
 760 185 l 1
 760 239 l 1
 142 239 l 1
760 357 m 1
 760 412 l 1
 505 412 l 1
 505 357 l 1
 760 357 l 1
142 412 m 1
 396 412 l 1
 396 357 l 1
 142 357 l 1
 142 412 l 1
EndSplineSet
Validated: 9
Comment: "Fog, sky discernible, has+AAoA-become thinner during past hour+AAoA"
EndChar

StartChar: uF009F
Encoding: 983199 983199 48
Width: 1000
Flags: W
HStem: 0 55<130 748> 345 55<130 748>
VStem: 802 55<0 400>
LayerCount: 3
Fore
SplineSet
857 400 m 1
 857 0 l 1
 802 0 l 1
 802 400 l 1
 857 400 l 1
130 55 m 1
 748 55 l 1
 748 0 l 1
 130 0 l 1
 130 55 l 1
130 227 m 1
 130 173 l 1
 748 173 l 1
 748 227 l 1
 130 227 l 1
130 400 m 1
 748 400 l 1
 748 345 l 1
 130 345 l 1
 130 400 l 1
EndSplineSet
Validated: 9
Comment: "Fog, sky NOT discernable,+AAoA-has become thinner during+AAoA-past hour"
EndChar

StartChar: uF00A0
Encoding: 983200 983200 49
Width: 1000
Flags: W
HStem: 0 55<177 813> 345 55<177 440 549 813>
LayerCount: 3
Fore
SplineSet
177 55 m 1
 813 55 l 1
 813 0 l 1
 177 0 l 1
 177 55 l 1
177 227 m 1
 177 173 l 1
 813 173 l 1
 813 227 l 1
 177 227 l 1
813 345 m 1
 549 345 l 1
 549 400 l 1
 813 400 l 1
 813 345 l 1
177 400 m 1
 440 400 l 1
 440 345 l 1
 177 345 l 1
 177 400 l 1
EndSplineSet
Validated: 9
Comment: "Fog, sky discernible, no+AAoA-appreciable change during+AAoA-past hour"
EndChar

StartChar: uF00A1
Encoding: 983201 983201 50
Width: 1000
Flags: W
HStem: 18 55<183 819> 363 55<183 819>
LayerCount: 3
Fore
SplineSet
183 73 m 1
 819 73 l 1
 819 18 l 1
 183 18 l 1
 183 73 l 1
183 245 m 1
 183 191 l 1
 819 191 l 1
 819 245 l 1
 183 245 l 1
183 418 m 1
 819 418 l 1
 819 363 l 1
 183 363 l 1
 183 418 l 1
EndSplineSet
Validated: 9
Comment: "Fog, sky NOT discernible, no+AAoA-appreciable change during+AAoA-past hour"
EndChar

StartChar: uF00A2
Encoding: 983202 983202 51
Width: 1000
HStem: 0 21G<122 176> 345 55<231 485>
VStem: 122 54<0 400>
LayerCount: 3
Fore
SplineSet
176 400 m 1
 176 0 l 1
 122 0 l 1
 122 400 l 1
 176 400 l 1
231 55 m 1
 231 0 l 1
 849 0 l 1
 849 55 l 1
 231 55 l 1
231 227 m 1
 231 173 l 1
 849 173 l 1
 849 227 l 1
 231 227 l 1
849 345 m 1
 849 400 l 1
 594 400 l 1
 594 345 l 1
 849 345 l 1
231 400 m 1
 485 400 l 1
 485 345 l 1
 231 345 l 1
 231 400 l 1
EndSplineSet
Validated: 9
Comment: "Fog, sky discernible, has+AAoA-begun or become thicker+AAoA-during past hour"
EndChar

StartChar: uF00A3
Encoding: 983203 983203 52
Width: 1000
Flags: W
HStem: 0 55<247 865> 345 55<247 865>
VStem: 138 54<0 400>
LayerCount: 3
Fore
SplineSet
192 400 m 1
 192 0 l 1
 138 0 l 1
 138 400 l 1
 192 400 l 1
247 55 m 1
 865 55 l 1
 865 0 l 1
 247 0 l 1
 247 55 l 1
247 227 m 1
 247 173 l 1
 865 173 l 1
 865 227 l 1
 247 227 l 1
247 400 m 1
 865 400 l 1
 865 345 l 1
 247 345 l 1
 247 400 l 1
EndSplineSet
Validated: 9
Comment: "Fog, sky NOT discernible,+AAoA-has begun or become+AAoA-thicker during past hour"
EndChar

StartChar: uF00A4
Encoding: 983204 983204 53
Width: 1000
HStem: 16 55<191 483 535 827> 189 54<191 397 621 827> 361 55<191 337 680 827>
CounterMasks: 1 e0
LayerCount: 3
Fore
SplineSet
191 71 m 1
 483 71 l 1
 424 189 l 1
 191 189 l 1
 191 243 l 1
 397 243 l 1
 337 361 l 1
 191 361 l 1
 191 416 l 1
 251 416 311 416 371 416 c 1
 400 358 428 301 457 243 c 1
 560 243 l 1
 589 301 618 358 647 416 c 1
 707 416 767 416 827 416 c 1
 827 361 l 1
 680 361 l 1
 621 243 l 1
 827 243 l 1
 827 189 l 1
 594 189 l 1
 535 71 l 1
 827 71 l 1
 827 16 l 1
 191 16 l 1
 191 71 l 1
EndSplineSet
Validated: 1
Comment: "Fog, depositing rime, sky+AAoA-discernible"
EndChar

StartChar: uF00A5
Encoding: 983205 983205 54
Width: 1000
Flags: W
HStem: 12 55<185 477 529 821> 185 54<185 390 615 821> 357 55<185 331 392 613 674 821>
CounterMasks: 1 e0
LayerCount: 3
Fore
SplineSet
185 412 m 1
 348 412 l 1
 365 412 l 1
 640 412 l 1
 657 412 l 1
 821 412 l 1
 821 357 l 1
 674 357 l 1
 615 239 l 1
 821 239 l 1
 821 185 l 1
 588 185 l 1
 529 67 l 1
 821 67 l 1
 821 12 l 1
 185 12 l 1
 185 67 l 1
 477 67 l 1
 418 185 l 1
 185 185 l 1
 185 239 l 1
 390 239 l 1
 331 357 l 1
 185 357 l 1
 185 412 l 1
392 357 m 1
 452 239 l 1
 554 239 l 1
 613 357 l 1
 392 357 l 1
EndSplineSet
Validated: 1
Comment: "Fog, depositing rime, kky+AAoA-NOT dicernible"
EndChar

StartChar: uF00C3
Encoding: 983235 983235 55
Width: 1000
Flags: W
HStem: 112 267<427.483 503.64>
VStem: 367 263<169.83 319.531>
LayerCount: 3
Fore
SplineSet
461 8 m 0
 450 14 446 21 446 35 c 0
 446 49 448 53 467 68 c 0
 487 84 505 103 505 108 c 0
 504 109 l 0
 503 110 496 111 487 112 c 0
 431 118 386 155 370 209 c 0
 368 217 367 231 367 245 c 0
 367 259 368 273 370 281 c 0
 388 343 443 379 499 379 c 0
 532 379 565 367 592 340 c 0
 618 314 630 283 630 245 c 0
 630 244 l 0
 630 219 627 207 616 185 c 0
 612 177 607 164 604 156 c 0
 586 105 555 62 514 26 c 0
 496 10 485 4 475 4 c 0
 470 4 466 6 461 8 c 0
EndSplineSet
Validated: 1
Comment: "intemittent drizzle (NOT+AAoA-freezing) slight at time of+AAoA-observatiion"
EndChar

StartChar: uF00C4
Encoding: 983236 983236 56
Width: 1000
Flags: W
VStem: 217 263<169.83 319.531> 527 263<169.83 319.531>
LayerCount: 3
Fore
SplineSet
621 8 m 0
 610 14 606 21 606 35 c 0
 606 49 608 53 627 68 c 0
 647 84 665 103 665 108 c 0
 664 109 l 0
 663 110 656 111 647 112 c 0
 591 118 546 155 530 209 c 0
 528 217 527 231 527 245 c 0
 527 259 528 273 530 281 c 0
 548 343 603 379 659 379 c 0
 692 379 725 367 752 340 c 0
 778 314 790 283 790 245 c 0
 790 244 l 0
 790 219 787 207 776 185 c 0
 772 177 767 164 764 156 c 0
 746 105 715 62 674 26 c 0
 656 10 645 4 635 4 c 0
 630 4 626 6 621 8 c 0
311 8 m 0
 300 14 296 21 296 35 c 0
 296 49 298 53 317 68 c 0
 337 84 355 103 355 108 c 0
 354 109 l 0
 353 110 346 111 337 112 c 0
 281 118 236 155 220 209 c 0
 218 217 217 231 217 245 c 0
 217 259 218 273 220 281 c 0
 238 343 293 379 349 379 c 0
 382 379 415 367 442 340 c 0
 468 314 480 283 480 245 c 0
 480 244 l 0
 480 219 477 207 466 185 c 0
 462 177 457 164 454 156 c 0
 436 105 405 62 364 26 c 0
 346 10 335 4 325 4 c 0
 320 4 316 6 311 8 c 0
EndSplineSet
Validated: 1
Comment: "Continuous drizzle (NOT+AAoA-freezing) slight at time of+AAoA-observation"
EndChar

StartChar: uF00C5
Encoding: 983237 983237 57
Width: 1000
Flags: W
HStem: 112 267<427.483 503.64> 522 267<427.483 503.64>
VStem: 367 263<169.83 319.531 579.83 729.531>
LayerCount: 3
Fore
SplineSet
461 418 m 0
 450 424 446 431 446 445 c 0
 446 459 448 463 467 478 c 0
 487 494 505 513 505 518 c 0
 504 519 l 0
 503 520 496 521 487 522 c 0
 431 528 386 565 370 619 c 0
 368 627 367 641 367 655 c 0
 367 669 368 683 370 691 c 0
 388 753 443 789 499 789 c 0
 532 789 565 777 592 750 c 0
 618 724 630 693 630 655 c 0
 630 654 l 0
 630 629 627 617 616 595 c 0
 612 587 607 574 604 566 c 0
 586 515 555 472 514 436 c 0
 496 420 485 414 475 414 c 0
 470 414 466 416 461 418 c 0
461 8 m 0
 450 14 446 21 446 35 c 0
 446 49 448 53 467 68 c 0
 487 84 505 103 505 108 c 0
 504 109 l 0
 503 110 496 111 487 112 c 0
 431 118 386 155 370 209 c 0
 368 217 367 231 367 245 c 0
 367 259 368 273 370 281 c 0
 388 343 443 379 499 379 c 0
 532 379 565 367 592 340 c 0
 618 314 630 283 630 245 c 0
 630 244 l 0
 630 219 627 207 616 185 c 0
 612 177 607 164 604 156 c 0
 586 105 555 62 514 26 c 0
 496 10 485 4 475 4 c 0
 470 4 466 6 461 8 c 0
EndSplineSet
Validated: 1
Comment: "Intermittent drizzle (NOT+AAoA-freezing) moderate at time+AAoA-of observation"
EndChar

StartChar: uF00C6
Encoding: 983238 983238 58
Width: 1000
Flags: W
HStem: 452 267<445.483 521.64>
VStem: 217 263<169.83 319.531> 385 263<509.83 659.531> 527 263<169.83 319.531>
LayerCount: 3
Fore
SplineSet
479 348 m 0xa0
 468 354 464 361 464 375 c 0
 464 389 466 393 485 408 c 0
 505 424 523 443 523 448 c 0
 522 449 l 0
 521 450 514 451 505 452 c 0
 449 458 404 495 388 549 c 0
 386 557 385 571 385 585 c 0
 385 599 386 613 388 621 c 0
 406 683 461 719 517 719 c 0
 550 719 583 707 610 680 c 0
 636 654 648 623 648 585 c 0
 648 584 l 0
 648 559 645 547 634 525 c 0
 630 517 625 504 622 496 c 0
 604 445 573 402 532 366 c 0
 514 350 503 344 493 344 c 0
 488 344 484 346 479 348 c 0xa0
621 8 m 0
 610 14 606 21 606 35 c 0
 606 49 608 53 627 68 c 0
 647 84 665 103 665 108 c 0
 664 109 l 0
 663 110 656 111 647 112 c 0
 591 118 546 155 530 209 c 0
 528 217 527 231 527 245 c 0
 527 259 528 273 530 281 c 0
 548 343 603 379 659 379 c 0
 692 379 725 367 752 340 c 0
 778 314 790 283 790 245 c 0
 790 244 l 0x90
 790 219 787 207 776 185 c 0
 772 177 767 164 764 156 c 0
 746 105 715 62 674 26 c 0
 656 10 645 4 635 4 c 0
 630 4 626 6 621 8 c 0
311 8 m 0
 300 14 296 21 296 35 c 0
 296 49 298 53 317 68 c 0
 337 84 355 103 355 108 c 0
 354 109 l 0
 353 110 346 111 337 112 c 0
 281 118 236 155 220 209 c 0
 218 217 217 231 217 245 c 0
 217 259 218 273 220 281 c 0
 238 343 293 379 349 379 c 0
 382 379 415 367 442 340 c 0
 468 314 480 283 480 245 c 0
 480 244 l 0xc0
 480 219 477 207 466 185 c 0
 462 177 457 164 454 156 c 0
 436 105 405 62 364 26 c 0
 346 10 335 4 325 4 c 0
 320 4 316 6 311 8 c 0
EndSplineSet
Validated: 1
Comment: "Continuous drizzle (NOT+AAoA-freezing), moderate at time+AAoA-of observation"
EndChar

StartChar: uF00C7
Encoding: 983239 983239 59
Width: 1000
Flags: W
HStem: 332 164<444.275 505.996> 584 165<444.275 505.996>
VStem: 415 175<107.714 215.279 360.714 466.754 612.714 719.754>
LayerCount: 3
Fore
SplineSet
478 520 m 0
 471 524 468 529 468 537 c 0
 468 546 469 548 481 557 c 0
 494 567 507 579 507 582 c 0
 506 583 l 0
 506 583 501 583 495 584 c 0
 458 588 428 611 418 644 c 0
 416 649 415 658 415 666 c 0
 415 674 416 684 418 689 c 0
 430 727 466 749 503 749 c 0
 525 749 546 741 564 725 c 0
 581 709 590 689 590 666 c 0
 590 651 588 644 581 630 c 0
 578 625 574 616 572 611 c 0
 560 580 541 553 513 531 c 0
 501 521 494 518 487 518 c 0
 484 518 481 518 478 520 c 0
478 267 m 0
 471 271 468 276 468 284 c 0
 468 293 469 295 481 304 c 0
 494 314 507 326 507 329 c 0
 506 330 l 0
 506 330 501 331 495 332 c 0
 458 336 428 359 418 392 c 0
 416 397 415 406 415 414 c 0
 415 422 416 431 418 436 c 0
 430 474 466 496 503 496 c 0
 525 496 546 488 564 472 c 0
 581 456 590 437 590 414 c 0
 590 413 l 0
 590 398 588 391 581 377 c 0
 578 372 574 364 572 359 c 0
 560 328 541 301 513 279 c 0
 501 269 494 265 487 265 c 0
 484 265 481 265 478 267 c 0
478 15 m 0
 471 19 468 24 468 32 c 0
 468 41 469 43 481 52 c 0
 494 62 507 74 507 77 c 0
 506 77 l 0
 506 77 501 78 495 79 c 0
 458 83 428 106 418 139 c 0
 416 144 415 153 415 161 c 0
 415 169 416 178 418 183 c 0
 430 221 466 244 503 244 c 0
 525 244 546 236 564 220 c 0
 581 204 590 184 590 161 c 0
 590 146 588 138 581 124 c 0
 578 119 574 111 572 106 c 0
 560 75 541 48 513 26 c 0
 501 16 494 12 487 12 c 0
 484 12 481 13 478 15 c 0
EndSplineSet
Validated: 1
Comment: "Intermittent drizzle (NOT+AAoA-freezing), heavy at time of+AAoA-observation"
EndChar

StartChar: uF00C8
Encoding: 983240 983240 60
Width: 1000
Flags: W
HStem: 332 164<304.275 365.996 574.275 635.996> 584 165<444.275 505.996>
VStem: 275 175<360.714 466.754> 545 175<360.714 466.754>
LayerCount: 3
Fore
SplineSet
338 267 m 0
 331 271 328 276 328 284 c 0
 328 293 329 295 341 304 c 0
 354 314 367 326 367 329 c 0
 366 330 l 0
 366 330 361 331 355 332 c 0
 318 336 288 359 278 392 c 0
 276 397 275 406 275 414 c 0
 275 422 276 431 278 436 c 0
 290 474 326 496 363 496 c 0
 385 496 406 488 424 472 c 0
 441 456 450 437 450 414 c 0
 450 413 l 0
 450 398 448 391 441 377 c 0
 438 372 434 364 432 359 c 0
 420 328 401 301 373 279 c 0
 361 269 354 265 347 265 c 0
 344 265 341 265 338 267 c 0
478 520 m 0
 471 524 468 529 468 537 c 0
 468 546 469 548 481 557 c 0
 494 567 507 579 507 582 c 0
 506 583 l 0
 506 583 501 583 495 584 c 0
 458 588 428 611 418 644 c 0
 416 649 415 658 415 666 c 0
 415 674 416 684 418 689 c 0
 430 727 466 749 503 749 c 0
 525 749 546 741 564 725 c 0
 581 709 590 689 590 666 c 0
 590 651 588 644 581 630 c 0
 578 625 574 616 572 611 c 0
 560 580 541 553 513 531 c 0
 501 521 494 518 487 518 c 0
 484 518 481 518 478 520 c 0
608 267 m 0
 601 271 598 276 598 284 c 0
 598 293 599 295 611 304 c 0
 624 314 637 326 637 329 c 0
 636 330 l 0
 636 330 631 331 625 332 c 0
 588 336 558 359 548 392 c 0
 546 397 545 406 545 414 c 0
 545 422 546 431 548 436 c 0
 560 474 596 496 633 496 c 0
 655 496 676 488 694 472 c 0
 711 456 720 437 720 414 c 0
 720 413 l 0
 720 398 718 391 711 377 c 0
 708 372 704 364 702 359 c 0
 690 328 671 301 643 279 c 0
 631 269 624 265 617 265 c 0
 614 265 611 265 608 267 c 0
478 15 m 0
 471 19 468 24 468 32 c 0
 468 41 469 43 481 52 c 0
 494 62 507 74 507 77 c 0
 506 77 l 0
 506 77 501 78 495 79 c 0
 458 83 428 106 418 139 c 0
 416 144 415 153 415 161 c 0
 415 169 416 178 418 183 c 0
 430 221 466 244 503 244 c 0
 525 244 546 236 564 220 c 0
 581 204 590 184 590 161 c 0
 590 146 588 138 581 124 c 0
 578 119 574 111 572 106 c 0
 560 75 541 48 513 26 c 0
 501 16 494 12 487 12 c 0
 484 12 481 13 478 15 c 0
EndSplineSet
Validated: 1
Comment: "Continuous drizzle (NOT+AAoA-freeing), thick at time of+AAoA-observation"
EndChar

StartChar: uF00C9
Encoding: 983241 983241 61
Width: 1000
Flags: W
HStem: 88 62<583.214 712.717> 170 165<301.275 363.093> 376 61<295.214 424.786>
VStem: 185 62<212.404 326.761> 473 62<199.1 326.761> 761 61<199.1 312.596>
LayerCount: 3
Fore
SplineSet
335 106 m 0
 328 110 325 115 325 123 c 0
 325 132 327 134 339 143 c 0
 352 153 364 165 364 168 c 0
 364 169 l 0
 364 169 358 169 352 170 c 0
 315 174 285 197 275 230 c 0
 273 235 272 244 272 252 c 0
 272 260 273 270 275 275 c 0
 287 313 323 335 360 335 c 0
 382 335 404 327 422 311 c 0
 439 295 447 275 447 252 c 0
 447 237 445 230 438 216 c 0
 435 211 432 202 430 197 c 0
 418 166 398 139 370 117 c 0
 358 107 351 104 344 104 c 0
 341 104 338 104 335 106 c 0
473 263 m 0
 473 326 423 376 360 376 c 0
 297 376 247 326 247 263 c 2
 247 242 l 2
 247 225 233 211 216 211 c 0
 199 211 185 225 185 242 c 2
 185 263 l 2
 185 359 264 437 360 437 c 0
 456 437 535 359 535 263 c 0
 535 200 585 150 648 150 c 0
 711 150 761 200 761 263 c 2
 761 283 l 2
 761 300 774 314 791 314 c 0
 808 314 822 300 822 283 c 2
 822 263 l 2
 822 167 744 88 648 88 c 0
 552 88 473 167 473 263 c 0
EndSplineSet
Validated: 1
Comment: "Slight freezing drizzle"
EndChar

StartChar: uF00CA
Encoding: 983242 983242 62
Width: 1000
Flags: W
HStem: 88 62<583.214 712.717> 170 165<301.275 363.093> 240 165<591.275 653.093> 376 61<295.214 424.786>
VStem: 185 62<212.404 326.761> 473 62<199.1 326.761> 761 61<199.1 312.596>
LayerCount: 3
Fore
SplineSet
625 176 m 0xae
 618 180 615 185 615 193 c 0
 615 202 617 204 629 213 c 0
 642 223 654 235 654 238 c 0
 654 239 l 0
 654 239 648 239 642 240 c 0
 605 244 575 267 565 300 c 0
 563 305 562 314 562 322 c 0
 562 330 563 340 565 345 c 0
 577 383 613 405 650 405 c 0
 672 405 694 397 712 381 c 0
 729 365 737 345 737 322 c 0
 737 307 735 300 728 286 c 0
 725 281 722 272 720 267 c 0
 708 236 688 209 660 187 c 0
 648 177 641 174 634 174 c 0
 631 174 628 174 625 176 c 0xae
335 106 m 0
 328 110 325 115 325 123 c 0
 325 132 327 134 339 143 c 0
 352 153 364 165 364 168 c 0
 364 169 l 0
 364 169 358 169 352 170 c 0
 315 174 285 197 275 230 c 0
 273 235 272 244 272 252 c 0
 272 260 273 270 275 275 c 0
 287 313 323 335 360 335 c 0xce
 382 335 404 327 422 311 c 0
 439 295 447 275 447 252 c 0
 447 237 445 230 438 216 c 0
 435 211 432 202 430 197 c 0
 418 166 398 139 370 117 c 0
 358 107 351 104 344 104 c 0
 341 104 338 104 335 106 c 0
473 263 m 0
 473 326 423 376 360 376 c 0
 297 376 247 326 247 263 c 2
 247 242 l 2
 247 225 233 211 216 211 c 0
 199 211 185 225 185 242 c 2
 185 263 l 2
 185 359 264 437 360 437 c 0x9e
 456 437 535 359 535 263 c 0
 535 200 585 150 648 150 c 0
 711 150 761 200 761 263 c 2
 761 283 l 2
 761 300 774 314 791 314 c 0
 808 314 822 300 822 283 c 2
 822 263 l 2
 822 167 744 88 648 88 c 0
 552 88 473 167 473 263 c 0
EndSplineSet
Validated: 1
Comment: "Moderate or thick freezing drizzle"
EndChar

StartChar: uF00CB
Encoding: 983243 983243 63
Width: 1000
Flags: W
HStem: 112 267<427.483 503.64> 476 244<431.955 568.045>
VStem: 367 263<169.83 319.531> 378 244<529.955 666.045>
LayerCount: 3
Fore
SplineSet
500 720 m 0xd0
 567 720 622 665 622 598 c 0
 622 531 567 476 500 476 c 0
 433 476 378 531 378 598 c 0
 378 665 433 720 500 720 c 0xd0
461 8 m 0
 450 14 446 21 446 35 c 0
 446 49 448 53 467 68 c 0
 487 84 505 103 505 108 c 0
 504 109 l 0
 503 110 496 111 487 112 c 0
 431 118 386 155 370 209 c 0
 368 217 367 231 367 245 c 0
 367 259 368 273 370 281 c 0
 388 343 443 379 499 379 c 0
 532 379 565 367 592 340 c 0
 618 314 630 283 630 245 c 0
 630 244 l 0xe0
 630 219 627 207 616 185 c 0
 612 177 607 164 604 156 c 0
 586 105 555 62 514 26 c 0
 496 10 485 4 475 4 c 0
 470 4 466 6 461 8 c 0
EndSplineSet
Validated: 1
Comment: "Drizzle and rain, slight "
EndChar

StartChar: uF00CC
Encoding: 983244 983244 64
Width: 1000
Flags: W
HStem: 267 218<440.508 571.131> 584 165<444.275 505.996>
VStem: 396 219<312.988 439.012>
LayerCount: 3
Fore
SplineSet
506 485 m 0
 566 485 615 436 615 376 c 0
 615 316 566 267 506 267 c 0
 446 267 396 316 396 376 c 0
 396 436 446 485 506 485 c 0
478 520 m 0
 471 524 468 529 468 537 c 0
 468 546 469 548 481 557 c 0
 494 567 507 579 507 582 c 0
 506 583 l 0
 506 583 501 583 495 584 c 0
 458 588 428 611 418 644 c 0
 416 649 415 658 415 666 c 0
 415 674 416 684 418 689 c 0
 430 727 466 749 503 749 c 0
 525 749 546 741 564 725 c 0
 581 709 590 689 590 666 c 0
 590 651 588 644 581 630 c 0
 578 625 574 616 572 611 c 0
 560 580 541 553 513 531 c 0
 501 521 494 518 487 518 c 0
 484 518 481 518 478 520 c 0
478 15 m 0
 471 19 468 24 468 32 c 0
 468 41 469 43 481 52 c 0
 494 62 507 74 507 77 c 0
 506 77 l 0
 506 77 501 78 495 79 c 0
 458 83 428 106 418 139 c 0
 416 144 415 153 415 161 c 0
 415 169 416 178 418 183 c 0
 430 221 466 244 503 244 c 0
 525 244 546 236 564 220 c 0
 581 204 590 184 590 161 c 0
 590 146 588 138 581 124 c 0
 578 119 574 111 572 106 c 0
 560 75 541 48 513 26 c 0
 501 16 494 12 487 12 c 0
 484 12 481 13 478 15 c 0
EndSplineSet
Validated: 1
Comment: "Drizzle and rain, moderate or heavy"
EndChar

StartChar: uF00EA
Encoding: 983274 983274 65
Width: 1000
Flags: W
HStem: 0 164<430.979 541.021>
VStem: 404 164<26.9791 137.021>
LayerCount: 3
Fore
SplineSet
568 82 m 0
 568 127 531 164 486 164 c 0
 441 164 404 127 404 82 c 0
 404 37 441 0 486 0 c 0
 531 0 568 37 568 82 c 0
EndSplineSet
Validated: 9
Comment: "intemittent rain (NOT freezing)+AAoA-slight at time of observatiion"
EndChar

StartChar: uF00F0
Encoding: 983280 983280 66
Width: 1000
HStem: 74 55<610.106 763.894> 201 164<268.432 378.021> 438 54<246.233 399.894>
VStem: 114 55<219.741 359.459> 242 163<227.979 338.021> 478 54<206.541 359.459> 842 54<206.541 346.412>
LayerCount: 3
Fore
SplineSet
405 283 m 0
 405 328 368 365 323 365 c 0
 278 365 242 328 242 283 c 0
 242 238 278 201 323 201 c 0
 368 201 405 238 405 283 c 0
478 283 m 0
 478 369 409 438 323 438 c 0
 237 438 169 369 169 283 c 2
 169 247 l 2
 169 232 157 219 142 219 c 0
 127 219 114 232 114 247 c 2
 114 283 l 2
 114 398 208 492 323 492 c 0
 438 492 532 398 532 283 c 0
 532 197 601 129 687 129 c 0
 773 129 842 197 842 283 c 2
 842 319 l 2
 842 334 854 347 869 347 c 0
 884 347 896 334 896 319 c 2
 896 283 l 2
 896 168 802 74 687 74 c 0
 572 74 478 168 478 283 c 0
EndSplineSet
Validated: 9
Comment: "Slight freezing rain "
EndChar

StartChar: uF00EB
Encoding: 983275 983275 67
Width: 1000
Flags: W
HStem: 0 164<430.979 541.021 620.979 731.021>
VStem: 404 164<26.9791 137.021> 594 164<26.9791 137.021>
LayerCount: 3
Fore
SplineSet
758 82 m 0
 758 127 721 164 676 164 c 0
 631 164 594 127 594 82 c 0
 594 37 631 0 676 0 c 0
 721 0 758 37 758 82 c 0
568 82 m 0
 568 127 531 164 486 164 c 0
 441 164 404 127 404 82 c 0
 404 37 441 0 486 0 c 0
 531 0 568 37 568 82 c 0
EndSplineSet
Validated: 9
Comment: "Continuous rain (NOT freezing)+AAoA-slight at time of observation"
EndChar

StartChar: uF00EC
Encoding: 983276 983276 68
Width: 1000
Flags: W
HStem: 0 164<430.979 541.021> 190 164<430.979 541.021>
VStem: 404 164<26.9791 137.021 216.979 327.021>
LayerCount: 3
Fore
SplineSet
568 272 m 0
 568 317 531 354 486 354 c 0
 441 354 404 317 404 272 c 0
 404 227 441 190 486 190 c 0
 531 190 568 227 568 272 c 0
568 82 m 0
 568 127 531 164 486 164 c 0
 441 164 404 127 404 82 c 0
 404 37 441 0 486 0 c 0
 531 0 568 37 568 82 c 0
EndSplineSet
Validated: 9
Comment: "Intermittent rain (NOT freezing)+AAoA-moderate at time of observation"
EndChar

StartChar: uF00ED
Encoding: 983277 983277 69
Width: 1000
Flags: W
HStem: 0 164<338.979 449.021 528.979 639.021> 190 164<430.979 541.021>
VStem: 312 164<26.9791 137.021> 404 164<216.979 327.021> 502 164<26.9791 137.021>
LayerCount: 3
Fore
SplineSet
666 82 m 0xc8
 666 127 629 164 584 164 c 0
 539 164 502 127 502 82 c 0
 502 37 539 0 584 0 c 0
 629 0 666 37 666 82 c 0xc8
568 272 m 0xd0
 568 317 531 354 486 354 c 0
 441 354 404 317 404 272 c 0
 404 227 441 190 486 190 c 0
 531 190 568 227 568 272 c 0xd0
476 82 m 0xe0
 476 127 439 164 394 164 c 0
 349 164 312 127 312 82 c 0
 312 37 349 0 394 0 c 0
 439 0 476 37 476 82 c 0xe0
EndSplineSet
Validated: 9
Comment: "Continuous rain (NOT freezing),+AAoA-moderate at time of observation"
EndChar

StartChar: uF00EE
Encoding: 983278 983278 70
Width: 1000
Flags: W
HStem: 0 164<430.979 541.021> 190 164<430.979 541.021> 380 164<430.979 541.021>
VStem: 404 164<26.9791 137.021 216.979 327.021 406.979 517.021>
CounterMasks: 1 e0
LayerCount: 3
Fore
SplineSet
568 462 m 0
 568 507 531 544 486 544 c 0
 441 544 404 507 404 462 c 0
 404 417 441 380 486 380 c 0
 531 380 568 417 568 462 c 0
568 272 m 0
 568 317 531 354 486 354 c 0
 441 354 404 317 404 272 c 0
 404 227 441 190 486 190 c 0
 531 190 568 227 568 272 c 0
568 82 m 0
 568 127 531 164 486 164 c 0
 441 164 404 127 404 82 c 0
 404 37 441 0 486 0 c 0
 531 0 568 37 568 82 c 0
EndSplineSet
Validated: 9
Comment: "Intermittent rain (NOT freezing),+AAoA-heavy at time of observation"
EndChar

StartChar: uF00EF
Encoding: 983279 983279 71
Width: 1000
Flags: W
HStem: 3 164<430.979 541.021> 183 164<338.979 449.021 528.979 639.021> 363 164<430.979 541.021>
VStem: 312 164<209.979 320.021> 404 164<29.9791 140.021 389.979 500.021> 502 164<209.979 320.021>
CounterMasks: 1 e0
LayerCount: 3
Fore
SplineSet
568 85 m 0xe8
 568 130 531 167 486 167 c 0
 441 167 404 130 404 85 c 0
 404 40 441 3 486 3 c 0
 531 3 568 40 568 85 c 0xe8
666 265 m 0xe4
 666 310 629 347 584 347 c 0
 539 347 502 310 502 265 c 0
 502 220 539 183 584 183 c 0
 629 183 666 220 666 265 c 0xe4
568 445 m 0xe8
 568 490 531 527 486 527 c 0
 441 527 404 490 404 445 c 0
 404 400 441 363 486 363 c 0
 531 363 568 400 568 445 c 0xe8
476 265 m 0xf0
 476 310 439 347 394 347 c 0
 349 347 312 310 312 265 c 0
 312 220 349 183 394 183 c 0
 439 183 476 220 476 265 c 0xf0
EndSplineSet
Validated: 9
Comment: "Continuous rain (NOT freeing),+AAoA-heavy at time of observation"
EndChar

StartChar: uF00F1
Encoding: 983281 983281 72
Width: 1000
Flags: W
HStem: 74 55<610.106 763.894> 201 164<268.432 378.021 638.432 748.021> 438 54<246.233 399.894>
VStem: 114 55<219.741 359.459> 242 163<227.979 338.021> 478 54<206.541 359.459> 612 163<227.979 338.021> 842 54<206.541 346.412>
LayerCount: 3
Fore
SplineSet
775 283 m 0
 775 328 738 365 693 365 c 0
 648 365 612 328 612 283 c 0
 612 238 648 201 693 201 c 0
 738 201 775 238 775 283 c 0
405 283 m 0
 405 328 368 365 323 365 c 0
 278 365 242 328 242 283 c 0
 242 238 278 201 323 201 c 0
 368 201 405 238 405 283 c 0
478 283 m 0
 478 369 409 438 323 438 c 0
 237 438 169 369 169 283 c 2
 169 247 l 2
 169 232 157 219 142 219 c 0
 127 219 114 232 114 247 c 2
 114 283 l 2
 114 398 208 492 323 492 c 0
 438 492 532 398 532 283 c 0
 532 197 601 129 687 129 c 0
 773 129 842 197 842 283 c 2
 842 319 l 2
 842 334 854 347 869 347 c 0
 884 347 896 334 896 319 c 2
 896 283 l 2
 896 168 802 74 687 74 c 0
 572 74 478 168 478 283 c 0
EndSplineSet
Validated: 9
Comment: "Moderate or heavy freezing rain"
EndChar

StartChar: uF00F2
Encoding: 983282 983282 73
Width: 1000
Flags: HM
LayerCount: 3
Fore
SplineSet
423.700195312 203.677734375 m 0
 432.359375 208.48046875 442.532226562 208.086914062 450.5703125 203.444335938 c 2
 496.271484375 177.056640625 l 1
 496.26953125 229.829101562 l 2
 496.280273438 239.025390625 500.952148438 247.94921875 509.305664062 253.061523438 c 0
 509.521484375 253.193359375 509.76171875 253.315429688 509.981445312 253.442382812 c 0
 514.259765625 255.912109375 518.9296875 257.08984375 523.541992188 257.096679688 c 0
 532.96875 257.095703125 542.106445312 252.170898438 547.154296875 243.426757812 c 0
 549.630859375 239.13671875 550.80859375 234.451171875 550.80859375 229.826171875 c 2
 550.810546875 177.053710938 l 1
 596.509765625 203.438476562 l 2
 600.8001834 205.915534754 605.486851316 207.092774008 610.112489023 207.092774008 c 0
 619.541526325 207.092774008 628.716971162 202.201114566 633.765625 193.456054688 c 0
 636.242795886 189.165441718 637.42013535 184.478648341 637.42013535 179.852912867 c 0
 637.42013535 170.424315678 632.528722968 161.249391614 623.783203125 156.200195312 c 2
 578.083007812 129.815429688 l 1
 623.78515625 103.427734375 l 2
 627.790039062 101.115234375 631.305664062 97.765625 633.782226562 93.4765625 c 0
 638.831054688 84.732421875 638.48046875 74.3427734375 633.768554688 66.177734375 c 0
 631.456054688 62.1728515625 628.106445312 58.6572265625 623.81640625 56.1796875 c 0
 615.073242188 51.1318359375 604.68359375 51.482421875 596.518554688 56.193359375 c 2
 550.81640625 82.5810546875 l 1
 550.818359375 29.80859375 l 2
 550.81640625 20.3818359375 545.891601562 11.244140625 537.1484375 6.1962890625 c 0
 532.858398438 3.7197265625 528.171875 2.5419921875 523.547851562 2.5419921875 c 0
 514.120117188 2.5439453125 504.981445312 7.4677734375 499.93359375 16.2119140625 c 0
 497.45703125 20.5009765625 496.280273438 25.1884765625 496.279296875 29.8125 c 2
 496.278320312 82.5849609375 l 1
 450.578125 56.2001953125 l 2
 446.288092061 53.7231737467 441.601714922 52.5459326798 436.976253651 52.5459326798 c 0
 427.547368195 52.5459326798 418.371611247 57.4378152754 413.322265625 66.18359375 c 0
 410.845531707 70.4736851518 409.668402155 75.1600257767 409.668402155 79.7854064901 c 0
 409.668402155 89.2139362108 414.559622652 98.3891646966 423.3046875 103.438476562 c 2
 469.005859375 129.823242188 l 1
 423.303710938 156.2109375 l 2
 419.298828125 158.524414062 415.783203125 161.873046875 413.305664062 166.1640625 c 0
 408.2578125 174.90625 408.608398438 185.295898438 413.3203125 193.4609375 c 0
 415.633789062 197.471679688 419.0078125 200.97265625 423.302734375 203.452148438 c 0
 423.435546875 203.529296875 423.567382812 203.603515625 423.700195312 203.677734375 c 0
609 384 m 0
 609 429 572 466 527 466 c 0
 482 466 445 429 445 384 c 0
 445 339 482 302 527 302 c 0
 572 302 609 339 609 384 c 0
EndSplineSet
Validated: 9
Comment: "Rain or drizzle and snow, slight"
EndChar

StartChar: uF00F3
Encoding: 983283 983283 74
Width: 1000
Flags: HMW
LayerCount: 3
Fore
SplineSet
423.700195312 205.677734375 m 0
 432.359375 210.48046875 442.532226562 210.086914062 450.5703125 205.444335938 c 2
 496.271484375 179.056640625 l 1
 496.26953125 231.829101562 l 2
 496.280273438 241.025390625 500.952148438 249.94921875 509.305664062 255.061523438 c 0
 509.521484375 255.193359375 509.76171875 255.315429688 509.981445312 255.442382812 c 0
 514.259765625 257.912109375 518.9296875 259.08984375 523.541992188 259.096679688 c 0
 532.96875 259.095703125 542.106445312 254.170898438 547.154296875 245.426757812 c 0
 549.630859375 241.13671875 550.80859375 236.451171875 550.80859375 231.826171875 c 2
 550.810546875 179.053710938 l 1
 596.509765625 205.438476562 l 2
 600.8001834 207.915534754 605.486851316 209.092774008 610.112489023 209.092774008 c 0
 619.541526325 209.092774008 628.716971162 204.201114566 633.765625 195.456054688 c 0
 636.242795886 191.165441718 637.42013535 186.478648341 637.42013535 181.852912867 c 0
 637.42013535 172.424315678 632.528722968 163.249391614 623.783203125 158.200195312 c 2
 578.083007812 131.815429688 l 1
 623.78515625 105.427734375 l 2
 627.790039062 103.115234375 631.305664062 99.765625 633.782226562 95.4765625 c 0
 638.831054688 86.732421875 638.48046875 76.3427734375 633.768554688 68.177734375 c 0
 631.456054688 64.1728515625 628.106445312 60.6572265625 623.81640625 58.1796875 c 0
 615.073242188 53.1318359375 604.68359375 53.482421875 596.518554688 58.193359375 c 2
 550.81640625 84.5810546875 l 1
 550.818359375 31.80859375 l 2
 550.81640625 22.3818359375 545.891601562 13.244140625 537.1484375 8.1962890625 c 0
 532.858398438 5.7197265625 528.171875 4.5419921875 523.547851562 4.5419921875 c 0
 514.120117188 4.5439453125 504.981445312 9.4677734375 499.93359375 18.2119140625 c 0
 497.45703125 22.5009765625 496.280273438 27.1884765625 496.279296875 31.8125 c 2
 496.278320312 84.5849609375 l 1
 450.578125 58.2001953125 l 2
 446.288092061 55.7231737467 441.601714922 54.5459326798 436.976253651 54.5459326798 c 0
 427.547368195 54.5459326798 418.371611247 59.4378152754 413.322265625 68.18359375 c 0
 410.845531707 72.4736851518 409.668402155 77.1600257767 409.668402155 81.7854064901 c 0
 409.668402155 91.2139362108 414.559622652 100.389164697 423.3046875 105.438476562 c 2
 469.005859375 131.823242188 l 1
 423.303710938 158.2109375 l 2
 419.298828125 160.524414062 415.783203125 163.873046875 413.305664062 168.1640625 c 0
 408.2578125 176.90625 408.608398438 187.295898438 413.3203125 195.4609375 c 0
 415.633789062 199.471679688 419.0078125 202.97265625 423.302734375 205.452148438 c 0
 423.435546875 205.529296875 423.567382812 205.603515625 423.700195312 205.677734375 c 0
423.700195312 705.677734375 m 0
 432.359375 710.48046875 442.532226562 710.086914062 450.5703125 705.444335938 c 2
 496.271484375 679.056640625 l 1
 496.26953125 731.829101562 l 2
 496.280273438 741.025390625 500.952148438 749.94921875 509.305664062 755.061523438 c 0
 509.521484375 755.193359375 509.76171875 755.315429688 509.981445312 755.442382812 c 0
 514.259765625 757.912109375 518.9296875 759.08984375 523.541992188 759.096679688 c 0
 532.96875 759.095703125 542.106445312 754.170898438 547.154296875 745.426757812 c 0
 549.630859375 741.13671875 550.80859375 736.451171875 550.80859375 731.826171875 c 2
 550.810546875 679.053710938 l 1
 596.509765625 705.438476562 l 2
 600.8001834 707.915534754 605.486851316 709.092774008 610.112489023 709.092774008 c 0
 619.541526325 709.092774008 628.716971162 704.201114566 633.765625 695.456054688 c 0
 636.242795886 691.165441718 637.42013535 686.478648341 637.42013535 681.852912867 c 0
 637.42013535 672.424315678 632.528722968 663.249391614 623.783203125 658.200195312 c 2
 578.083007812 631.815429688 l 1
 623.78515625 605.427734375 l 2
 627.790039062 603.115234375 631.305664062 599.765625 633.782226562 595.4765625 c 0
 638.831054688 586.732421875 638.48046875 576.342773438 633.768554688 568.177734375 c 0
 631.456054688 564.172851562 628.106445312 560.657226562 623.81640625 558.1796875 c 0
 615.073242188 553.131835938 604.68359375 553.482421875 596.518554688 558.193359375 c 2
 550.81640625 584.581054688 l 1
 550.818359375 531.80859375 l 2
 550.81640625 522.381835938 545.891601562 513.244140625 537.1484375 508.196289062 c 0
 532.858398438 505.719726562 528.171875 504.541992188 523.547851562 504.541992188 c 0
 514.120117188 504.543945312 504.981445312 509.467773438 499.93359375 518.211914062 c 0
 497.45703125 522.500976562 496.280273438 527.188476562 496.279296875 531.8125 c 2
 496.278320312 584.584960938 l 1
 450.578125 558.200195312 l 2
 446.288092061 555.723173747 441.601714922 554.54593268 436.976253651 554.54593268 c 0
 427.547368195 554.54593268 418.371611247 559.437815275 413.322265625 568.18359375 c 0
 410.845531707 572.473685152 409.668402155 577.160025777 409.668402155 581.78540649 c 0
 409.668402155 591.213936211 414.559622652 600.389164697 423.3046875 605.438476562 c 2
 469.005859375 631.823242188 l 1
 423.303710938 658.2109375 l 2
 419.298828125 660.524414062 415.783203125 663.873046875 413.305664062 668.1640625 c 0
 408.2578125 676.90625 408.608398438 687.295898438 413.3203125 695.4609375 c 0
 415.633789062 699.471679688 419.0078125 702.97265625 423.302734375 705.452148438 c 0
 423.435546875 705.529296875 423.567382812 705.603515625 423.700195312 705.677734375 c 0
609 384 m 0
 609 429 572 466 527 466 c 0
 482 466 445 429 445 384 c 0
 445 339 482 302 527 302 c 0
 572 302 609 339 609 384 c 0
EndSplineSet
Validated: 9
Comment: "Rain or drizzle and snow, moderate+AAoA-or heavy"
EndChar

StartChar: uF0117
Encoding: 983319 983319 75
Width: 1000
HStem: 85 54<304 700>
LayerCount: 3
Fore
SplineSet
337 221 m 0
 338 221 l 0
 348 221 356 217 361 209 c 0
 364 205 365 199 365 194 c 0
 365 184 361 176 353 171 c 2
 304 139 l 1
 700 139 l 1
 651 171 l 2
 643 176 638 184 638 194 c 0
 638 199 639 205 642 209 c 0
 647 217 655 221 665 221 c 0
 666 221 l 0
 671 221 676 220 680 217 c 2
 843 112 l 1
 680 7 l 2
 676 4 670 3 665 3 c 0
 655 3 647 7 642 15 c 0
 639 19 638 25 638 30 c 0
 638 40 643 48 651 53 c 2
 700 85 l 1
 304 85 l 1
 353 53 l 2
 361 48 365 40 365 30 c 0
 365 25 364 19 361 15 c 0
 356 7 348 3 338 3 c 0
 333 3 327 4 323 7 c 2
 160 112 l 1
 323 217 l 2
 327 220 332 221 337 221 c 0
EndSplineSet
Validated: 1
Comment: "Ice needles (with or without fog)"
EndChar

StartChar: uF0116
Encoding: 983318 983318 76
Width: 1000
Flags: W
VStem: 314.279 54.5391<287.413 353.581 448.057 514.225> 484.279 54.5391<17.4133 83.5811 178.057 244.225 547.413 613.581 708.057 774.225> 674.279 54.5391<287.413 353.581 448.057 514.225>
LayerCount: 3
Fore
SplineSet
601.700195312 474.677734375 m 0
 610.359375 479.48046875 620.532226562 479.086914062 628.5703125 474.444335938 c 2
 674.271484375 448.056640625 l 1
 674.26953125 500.829101562 l 2
 674.280273438 510.025390625 678.952148438 518.94921875 687.305664062 524.061523438 c 0
 687.521484375 524.193359375 687.76171875 524.315429688 687.981445312 524.442382812 c 0
 692.259765625 526.912109375 696.9296875 528.08984375 701.541992188 528.096679688 c 0
 710.96875 528.095703125 720.106445312 523.170898438 725.154296875 514.426757812 c 0
 727.630859375 510.13671875 728.80859375 505.451171875 728.80859375 500.826171875 c 2
 728.810546875 448.053710938 l 1
 774.509765625 474.438476562 l 2
 778.799804688 476.916015625 783.487304688 478.092773438 788.112304688 478.092773438 c 0
 797.541992188 478.092773438 806.716796875 473.201171875 811.765625 464.456054688 c 0
 814.243164062 460.165039062 815.419921875 455.478515625 815.419921875 450.852539062 c 0
 815.419921875 441.423828125 810.528320312 432.249023438 801.783203125 427.200195312 c 2
 756.083007812 400.815429688 l 1
 801.78515625 374.427734375 l 2
 805.790039062 372.115234375 809.305664062 368.765625 811.782226562 364.4765625 c 0
 816.831054688 355.732421875 816.48046875 345.342773438 811.768554688 337.177734375 c 0
 809.456054688 333.172851562 806.106445312 329.657226562 801.81640625 327.1796875 c 0
 793.073242188 322.131835938 782.68359375 322.482421875 774.518554688 327.193359375 c 2
 728.81640625 353.581054688 l 1
 728.818359375 300.80859375 l 2
 728.81640625 291.381835938 723.891601562 282.244140625 715.1484375 277.196289062 c 0
 710.858398438 274.719726562 706.171875 273.541992188 701.547851562 273.541992188 c 0
 692.120117188 273.543945312 682.981445312 278.467773438 677.93359375 287.211914062 c 0
 675.45703125 291.500976562 674.280273438 296.188476562 674.279296875 300.8125 c 2
 674.278320312 353.584960938 l 1
 628.578125 327.200195312 l 2
 624.288085938 324.723632812 619.6015625 323.545898438 614.9765625 323.545898438 c 0
 605.547851562 323.545898438 596.372070312 328.4375 591.322265625 337.18359375 c 0
 588.845703125 341.473632812 587.66796875 346.16015625 587.66796875 350.78515625 c 0
 587.66796875 360.213867188 592.559570312 369.389648438 601.3046875 374.438476562 c 2
 647.005859375 400.823242188 l 1
 601.303710938 427.2109375 l 2
 597.298828125 429.524414062 593.783203125 432.873046875 591.305664062 437.1640625 c 0
 586.2578125 445.90625 586.608398438 456.295898438 591.3203125 464.4609375 c 0
 593.633789062 468.471679688 597.0078125 471.97265625 601.302734375 474.452148438 c 0
 601.435546875 474.529296875 601.567382812 474.603515625 601.700195312 474.677734375 c 0
241.700195312 474.677734375 m 0
 250.359375 479.48046875 260.532226562 479.086914062 268.5703125 474.444335938 c 2
 314.271484375 448.056640625 l 1
 314.26953125 500.829101562 l 2
 314.280273438 510.025390625 318.952148438 518.94921875 327.305664062 524.061523438 c 0
 327.521484375 524.193359375 327.76171875 524.315429688 327.981445312 524.442382812 c 0
 332.259765625 526.912109375 336.9296875 528.08984375 341.541992188 528.096679688 c 0
 350.96875 528.095703125 360.106445312 523.170898438 365.154296875 514.426757812 c 0
 367.630859375 510.13671875 368.80859375 505.451171875 368.80859375 500.826171875 c 2
 368.810546875 448.053710938 l 1
 414.509765625 474.438476562 l 2
 418.799804688 476.916015625 423.487304688 478.092773438 428.112304688 478.092773438 c 0
 437.541992188 478.092773438 446.716796875 473.201171875 451.765625 464.456054688 c 0
 454.243164062 460.165039062 455.419921875 455.478515625 455.419921875 450.852539062 c 0
 455.419921875 441.423828125 450.528320312 432.249023438 441.783203125 427.200195312 c 2
 396.083007812 400.815429688 l 1
 441.78515625 374.427734375 l 2
 445.790039062 372.115234375 449.305664062 368.765625 451.782226562 364.4765625 c 0
 456.831054688 355.732421875 456.48046875 345.342773438 451.768554688 337.177734375 c 0
 449.456054688 333.172851562 446.106445312 329.657226562 441.81640625 327.1796875 c 0
 433.073242188 322.131835938 422.68359375 322.482421875 414.518554688 327.193359375 c 2
 368.81640625 353.581054688 l 1
 368.818359375 300.80859375 l 2
 368.81640625 291.381835938 363.891601562 282.244140625 355.1484375 277.196289062 c 0
 350.858398438 274.719726562 346.171875 273.541992188 341.547851562 273.541992188 c 0
 332.120117188 273.543945312 322.981445312 278.467773438 317.93359375 287.211914062 c 0
 315.45703125 291.500976562 314.280273438 296.188476562 314.279296875 300.8125 c 2
 314.278320312 353.584960938 l 1
 268.578125 327.200195312 l 2
 264.288085938 324.723632812 259.6015625 323.545898438 254.9765625 323.545898438 c 0
 245.547851562 323.545898438 236.372070312 328.4375 231.322265625 337.18359375 c 0
 228.845703125 341.473632812 227.66796875 346.16015625 227.66796875 350.78515625 c 0
 227.66796875 360.213867188 232.559570312 369.389648438 241.3046875 374.438476562 c 2
 287.005859375 400.823242188 l 1
 241.303710938 427.2109375 l 2
 237.298828125 429.524414062 233.783203125 432.873046875 231.305664062 437.1640625 c 0
 226.2578125 445.90625 226.608398438 456.295898438 231.3203125 464.4609375 c 0
 233.633789062 468.471679688 237.0078125 471.97265625 241.302734375 474.452148438 c 0
 241.435546875 474.529296875 241.567382812 474.603515625 241.700195312 474.677734375 c 0
411.700195312 204.677734375 m 0
 420.359375 209.48046875 430.532226562 209.086914062 438.5703125 204.444335938 c 2
 484.271484375 178.056640625 l 1
 484.26953125 230.829101562 l 2
 484.280273438 240.025390625 488.952148438 248.94921875 497.305664062 254.061523438 c 0
 497.521484375 254.193359375 497.76171875 254.315429688 497.981445312 254.442382812 c 0
 502.259765625 256.912109375 506.9296875 258.08984375 511.541992188 258.096679688 c 0
 520.96875 258.095703125 530.106445312 253.170898438 535.154296875 244.426757812 c 0
 537.630859375 240.13671875 538.80859375 235.451171875 538.80859375 230.826171875 c 2
 538.810546875 178.053710938 l 1
 584.509765625 204.438476562 l 2
 588.799804688 206.916015625 593.487304688 208.092773438 598.112304688 208.092773438 c 0
 607.541992188 208.092773438 616.716796875 203.201171875 621.765625 194.456054688 c 0
 624.243164062 190.165039062 625.419921875 185.478515625 625.419921875 180.852539062 c 0
 625.419921875 171.423828125 620.528320312 162.249023438 611.783203125 157.200195312 c 2
 566.083007812 130.815429688 l 1
 611.78515625 104.427734375 l 2
 615.790039062 102.115234375 619.305664062 98.765625 621.782226562 94.4765625 c 0
 626.831054688 85.732421875 626.48046875 75.3427734375 621.768554688 67.177734375 c 0
 619.456054688 63.1728515625 616.106445312 59.6572265625 611.81640625 57.1796875 c 0
 603.073242188 52.1318359375 592.68359375 52.482421875 584.518554688 57.193359375 c 2
 538.81640625 83.5810546875 l 1
 538.818359375 30.80859375 l 2
 538.81640625 21.3818359375 533.891601562 12.244140625 525.1484375 7.1962890625 c 0
 520.858398438 4.7197265625 516.171875 3.5419921875 511.547851562 3.5419921875 c 0
 502.120117188 3.5439453125 492.981445312 8.4677734375 487.93359375 17.2119140625 c 0
 485.45703125 21.5009765625 484.280273438 26.1884765625 484.279296875 30.8125 c 2
 484.278320312 83.5849609375 l 1
 438.578125 57.2001953125 l 2
 434.288085938 54.7236328125 429.6015625 53.5458984375 424.9765625 53.5458984375 c 0
 415.547851562 53.5458984375 406.372070312 58.4375 401.322265625 67.18359375 c 0
 398.845703125 71.4736328125 397.66796875 76.16015625 397.66796875 80.78515625 c 0
 397.66796875 90.2138671875 402.559570312 99.3896484375 411.3046875 104.438476562 c 2
 457.005859375 130.823242188 l 1
 411.303710938 157.2109375 l 2
 407.298828125 159.524414062 403.783203125 162.873046875 401.305664062 167.1640625 c 0
 396.2578125 175.90625 396.608398438 186.295898438 401.3203125 194.4609375 c 0
 403.633789062 198.471679688 407.0078125 201.97265625 411.302734375 204.452148438 c 0
 411.435546875 204.529296875 411.567382812 204.603515625 411.700195312 204.677734375 c 0
411.700195312 734.677734375 m 0
 420.359375 739.48046875 430.532226562 739.086914062 438.5703125 734.444335938 c 2
 484.271484375 708.056640625 l 1
 484.26953125 760.829101562 l 2
 484.280273438 770.025390625 488.952148438 778.94921875 497.305664062 784.061523438 c 0
 497.521484375 784.193359375 497.76171875 784.315429688 497.981445312 784.442382812 c 0
 502.259765625 786.912109375 506.9296875 788.08984375 511.541992188 788.096679688 c 0
 520.96875 788.095703125 530.106445312 783.170898438 535.154296875 774.426757812 c 0
 537.630859375 770.13671875 538.80859375 765.451171875 538.80859375 760.826171875 c 2
 538.810546875 708.053710938 l 1
 584.509765625 734.438476562 l 2
 588.799804688 736.916015625 593.487304688 738.092773438 598.112304688 738.092773438 c 0
 607.541992188 738.092773438 616.716796875 733.201171875 621.765625 724.456054688 c 0
 624.243164062 720.165039062 625.419921875 715.478515625 625.419921875 710.852539062 c 0
 625.419921875 701.423828125 620.528320312 692.249023438 611.783203125 687.200195312 c 2
 566.083007812 660.815429688 l 1
 611.78515625 634.427734375 l 2
 615.790039062 632.115234375 619.305664062 628.765625 621.782226562 624.4765625 c 0
 626.831054688 615.732421875 626.48046875 605.342773438 621.768554688 597.177734375 c 0
 619.456054688 593.172851562 616.106445312 589.657226562 611.81640625 587.1796875 c 0
 603.073242188 582.131835938 592.68359375 582.482421875 584.518554688 587.193359375 c 2
 538.81640625 613.581054688 l 1
 538.818359375 560.80859375 l 2
 538.81640625 551.381835938 533.891601562 542.244140625 525.1484375 537.196289062 c 0
 520.858398438 534.719726562 516.171875 533.541992188 511.547851562 533.541992188 c 0
 502.120117188 533.543945312 492.981445312 538.467773438 487.93359375 547.211914062 c 0
 485.45703125 551.500976562 484.280273438 556.188476562 484.279296875 560.8125 c 2
 484.278320312 613.584960938 l 1
 438.578125 587.200195312 l 2
 434.288085938 584.723632812 429.6015625 583.545898438 424.9765625 583.545898438 c 0
 415.547851562 583.545898438 406.372070312 588.4375 401.322265625 597.18359375 c 0
 398.845703125 601.473632812 397.66796875 606.16015625 397.66796875 610.78515625 c 0
 397.66796875 620.213867188 402.559570312 629.389648438 411.3046875 634.438476562 c 2
 457.005859375 660.823242188 l 1
 411.303710938 687.2109375 l 2
 407.298828125 689.524414062 403.783203125 692.873046875 401.305664062 697.1640625 c 0
 396.2578125 705.90625 396.608398438 716.295898438 401.3203125 724.4609375 c 0
 403.633789062 728.471679688 407.0078125 731.97265625 411.302734375 734.452148438 c 0
 411.435546875 734.529296875 411.567382812 734.603515625 411.700195312 734.677734375 c 0
EndSplineSet
Validated: 1
Comment: "Continuous fall of snowflakes,+AAoA-heavy at time of observation"
EndChar

StartChar: uF0111
Encoding: 983313 983313 77
Width: 1000
Flags: HMW
LayerCount: 3
Fore
SplineSet
423.700195312 213.677734375 m 0
 432.359375 218.48046875 442.532226562 218.086914062 450.5703125 213.444335938 c 2
 496.271484375 187.056640625 l 1
 496.26953125 239.829101562 l 2
 496.280273438 249.025390625 500.952148438 257.94921875 509.305664062 263.061523438 c 0
 509.521484375 263.193359375 509.76171875 263.315429688 509.981445312 263.442382812 c 0
 514.259765625 265.912109375 518.9296875 267.08984375 523.541992188 267.096679688 c 0
 532.96875 267.095703125 542.106445312 262.170898438 547.154296875 253.426757812 c 0
 549.630859375 249.13671875 550.80859375 244.451171875 550.80859375 239.826171875 c 2
 550.810546875 187.053710938 l 1
 596.509765625 213.438476562 l 2
 600.8001834 215.915534754 605.486851316 217.092774008 610.112489023 217.092774008 c 0
 619.541526325 217.092774008 628.716971162 212.201114566 633.765625 203.456054688 c 0
 636.242795886 199.165441718 637.42013535 194.478648341 637.42013535 189.852912867 c 0
 637.42013535 180.424315678 632.528722968 171.249391614 623.783203125 166.200195312 c 2
 578.083007812 139.815429688 l 1
 623.78515625 113.427734375 l 2
 627.790039062 111.115234375 631.305664062 107.765625 633.782226562 103.4765625 c 0
 638.831054688 94.732421875 638.48046875 84.3427734375 633.768554688 76.177734375 c 0
 631.456054688 72.1728515625 628.106445312 68.6572265625 623.81640625 66.1796875 c 0
 615.073242188 61.1318359375 604.68359375 61.482421875 596.518554688 66.193359375 c 2
 550.81640625 92.5810546875 l 1
 550.818359375 39.80859375 l 2
 550.81640625 30.3818359375 545.891601562 21.244140625 537.1484375 16.1962890625 c 0
 532.858398438 13.7197265625 528.171875 12.5419921875 523.547851562 12.5419921875 c 0
 514.120117188 12.5439453125 504.981445312 17.4677734375 499.93359375 26.2119140625 c 0
 497.45703125 30.5009765625 496.280273438 35.1884765625 496.279296875 39.8125 c 2
 496.278320312 92.5849609375 l 1
 450.578125 66.2001953125 l 2
 446.288092061 63.7231737467 441.601714922 62.5459326798 436.976253651 62.5459326798 c 0
 427.547368195 62.5459326798 418.371611247 67.4378152754 413.322265625 76.18359375 c 0
 410.845531707 80.4736851518 409.668402155 85.1600257767 409.668402155 89.7854064901 c 0
 409.668402155 99.2139362108 414.559622652 108.389164697 423.3046875 113.438476562 c 2
 469.005859375 139.823242188 l 1
 423.303710938 166.2109375 l 2
 419.298828125 168.524414062 415.783203125 171.873046875 413.305664062 176.1640625 c 0
 408.2578125 184.90625 408.608398438 195.295898438 413.3203125 203.4609375 c 0
 415.633789062 207.471679688 419.0078125 210.97265625 423.302734375 213.452148438 c 0
 423.435546875 213.529296875 423.567382812 213.603515625 423.700195312 213.677734375 c 0
EndSplineSet
Validated: 1
Comment: "Intermittent fall of snowfalkes,+AAoA-sllight at time of observation"
EndChar

StartChar: uF0112
Encoding: 983314 983314 78
Width: 1000
Flags: W
HStem: 13.542 254.555<350.173 386.947 620.173 656.947>
VStem: 346.279 54.5391<27.4133 93.5811 188.057 254.225> 616.279 54.5391<27.4133 93.5811 188.057 254.225>
LayerCount: 3
Fore
SplineSet
543.700195312 214.677734375 m 0
 552.359375 219.48046875 562.532226562 219.086914062 570.5703125 214.444335938 c 2
 616.271484375 188.056640625 l 1
 616.26953125 240.829101562 l 2
 616.280273438 250.025390625 620.952148438 258.94921875 629.305664062 264.061523438 c 0
 629.521484375 264.193359375 629.76171875 264.315429688 629.981445312 264.442382812 c 0
 634.259765625 266.912109375 638.9296875 268.08984375 643.541992188 268.096679688 c 0
 652.96875 268.095703125 662.106445312 263.170898438 667.154296875 254.426757812 c 0
 669.630859375 250.13671875 670.80859375 245.451171875 670.80859375 240.826171875 c 2
 670.810546875 188.053710938 l 1
 716.509765625 214.438476562 l 2
 720.799804688 216.916015625 725.487304688 218.092773438 730.112304688 218.092773438 c 0
 739.541992188 218.092773438 748.716796875 213.201171875 753.765625 204.456054688 c 0
 756.243164062 200.165039062 757.419921875 195.478515625 757.419921875 190.852539062 c 0
 757.419921875 181.423828125 752.528320312 172.249023438 743.783203125 167.200195312 c 2
 698.083007812 140.815429688 l 1
 743.78515625 114.427734375 l 2
 747.790039062 112.115234375 751.305664062 108.765625 753.782226562 104.4765625 c 0
 758.831054688 95.732421875 758.48046875 85.3427734375 753.768554688 77.177734375 c 0
 751.456054688 73.1728515625 748.106445312 69.6572265625 743.81640625 67.1796875 c 0
 735.073242188 62.1318359375 724.68359375 62.482421875 716.518554688 67.193359375 c 2
 670.81640625 93.5810546875 l 1
 670.818359375 40.80859375 l 2
 670.81640625 31.3818359375 665.891601562 22.244140625 657.1484375 17.1962890625 c 0
 652.858398438 14.7197265625 648.171875 13.5419921875 643.547851562 13.5419921875 c 0
 634.120117188 13.5439453125 624.981445312 18.4677734375 619.93359375 27.2119140625 c 0
 617.45703125 31.5009765625 616.280273438 36.1884765625 616.279296875 40.8125 c 2
 616.278320312 93.5849609375 l 1
 570.578125 67.2001953125 l 2
 566.288085938 64.7236328125 561.6015625 63.5458984375 556.9765625 63.5458984375 c 0
 547.547851562 63.5458984375 538.372070312 68.4375 533.322265625 77.18359375 c 0
 530.845703125 81.4736328125 529.66796875 86.16015625 529.66796875 90.78515625 c 0
 529.66796875 100.213867188 534.559570312 109.389648438 543.3046875 114.438476562 c 2
 589.005859375 140.823242188 l 1
 543.303710938 167.2109375 l 2
 539.298828125 169.524414062 535.783203125 172.873046875 533.305664062 177.1640625 c 0
 528.2578125 185.90625 528.608398438 196.295898438 533.3203125 204.4609375 c 0
 535.633789062 208.471679688 539.0078125 211.97265625 543.302734375 214.452148438 c 0
 543.435546875 214.529296875 543.567382812 214.603515625 543.700195312 214.677734375 c 0
273.700195312 214.677734375 m 0
 282.359375 219.48046875 292.532226562 219.086914062 300.5703125 214.444335938 c 2
 346.271484375 188.056640625 l 1
 346.26953125 240.829101562 l 2
 346.280273438 250.025390625 350.952148438 258.94921875 359.305664062 264.061523438 c 0
 359.521484375 264.193359375 359.76171875 264.315429688 359.981445312 264.442382812 c 0
 364.259765625 266.912109375 368.9296875 268.08984375 373.541992188 268.096679688 c 0
 382.96875 268.095703125 392.106445312 263.170898438 397.154296875 254.426757812 c 0
 399.630859375 250.13671875 400.80859375 245.451171875 400.80859375 240.826171875 c 2
 400.810546875 188.053710938 l 1
 446.509765625 214.438476562 l 2
 450.8001834 216.915534754 455.486851316 218.092774008 460.112489023 218.092774008 c 0
 469.541526325 218.092774008 478.716971162 213.201114566 483.765625 204.456054688 c 0
 486.242795886 200.165441718 487.42013535 195.478648341 487.42013535 190.852912867 c 0
 487.42013535 181.424315678 482.528722968 172.249391614 473.783203125 167.200195312 c 2
 428.083007812 140.815429688 l 1
 473.78515625 114.427734375 l 2
 477.790039062 112.115234375 481.305664062 108.765625 483.782226562 104.4765625 c 0
 488.831054688 95.732421875 488.48046875 85.3427734375 483.768554688 77.177734375 c 0
 481.456054688 73.1728515625 478.106445312 69.6572265625 473.81640625 67.1796875 c 0
 465.073242188 62.1318359375 454.68359375 62.482421875 446.518554688 67.193359375 c 2
 400.81640625 93.5810546875 l 1
 400.818359375 40.80859375 l 2
 400.81640625 31.3818359375 395.891601562 22.244140625 387.1484375 17.1962890625 c 0
 382.858398438 14.7197265625 378.171875 13.5419921875 373.547851562 13.5419921875 c 0
 364.120117188 13.5439453125 354.981445312 18.4677734375 349.93359375 27.2119140625 c 0
 347.45703125 31.5009765625 346.280273438 36.1884765625 346.279296875 40.8125 c 2
 346.278320312 93.5849609375 l 1
 300.578125 67.2001953125 l 2
 296.288092061 64.7231737467 291.601714922 63.5459326798 286.976253651 63.5459326798 c 0
 277.547368195 63.5459326798 268.371611247 68.4378152754 263.322265625 77.18359375 c 0
 260.845531707 81.4736851518 259.668402155 86.1600257767 259.668402155 90.7854064901 c 0
 259.668402155 100.213936211 264.559622652 109.389164697 273.3046875 114.438476562 c 2
 319.005859375 140.823242188 l 1
 273.303710938 167.2109375 l 2
 269.298828125 169.524414062 265.783203125 172.873046875 263.305664062 177.1640625 c 0
 258.2578125 185.90625 258.608398438 196.295898438 263.3203125 204.4609375 c 0
 265.633789062 208.471679688 269.0078125 211.97265625 273.302734375 214.452148438 c 0
 273.435546875 214.529296875 273.567382812 214.603515625 273.700195312 214.677734375 c 0
EndSplineSet
Validated: 1
Comment: "Continuous fall of snowflakes,+AAoA-slight at time of observation"
EndChar

StartChar: uF0113
Encoding: 983315 983315 79
Width: 1000
Flags: W
VStem: 496.279 54.5391<27.4133 93.5811 188.057 254.225 327.413 393.581 488.057 554.225>
LayerCount: 3
Fore
SplineSet
423.700195312 514.677734375 m 0
 432.359375 519.48046875 442.532226562 519.086914062 450.5703125 514.444335938 c 2
 496.271484375 488.056640625 l 1
 496.26953125 540.829101562 l 2
 496.280273438 550.025390625 500.952148438 558.94921875 509.305664062 564.061523438 c 0
 509.521484375 564.193359375 509.76171875 564.315429688 509.981445312 564.442382812 c 0
 514.259765625 566.912109375 518.9296875 568.08984375 523.541992188 568.096679688 c 0
 532.96875 568.095703125 542.106445312 563.170898438 547.154296875 554.426757812 c 0
 549.630859375 550.13671875 550.80859375 545.451171875 550.80859375 540.826171875 c 2
 550.810546875 488.053710938 l 1
 596.509765625 514.438476562 l 2
 600.799804688 516.916015625 605.487304688 518.092773438 610.112304688 518.092773438 c 0
 619.541992188 518.092773438 628.716796875 513.201171875 633.765625 504.456054688 c 0
 636.243164062 500.165039062 637.419921875 495.478515625 637.419921875 490.852539062 c 0
 637.419921875 481.423828125 632.528320312 472.249023438 623.783203125 467.200195312 c 2
 578.083007812 440.815429688 l 1
 623.78515625 414.427734375 l 2
 627.790039062 412.115234375 631.305664062 408.765625 633.782226562 404.4765625 c 0
 638.831054688 395.732421875 638.48046875 385.342773438 633.768554688 377.177734375 c 0
 631.456054688 373.172851562 628.106445312 369.657226562 623.81640625 367.1796875 c 0
 615.073242188 362.131835938 604.68359375 362.482421875 596.518554688 367.193359375 c 2
 550.81640625 393.581054688 l 1
 550.818359375 340.80859375 l 2
 550.81640625 331.381835938 545.891601562 322.244140625 537.1484375 317.196289062 c 0
 532.858398438 314.719726562 528.171875 313.541992188 523.547851562 313.541992188 c 0
 514.120117188 313.543945312 504.981445312 318.467773438 499.93359375 327.211914062 c 0
 497.45703125 331.500976562 496.280273438 336.188476562 496.279296875 340.8125 c 2
 496.278320312 393.584960938 l 1
 450.578125 367.200195312 l 2
 446.288085938 364.723632812 441.6015625 363.545898438 436.9765625 363.545898438 c 0
 427.547851562 363.545898438 418.372070312 368.4375 413.322265625 377.18359375 c 0
 410.845703125 381.473632812 409.66796875 386.16015625 409.66796875 390.78515625 c 0
 409.66796875 400.213867188 414.559570312 409.389648438 423.3046875 414.438476562 c 2
 469.005859375 440.823242188 l 1
 423.303710938 467.2109375 l 2
 419.298828125 469.524414062 415.783203125 472.873046875 413.305664062 477.1640625 c 0
 408.2578125 485.90625 408.608398438 496.295898438 413.3203125 504.4609375 c 0
 415.633789062 508.471679688 419.0078125 511.97265625 423.302734375 514.452148438 c 0
 423.435546875 514.529296875 423.567382812 514.603515625 423.700195312 514.677734375 c 0
423.700195312 214.677734375 m 0
 432.359375 219.48046875 442.532226562 219.086914062 450.5703125 214.444335938 c 2
 496.271484375 188.056640625 l 1
 496.26953125 240.829101562 l 2
 496.280273438 250.025390625 500.952148438 258.94921875 509.305664062 264.061523438 c 0
 509.521484375 264.193359375 509.76171875 264.315429688 509.981445312 264.442382812 c 0
 514.259765625 266.912109375 518.9296875 268.08984375 523.541992188 268.096679688 c 0
 532.96875 268.095703125 542.106445312 263.170898438 547.154296875 254.426757812 c 0
 549.630859375 250.13671875 550.80859375 245.451171875 550.80859375 240.826171875 c 2
 550.810546875 188.053710938 l 1
 596.509765625 214.438476562 l 2
 600.799804688 216.916015625 605.487304688 218.092773438 610.112304688 218.092773438 c 0
 619.541992188 218.092773438 628.716796875 213.201171875 633.765625 204.456054688 c 0
 636.243164062 200.165039062 637.419921875 195.478515625 637.419921875 190.852539062 c 0
 637.419921875 181.423828125 632.528320312 172.249023438 623.783203125 167.200195312 c 2
 578.083007812 140.815429688 l 1
 623.78515625 114.427734375 l 2
 627.790039062 112.115234375 631.305664062 108.765625 633.782226562 104.4765625 c 0
 638.831054688 95.732421875 638.48046875 85.3427734375 633.768554688 77.177734375 c 0
 631.456054688 73.1728515625 628.106445312 69.6572265625 623.81640625 67.1796875 c 0
 615.073242188 62.1318359375 604.68359375 62.482421875 596.518554688 67.193359375 c 2
 550.81640625 93.5810546875 l 1
 550.818359375 40.80859375 l 2
 550.81640625 31.3818359375 545.891601562 22.244140625 537.1484375 17.1962890625 c 0
 532.858398438 14.7197265625 528.171875 13.5419921875 523.547851562 13.5419921875 c 0
 514.120117188 13.5439453125 504.981445312 18.4677734375 499.93359375 27.2119140625 c 0
 497.45703125 31.5009765625 496.280273438 36.1884765625 496.279296875 40.8125 c 2
 496.278320312 93.5849609375 l 1
 450.578125 67.2001953125 l 2
 446.288085938 64.7236328125 441.6015625 63.5458984375 436.9765625 63.5458984375 c 0
 427.547851562 63.5458984375 418.372070312 68.4375 413.322265625 77.18359375 c 0
 410.845703125 81.4736328125 409.66796875 86.16015625 409.66796875 90.78515625 c 0
 409.66796875 100.213867188 414.559570312 109.389648438 423.3046875 114.438476562 c 2
 469.005859375 140.823242188 l 1
 423.303710938 167.2109375 l 2
 419.298828125 169.524414062 415.783203125 172.873046875 413.305664062 177.1640625 c 0
 408.2578125 185.90625 408.608398438 196.295898438 413.3203125 204.4609375 c 0
 415.633789062 208.471679688 419.0078125 211.97265625 423.302734375 214.452148438 c 0
 423.435546875 214.529296875 423.567382812 214.603515625 423.700195312 214.677734375 c 0
EndSplineSet
Validated: 1
Comment: "Intermittent fall of snowflakes,+AAoA-moderate at time of observation"
EndChar

StartChar: uF0114
Encoding: 983316 983316 80
Width: 1000
Flags: W
VStem: 346.279 54.5391<27.4133 93.5811 188.057 254.225> 483.279 54.5391<257.413 323.581 418.057 484.225> 616.279 54.5391<27.4133 93.5811 188.057 254.225>
LayerCount: 3
Fore
SplineSet
410.700195312 444.677734375 m 0
 419.359375 449.48046875 429.532226562 449.086914062 437.5703125 444.444335938 c 2
 483.271484375 418.056640625 l 1
 483.26953125 470.829101562 l 2
 483.280273438 480.025390625 487.952148438 488.94921875 496.305664062 494.061523438 c 0
 496.521484375 494.193359375 496.76171875 494.315429688 496.981445312 494.442382812 c 0
 501.259765625 496.912109375 505.9296875 498.08984375 510.541992188 498.096679688 c 0
 519.96875 498.095703125 529.106445312 493.170898438 534.154296875 484.426757812 c 0
 536.630859375 480.13671875 537.80859375 475.451171875 537.80859375 470.826171875 c 2
 537.810546875 418.053710938 l 1
 583.509765625 444.438476562 l 2
 587.799804688 446.916015625 592.487304688 448.092773438 597.112304688 448.092773438 c 0
 606.541992188 448.092773438 615.716796875 443.201171875 620.765625 434.456054688 c 0
 623.243164062 430.165039062 624.419921875 425.478515625 624.419921875 420.852539062 c 0
 624.419921875 411.423828125 619.528320312 402.249023438 610.783203125 397.200195312 c 2
 565.083007812 370.815429688 l 1
 610.78515625 344.427734375 l 2
 614.790039062 342.115234375 618.305664062 338.765625 620.782226562 334.4765625 c 0
 625.831054688 325.732421875 625.48046875 315.342773438 620.768554688 307.177734375 c 0
 618.456054688 303.172851562 615.106445312 299.657226562 610.81640625 297.1796875 c 0
 602.073242188 292.131835938 591.68359375 292.482421875 583.518554688 297.193359375 c 2
 537.81640625 323.581054688 l 1
 537.818359375 270.80859375 l 2
 537.81640625 261.381835938 532.891601562 252.244140625 524.1484375 247.196289062 c 0
 519.858398438 244.719726562 515.171875 243.541992188 510.547851562 243.541992188 c 0
 501.120117188 243.543945312 491.981445312 248.467773438 486.93359375 257.211914062 c 0
 484.45703125 261.500976562 483.280273438 266.188476562 483.279296875 270.8125 c 2
 483.278320312 323.584960938 l 1
 437.578125 297.200195312 l 2
 433.288085938 294.723632812 428.6015625 293.545898438 423.9765625 293.545898438 c 0
 414.547851562 293.545898438 405.372070312 298.4375 400.322265625 307.18359375 c 0
 397.845703125 311.473632812 396.66796875 316.16015625 396.66796875 320.78515625 c 0
 396.66796875 330.213867188 401.559570312 339.389648438 410.3046875 344.438476562 c 2
 456.005859375 370.823242188 l 1
 410.303710938 397.2109375 l 2
 406.298828125 399.524414062 402.783203125 402.873046875 400.305664062 407.1640625 c 0
 395.2578125 415.90625 395.608398438 426.295898438 400.3203125 434.4609375 c 0
 402.633789062 438.471679688 406.0078125 441.97265625 410.302734375 444.452148438 c 0
 410.435546875 444.529296875 410.567382812 444.603515625 410.700195312 444.677734375 c 0
543.700195312 214.677734375 m 0
 552.359375 219.48046875 562.532226562 219.086914062 570.5703125 214.444335938 c 2
 616.271484375 188.056640625 l 1
 616.26953125 240.829101562 l 2
 616.280273438 250.025390625 620.952148438 258.94921875 629.305664062 264.061523438 c 0
 629.521484375 264.193359375 629.76171875 264.315429688 629.981445312 264.442382812 c 0
 634.259765625 266.912109375 638.9296875 268.08984375 643.541992188 268.096679688 c 0
 652.96875 268.095703125 662.106445312 263.170898438 667.154296875 254.426757812 c 0
 669.630859375 250.13671875 670.80859375 245.451171875 670.80859375 240.826171875 c 2
 670.810546875 188.053710938 l 1
 716.509765625 214.438476562 l 2
 720.799804688 216.916015625 725.487304688 218.092773438 730.112304688 218.092773438 c 0
 739.541992188 218.092773438 748.716796875 213.201171875 753.765625 204.456054688 c 0
 756.243164062 200.165039062 757.419921875 195.478515625 757.419921875 190.852539062 c 0
 757.419921875 181.423828125 752.528320312 172.249023438 743.783203125 167.200195312 c 2
 698.083007812 140.815429688 l 1
 743.78515625 114.427734375 l 2
 747.790039062 112.115234375 751.305664062 108.765625 753.782226562 104.4765625 c 0
 758.831054688 95.732421875 758.48046875 85.3427734375 753.768554688 77.177734375 c 0
 751.456054688 73.1728515625 748.106445312 69.6572265625 743.81640625 67.1796875 c 0
 735.073242188 62.1318359375 724.68359375 62.482421875 716.518554688 67.193359375 c 2
 670.81640625 93.5810546875 l 1
 670.818359375 40.80859375 l 2
 670.81640625 31.3818359375 665.891601562 22.244140625 657.1484375 17.1962890625 c 0
 652.858398438 14.7197265625 648.171875 13.5419921875 643.547851562 13.5419921875 c 0
 634.120117188 13.5439453125 624.981445312 18.4677734375 619.93359375 27.2119140625 c 0
 617.45703125 31.5009765625 616.280273438 36.1884765625 616.279296875 40.8125 c 2
 616.278320312 93.5849609375 l 1
 570.578125 67.2001953125 l 2
 566.288085938 64.7236328125 561.6015625 63.5458984375 556.9765625 63.5458984375 c 0
 547.547851562 63.5458984375 538.372070312 68.4375 533.322265625 77.18359375 c 0
 530.845703125 81.4736328125 529.66796875 86.16015625 529.66796875 90.78515625 c 0
 529.66796875 100.213867188 534.559570312 109.389648438 543.3046875 114.438476562 c 2
 589.005859375 140.823242188 l 1
 543.303710938 167.2109375 l 2
 539.298828125 169.524414062 535.783203125 172.873046875 533.305664062 177.1640625 c 0
 528.2578125 185.90625 528.608398438 196.295898438 533.3203125 204.4609375 c 0
 535.633789062 208.471679688 539.0078125 211.97265625 543.302734375 214.452148438 c 0
 543.435546875 214.529296875 543.567382812 214.603515625 543.700195312 214.677734375 c 0
273.700195312 214.677734375 m 0
 282.359375 219.48046875 292.532226562 219.086914062 300.5703125 214.444335938 c 2
 346.271484375 188.056640625 l 1
 346.26953125 240.829101562 l 2
 346.280273438 250.025390625 350.952148438 258.94921875 359.305664062 264.061523438 c 0
 359.521484375 264.193359375 359.76171875 264.315429688 359.981445312 264.442382812 c 0
 364.259765625 266.912109375 368.9296875 268.08984375 373.541992188 268.096679688 c 0
 382.96875 268.095703125 392.106445312 263.170898438 397.154296875 254.426757812 c 0
 399.630859375 250.13671875 400.80859375 245.451171875 400.80859375 240.826171875 c 2
 400.810546875 188.053710938 l 1
 446.509765625 214.438476562 l 2
 450.799804688 216.916015625 455.487304688 218.092773438 460.112304688 218.092773438 c 0
 469.541992188 218.092773438 478.716796875 213.201171875 483.765625 204.456054688 c 0
 486.243164062 200.165039062 487.419921875 195.478515625 487.419921875 190.852539062 c 0
 487.419921875 181.423828125 482.528320312 172.249023438 473.783203125 167.200195312 c 2
 428.083007812 140.815429688 l 1
 473.78515625 114.427734375 l 2
 477.790039062 112.115234375 481.305664062 108.765625 483.782226562 104.4765625 c 0
 488.831054688 95.732421875 488.48046875 85.3427734375 483.768554688 77.177734375 c 0
 481.456054688 73.1728515625 478.106445312 69.6572265625 473.81640625 67.1796875 c 0
 465.073242188 62.1318359375 454.68359375 62.482421875 446.518554688 67.193359375 c 2
 400.81640625 93.5810546875 l 1
 400.818359375 40.80859375 l 2
 400.81640625 31.3818359375 395.891601562 22.244140625 387.1484375 17.1962890625 c 0
 382.858398438 14.7197265625 378.171875 13.5419921875 373.547851562 13.5419921875 c 0
 364.120117188 13.5439453125 354.981445312 18.4677734375 349.93359375 27.2119140625 c 0
 347.45703125 31.5009765625 346.280273438 36.1884765625 346.279296875 40.8125 c 2
 346.278320312 93.5849609375 l 1
 300.578125 67.2001953125 l 2
 296.288085938 64.7236328125 291.6015625 63.5458984375 286.9765625 63.5458984375 c 0
 277.547851562 63.5458984375 268.372070312 68.4375 263.322265625 77.18359375 c 0
 260.845703125 81.4736328125 259.66796875 86.16015625 259.66796875 90.78515625 c 0
 259.66796875 100.213867188 264.559570312 109.389648438 273.3046875 114.438476562 c 2
 319.005859375 140.823242188 l 1
 273.303710938 167.2109375 l 2
 269.298828125 169.524414062 265.783203125 172.873046875 263.305664062 177.1640625 c 0
 258.2578125 185.90625 258.608398438 196.295898438 263.3203125 204.4609375 c 0
 265.633789062 208.471679688 269.0078125 211.97265625 273.302734375 214.452148438 c 0
 273.435546875 214.529296875 273.567382812 214.603515625 273.700195312 214.677734375 c 0
EndSplineSet
Validated: 1
Comment: "Continuous fall of snowflakes,+AAoA-moderate at time of observation"
EndChar

StartChar: uF0115
Encoding: 983317 983317 81
Width: 1000
Flags: W
VStem: 496.279 54.5391<23.4133 89.5811 184.057 250.225 290.413 356.581 451.057 517.225 555.413 621.581 716.057 782.225>
LayerCount: 3
Fore
SplineSet
423.700195312 742.677734375 m 0
 432.359375 747.48046875 442.532226562 747.086914062 450.5703125 742.444335938 c 2
 496.271484375 716.056640625 l 1
 496.26953125 768.829101562 l 2
 496.280273438 778.025390625 500.952148438 786.94921875 509.305664062 792.061523438 c 0
 509.521484375 792.193359375 509.76171875 792.315429688 509.981445312 792.442382812 c 0
 514.259765625 794.912109375 518.9296875 796.08984375 523.541992188 796.096679688 c 0
 532.96875 796.095703125 542.106445312 791.170898438 547.154296875 782.426757812 c 0
 549.630859375 778.13671875 550.80859375 773.451171875 550.80859375 768.826171875 c 2
 550.810546875 716.053710938 l 1
 596.509765625 742.438476562 l 2
 600.799804688 744.916015625 605.487304688 746.092773438 610.112304688 746.092773438 c 0
 619.541992188 746.092773438 628.716796875 741.201171875 633.765625 732.456054688 c 0
 636.243164062 728.165039062 637.419921875 723.478515625 637.419921875 718.852539062 c 0
 637.419921875 709.423828125 632.528320312 700.249023438 623.783203125 695.200195312 c 2
 578.083007812 668.815429688 l 1
 623.78515625 642.427734375 l 2
 627.790039062 640.115234375 631.305664062 636.765625 633.782226562 632.4765625 c 0
 638.831054688 623.732421875 638.48046875 613.342773438 633.768554688 605.177734375 c 0
 631.456054688 601.172851562 628.106445312 597.657226562 623.81640625 595.1796875 c 0
 615.073242188 590.131835938 604.68359375 590.482421875 596.518554688 595.193359375 c 2
 550.81640625 621.581054688 l 1
 550.818359375 568.80859375 l 2
 550.81640625 559.381835938 545.891601562 550.244140625 537.1484375 545.196289062 c 0
 532.858398438 542.719726562 528.171875 541.541992188 523.547851562 541.541992188 c 0
 514.120117188 541.543945312 504.981445312 546.467773438 499.93359375 555.211914062 c 0
 497.45703125 559.500976562 496.280273438 564.188476562 496.279296875 568.8125 c 2
 496.278320312 621.584960938 l 1
 450.578125 595.200195312 l 2
 446.288085938 592.723632812 441.6015625 591.545898438 436.9765625 591.545898438 c 0
 427.547851562 591.545898438 418.372070312 596.4375 413.322265625 605.18359375 c 0
 410.845703125 609.473632812 409.66796875 614.16015625 409.66796875 618.78515625 c 0
 409.66796875 628.213867188 414.559570312 637.389648438 423.3046875 642.438476562 c 2
 469.005859375 668.823242188 l 1
 423.303710938 695.2109375 l 2
 419.298828125 697.524414062 415.783203125 700.873046875 413.305664062 705.1640625 c 0
 408.2578125 713.90625 408.608398438 724.295898438 413.3203125 732.4609375 c 0
 415.633789062 736.471679688 419.0078125 739.97265625 423.302734375 742.452148438 c 0
 423.435546875 742.529296875 423.567382812 742.603515625 423.700195312 742.677734375 c 0
423.700195312 477.677734375 m 0
 432.359375 482.48046875 442.532226562 482.086914062 450.5703125 477.444335938 c 2
 496.271484375 451.056640625 l 1
 496.26953125 503.829101562 l 2
 496.280273438 513.025390625 500.952148438 521.94921875 509.305664062 527.061523438 c 0
 509.521484375 527.193359375 509.76171875 527.315429688 509.981445312 527.442382812 c 0
 514.259765625 529.912109375 518.9296875 531.08984375 523.541992188 531.096679688 c 0
 532.96875 531.095703125 542.106445312 526.170898438 547.154296875 517.426757812 c 0
 549.630859375 513.13671875 550.80859375 508.451171875 550.80859375 503.826171875 c 2
 550.810546875 451.053710938 l 1
 596.509765625 477.438476562 l 2
 600.799804688 479.916015625 605.487304688 481.092773438 610.112304688 481.092773438 c 0
 619.541992188 481.092773438 628.716796875 476.201171875 633.765625 467.456054688 c 0
 636.243164062 463.165039062 637.419921875 458.478515625 637.419921875 453.852539062 c 0
 637.419921875 444.423828125 632.528320312 435.249023438 623.783203125 430.200195312 c 2
 578.083007812 403.815429688 l 1
 623.78515625 377.427734375 l 2
 627.790039062 375.115234375 631.305664062 371.765625 633.782226562 367.4765625 c 0
 638.831054688 358.732421875 638.48046875 348.342773438 633.768554688 340.177734375 c 0
 631.456054688 336.172851562 628.106445312 332.657226562 623.81640625 330.1796875 c 0
 615.073242188 325.131835938 604.68359375 325.482421875 596.518554688 330.193359375 c 2
 550.81640625 356.581054688 l 1
 550.818359375 303.80859375 l 2
 550.81640625 294.381835938 545.891601562 285.244140625 537.1484375 280.196289062 c 0
 532.858398438 277.719726562 528.171875 276.541992188 523.547851562 276.541992188 c 0
 514.120117188 276.543945312 504.981445312 281.467773438 499.93359375 290.211914062 c 0
 497.45703125 294.500976562 496.280273438 299.188476562 496.279296875 303.8125 c 2
 496.278320312 356.584960938 l 1
 450.578125 330.200195312 l 2
 446.288085938 327.723632812 441.6015625 326.545898438 436.9765625 326.545898438 c 0
 427.547851562 326.545898438 418.372070312 331.4375 413.322265625 340.18359375 c 0
 410.845703125 344.473632812 409.66796875 349.16015625 409.66796875 353.78515625 c 0
 409.66796875 363.213867188 414.559570312 372.389648438 423.3046875 377.438476562 c 2
 469.005859375 403.823242188 l 1
 423.303710938 430.2109375 l 2
 419.298828125 432.524414062 415.783203125 435.873046875 413.305664062 440.1640625 c 0
 408.2578125 448.90625 408.608398438 459.295898438 413.3203125 467.4609375 c 0
 415.633789062 471.471679688 419.0078125 474.97265625 423.302734375 477.452148438 c 0
 423.435546875 477.529296875 423.567382812 477.603515625 423.700195312 477.677734375 c 0
423.700195312 210.677734375 m 0
 432.359375 215.48046875 442.532226562 215.086914062 450.5703125 210.444335938 c 2
 496.271484375 184.056640625 l 1
 496.26953125 236.829101562 l 2
 496.280273438 246.025390625 500.952148438 254.94921875 509.305664062 260.061523438 c 0
 509.521484375 260.193359375 509.76171875 260.315429688 509.981445312 260.442382812 c 0
 514.259765625 262.912109375 518.9296875 264.08984375 523.541992188 264.096679688 c 0
 532.96875 264.095703125 542.106445312 259.170898438 547.154296875 250.426757812 c 0
 549.630859375 246.13671875 550.80859375 241.451171875 550.80859375 236.826171875 c 2
 550.810546875 184.053710938 l 1
 596.509765625 210.438476562 l 2
 600.799804688 212.916015625 605.487304688 214.092773438 610.112304688 214.092773438 c 0
 619.541992188 214.092773438 628.716796875 209.201171875 633.765625 200.456054688 c 0
 636.243164062 196.165039062 637.419921875 191.478515625 637.419921875 186.852539062 c 0
 637.419921875 177.423828125 632.528320312 168.249023438 623.783203125 163.200195312 c 2
 578.083007812 136.815429688 l 1
 623.78515625 110.427734375 l 2
 627.790039062 108.115234375 631.305664062 104.765625 633.782226562 100.4765625 c 0
 638.831054688 91.732421875 638.48046875 81.3427734375 633.768554688 73.177734375 c 0
 631.456054688 69.1728515625 628.106445312 65.6572265625 623.81640625 63.1796875 c 0
 615.073242188 58.1318359375 604.68359375 58.482421875 596.518554688 63.193359375 c 2
 550.81640625 89.5810546875 l 1
 550.818359375 36.80859375 l 2
 550.81640625 27.3818359375 545.891601562 18.244140625 537.1484375 13.1962890625 c 0
 532.858398438 10.7197265625 528.171875 9.5419921875 523.547851562 9.5419921875 c 0
 514.120117188 9.5439453125 504.981445312 14.4677734375 499.93359375 23.2119140625 c 0
 497.45703125 27.5009765625 496.280273438 32.1884765625 496.279296875 36.8125 c 2
 496.278320312 89.5849609375 l 1
 450.578125 63.2001953125 l 2
 446.288085938 60.7236328125 441.6015625 59.5458984375 436.9765625 59.5458984375 c 0
 427.547851562 59.5458984375 418.372070312 64.4375 413.322265625 73.18359375 c 0
 410.845703125 77.4736328125 409.66796875 82.16015625 409.66796875 86.78515625 c 0
 409.66796875 96.2138671875 414.559570312 105.389648438 423.3046875 110.438476562 c 2
 469.005859375 136.823242188 l 1
 423.303710938 163.2109375 l 2
 419.298828125 165.524414062 415.783203125 168.873046875 413.305664062 173.1640625 c 0
 408.2578125 181.90625 408.608398438 192.295898438 413.3203125 200.4609375 c 0
 415.633789062 204.471679688 419.0078125 207.97265625 423.302734375 210.452148438 c 0
 423.435546875 210.529296875 423.567382812 210.603515625 423.700195312 210.677734375 c 0
EndSplineSet
Validated: 1
Comment: "Intermittent fall of snowflakes,+AAoA-heavy at time of observation"
EndChar

StartChar: uF0118
Encoding: 983320 983320 82
Width: 1000
HStem: 0 55<381 601> 120 55<164 356 452 529 625 818>
LayerCount: 3
Fore
SplineSet
491 346 m 1
 593 175 l 1
 818 175 l 1
 818 120 l 1
 625 120 l 1
 697 0 l 1
 285 0 l 1
 356 120 l 1
 164 120 l 1
 164 175 l 1
 389 175 l 1
 467 307 l 1
 491 346 l 1
491 239 m 1
 452 175 l 1
 529 175 l 1
 491 239 l 1
420 120 m 1
 381 55 l 1
 601 55 l 1
 562 120 l 1
 420 120 l 1
EndSplineSet
Validated: 1
Comment: "Granular snow (with or without+AAoA-fog"
EndChar

StartChar: uF0119
Encoding: 983321 983321 83
Width: 1000
HStem: 102 55<262 468 600 807>
LayerCount: 3
Fore
SplineSet
442 247 m 0
 443 247 l 0
 444 247 l 0
 451 247 458 244 463 239 c 2
 534 168 l 1
 606 239 l 2
 611 244 617 247 625 247 c 0
 626 247 l 0
 633 247 639 244 644 239 c 0
 649 234 652 228 652 220 c 0
 652 212 649 206 644 201 c 2
 600 157 l 1
 807 157 l 1
 807 102 l 1
 600 102 l 1
 644 58 l 2
 649 53 652 46 652 38 c 0
 652 30 649 24 644 19 c 0
 639 14 633 11 625 11 c 0
 617 11 611 14 606 19 c 2
 534 91 l 1
 463 19 l 2
 458 14 451 11 443 11 c 0
 435 11 429 14 424 19 c 0
 419 24 416 30 416 38 c 0
 416 46 419 53 424 58 c 2
 468 102 l 1
 262 102 l 1
 262 157 l 1
 468 157 l 1
 424 201 l 2
 419 206 416 212 416 220 c 0
 416 228 419 234 424 239 c 0
 429 244 435 247 442 247 c 0
EndSplineSet
Validated: 1
Comment: "Isolated starlike snow+AAoA-crystals (with or without fog)"
EndChar

StartChar: uF011A
Encoding: 983322 983322 84
Width: 1000
HStem: 0 55<261 715> 100 171<441 535> 118 135<451 525>
VStem: 402 171<138 232> 421 134<148 222>
LayerCount: 3
Fore
SplineSet
488 271 m 0xd0
 535 271 573 232 573 185 c 0
 573 138 535 100 488 100 c 0
 441 100 402 138 402 185 c 0
 402 232 441 271 488 271 c 0xd0
488 253 m 0xa8
 525 253 555 222 555 185 c 0
 555 148 525 118 488 118 c 0
 451 118 421 148 421 185 c 0
 421 222 451 253 488 253 c 0xa8
488 556 m 1
 809 0 l 1
 167 0 l 1
 464 515 l 1
 488 556 l 1
488 447 m 1
 261 55 l 1
 715 55 l 1
 488 447 l 1
EndSplineSet
Validated: 9
Comment: "Ice pellets (sleet, U.S. definition)"
EndChar

StartChar: uF0138
Encoding: 983352 983352 85
Width: 1000
Flags: W
HStem: 0 21G<478.488 495.512> 338 45<393 581> 398 1<477.832 496.168> 401 175<429.655 544.345> 578 1<477.832 496.168>
VStem: 396 2<477.57 500.413> 399 176<431.655 545.915> 576 2<477.57 500.413>
CounterMasks: 1 07
LayerCount: 3
Fore
SplineSet
324 383 m 1
 487 383 l 1
 650 383 l 1
 487 0 l 1
 324 383 l 1
393 338 m 1
 487 116 l 1
 581 338 l 1
 487 338 l 1
 393 338 l 1
399 489 m 0
 399 537 439 576 487 576 c 0
 535 576 575 537 575 489 c 0
 575 441 535 401 487 401 c 0
 439 401 399 441 399 489 c 0
396 489 m 0
 396 439 437 398 487 398 c 0
 537 398 578 439 578 489 c 0
 578 539 537 579 487 579 c 0
 437 579 396 539 396 489 c 0
398 489 m 0
 398 538 438 578 487 578 c 0
 536 578 576 538 576 489 c 0
 576 440 536 399 487 399 c 0
 438 399 398 440 398 489 c 0
EndSplineSet
Validated: 9
Comment: "Slight rain showers(s)"
EndChar

StartChar: uF013A
Encoding: 983354 983354 86
Width: 1000
HStem: 0 21G<478.488 495.512> 338 45<393 581> 398 1<477.832 496.168> 401 175<429.655 544.345> 578 1<477.832 496.168> 597 1<477.832 496.168> 600 175<429.655 544.345> 777 1<477.832 496.168>
VStem: 396 2<477.57 500.413 675.587 698.43> 576 2<477.57 500.413 675.587 698.43>
LayerCount: 3
Fore
SplineSet
324 383 m 1
 487 383 l 1
 650 383 l 1
 487 0 l 1
 324 383 l 1
393 338 m 1
 487 116 l 1
 581 338 l 1
 487 338 l 1
 393 338 l 1
399 489 m 0
 399 537 439 576 487 576 c 0
 535 576 575 537 575 489 c 0
 575 441 535 401 487 401 c 0
 439 401 399 441 399 489 c 0
396 489 m 0
 396 439 437 398 487 398 c 0
 537 398 578 439 578 489 c 0
 578 539 537 579 487 579 c 0
 437 579 396 539 396 489 c 0
398 489 m 0
 398 538 438 578 487 578 c 0
 536 578 576 538 576 489 c 0
 576 440 536 399 487 399 c 0
 438 399 398 440 398 489 c 0
399 687 m 0
 399 735 439 775 487 775 c 0
 535 775 575 735 575 687 c 0
 575 639 535 600 487 600 c 0
 439 600 399 639 399 687 c 0
396 687 m 0
 396 637 437 597 487 597 c 0
 537 597 578 637 578 687 c 0
 578 737 537 778 487 778 c 0
 437 778 396 737 396 687 c 0
398 687 m 0
 398 736 438 777 487 777 c 0
 536 777 576 736 576 687 c 0
 576 638 536 598 487 598 c 0
 438 598 398 638 398 687 c 0
EndSplineSet
Validated: 9
Comment: "Violent rain shower(s)"
EndChar

StartChar: uF0139
Encoding: 983353 983353 87
Width: 1000
HStem: 1 21G<484.506 501.494> 262 48<434 552> 358 48<393 593> 431 1<482.832 501.168> 434 175<434.655 549.345> 611 1<482.832 501.168>
VStem: 401 2<509.587 532.43> 404 176<464.085 576.293> 581 2<509.587 532.43>
CounterMasks: 1 0380
LayerCount: 3
Fore
SplineSet
404 521 m 0
 404 569 444 609 492 609 c 0
 519 609 544 597 560 577 c 0
 572 562 580 542 580 521 c 0
 580 473 540 434 492 434 c 0
 444 434 404 473 404 521 c 0
401 521 m 0
 401 471 442 431 492 431 c 0
 542 431 583 471 583 521 c 0
 583 571 542 612 492 612 c 0
 442 612 401 571 401 521 c 0
403 521 m 0
 403 570 443 611 492 611 c 0
 541 611 581 570 581 521 c 0
 581 472 541 432 492 432 c 0
 443 432 403 472 403 521 c 0
321 406 m 1
 493 406 l 1
 665 406 l 1
 493 1 l 1
 321 406 l 1
393 358 m 1
 414 310 l 1
 572 310 l 1
 593 358 l 1
 493 358 l 1
 393 358 l 1
434 262 m 1
 493 123 l 1
 552 262 l 1
 434 262 l 1
EndSplineSet
Validated: 9
Comment: "Moderate or heavy rain shower(s)"
EndChar

StartChar: uF013B
Encoding: 983355 983355 88
Width: 1000
Flags: W
HStem: 0 21G<478.488 495.512> 338 45<393 581> 599 1<477.832 496.168> 602 175<429.655 544.345> 779 1<477.832 496.168>
VStem: 396 2<678.57 701.413> 399 176<632.655 746.915> 472 34<401.005 452 512 562.995> 576 2<678.57 701.413>
LayerCount: 3
Fore
SplineSet
489 563 m 0xfd80
 499 563 506 556 506 546 c 2
 506 512 l 1
 536 529 l 2
 539 530 541 531 544 531 c 0
 545 531 l 0
 551 531 557 528 560 523 c 0
 561 520 562 517 562 514 c 0
 562 508 558 502 553 499 c 2
 524 482 l 1
 553 465 l 2
 558 462 562 456 562 450 c 0
 562 447 561 444 560 441 c 0
 557 436 550 433 544 433 c 0
 541 433 539 434 536 435 c 2
 506 452 l 1
 506 418 l 2
 506 408 499 401 489 401 c 0
 479 401 472 408 472 418 c 2
 472 452 l 1
 442 435 l 2
 439 434 437 433 434 433 c 0
 428 433 421 436 418 441 c 0
 417 444 416 447 416 450 c 0
 416 456 420 462 425 465 c 2
 454 482 l 1
 425 499 l 2
 420 502 416 508 416 514 c 0
 416 517 417 520 418 523 c 0
 421 528 427 531 433 531 c 0
 434 531 l 0
 437 531 439 530 442 529 c 2
 472 512 l 1
 472 546 l 2
 472 556 479 563 489 563 c 0xfd80
324 383 m 1
 487 383 l 1
 650 383 l 1
 487 0 l 1
 324 383 l 1
393 338 m 1
 487 116 l 1
 581 338 l 1
 487 338 l 1
 393 338 l 1
399 690 m 0xfe80
 399 738 439 777 487 777 c 0
 535 777 575 738 575 690 c 0
 575 642 535 602 487 602 c 0
 439 602 399 642 399 690 c 0xfe80
396 690 m 0
 396 640 437 599 487 599 c 0
 537 599 578 640 578 690 c 0
 578 740 537 780 487 780 c 0
 437 780 396 740 396 690 c 0
398 690 m 0
 398 739 438 779 487 779 c 0
 536 779 576 739 576 690 c 0
 576 641 536 600 487 600 c 0
 438 600 398 641 398 690 c 0
EndSplineSet
Validated: 9
Comment: "Slight showers(s) of rain+AAoA-and snow mixed"
EndChar

StartChar: uF013C
Encoding: 983356 983356 89
Width: 1000
Flags: W
HStem: 1 21G<484.506 501.494> 262 48<434 552> 358 48<393 593> 606 1<477.832 496.168> 609 175<429.655 544.345> 786 1<477.832 496.168>
VStem: 396 2<685.57 708.413> 399 176<639.655 753.915> 472 34<426.005 477 537 581> 576 2<685.57 708.413>
LayerCount: 3
Fore
SplineSet
321 406 m 1xfe40
 493 406 l 1
 665 406 l 1
 493 1 l 1
 321 406 l 1xfe40
393 358 m 1
 414 310 l 1
 572 310 l 1
 593 358 l 1
 493 358 l 1
 393 358 l 1
434 262 m 1
 493 123 l 1
 552 262 l 1
 434 262 l 1
489 581 m 0
 499 581 506 581 506 571 c 2
 506 537 l 1
 536 554 l 2
 539 555 541 556 544 556 c 0
 545 556 l 0
 551 556 557 553 560 548 c 0
 561 545 562 542 562 539 c 0
 562 533 558 527 553 524 c 2
 524 507 l 1
 553 490 l 2
 558 487 562 481 562 475 c 0
 562 472 561 469 560 466 c 0
 557 461 550 458 544 458 c 0
 541 458 539 459 536 460 c 2
 506 477 l 1
 506 443 l 2
 506 433 499 426 489 426 c 0
 479 426 472 433 472 443 c 2
 472 477 l 1
 442 460 l 2
 439 459 437 458 434 458 c 0
 428 458 421 461 418 466 c 0
 417 469 416 472 416 475 c 0
 416 481 420 487 425 490 c 2
 454 507 l 1
 425 524 l 2
 420 527 416 533 416 539 c 0
 416 542 417 545 418 548 c 0
 421 553 427 556 433 556 c 0
 434 556 l 0
 437 556 439 555 442 554 c 2
 472 537 l 1
 472 571 l 2xfec0
 472 581 479 581 489 581 c 0
399 697 m 0xff40
 399 745 439 784 487 784 c 0
 535 784 575 745 575 697 c 0
 575 649 535 609 487 609 c 0
 439 609 399 649 399 697 c 0xff40
396 697 m 0
 396 647 437 606 487 606 c 0
 537 606 578 647 578 697 c 0
 578 747 537 787 487 787 c 0
 437 787 396 747 396 697 c 0
398 697 m 0
 398 746 438 786 487 786 c 0
 536 786 576 746 576 697 c 0
 576 648 536 607 487 607 c 0
 438 607 398 648 398 697 c 0
EndSplineSet
Validated: 9
Comment: "Moderate or heavy shower(s) of rain and snow mized"
EndChar

StartChar: uF013D
Encoding: 983357 983357 90
Width: 1000
Flags: W
HStem: 0 21G<478.488 495.512> 338 45<393 581>
VStem: 472 34<406.005 457 517 561>
LayerCount: 3
Fore
SplineSet
489 561 m 0
 499 561 506 561 506 551 c 2
 506 517 l 1
 536 534 l 2
 539 535 541 536 544 536 c 0
 545 536 l 0
 551 536 557 533 560 528 c 0
 561 525 562 522 562 519 c 0
 562 513 558 507 553 504 c 2
 524 487 l 1
 553 470 l 2
 558 467 562 461 562 455 c 0
 562 452 561 449 560 446 c 0
 557 441 550 438 544 438 c 0
 541 438 539 439 536 440 c 2
 506 457 l 1
 506 423 l 2
 506 413 499 406 489 406 c 0
 479 406 472 413 472 423 c 2
 472 457 l 1
 442 440 l 2
 439 439 437 438 434 438 c 0
 428 438 421 441 418 446 c 0
 417 449 416 452 416 455 c 0
 416 461 420 467 425 470 c 2
 454 487 l 1
 425 504 l 2
 420 507 416 513 416 519 c 0
 416 522 417 525 418 528 c 0
 421 533 427 536 433 536 c 0
 434 536 l 0
 437 536 439 535 442 534 c 2
 472 517 l 1
 472 551 l 2
 472 561 479 561 489 561 c 0
324 383 m 1
 487 383 l 1
 650 383 l 1
 487 0 l 1
 324 383 l 1
393 338 m 1
 487 116 l 1
 581 338 l 1
 487 338 l 1
 393 338 l 1
EndSplineSet
Validated: 1
EndChar

StartChar: uF013E
Encoding: 983358 983358 91
Width: 1000
Flags: W
HStem: 1 21G<484.506 501.494> 262 48<434 552> 358 48<393 593>
VStem: 476 34<437.005 488 548 592>
LayerCount: 3
Fore
SplineSet
493 592 m 0
 503 592 510 592 510 582 c 2
 510 548 l 1
 540 565 l 2
 543 566 545 567 548 567 c 0
 549 567 l 0
 555 567 561 564 564 559 c 0
 565 556 566 553 566 550 c 0
 566 544 562 538 557 535 c 2
 528 518 l 1
 557 501 l 2
 562 498 566 492 566 486 c 0
 566 483 565 480 564 477 c 0
 561 472 554 469 548 469 c 0
 545 469 543 470 540 471 c 2
 510 488 l 1
 510 454 l 2
 510 444 503 437 493 437 c 0
 483 437 476 444 476 454 c 2
 476 488 l 1
 446 471 l 2
 443 470 441 469 438 469 c 0
 432 469 425 472 422 477 c 0
 421 480 420 483 420 486 c 0
 420 492 424 498 429 501 c 2
 458 518 l 1
 429 535 l 2
 424 538 420 544 420 550 c 0
 420 553 421 556 422 559 c 0
 425 564 431 567 437 567 c 0
 438 567 l 0
 441 567 443 566 446 565 c 2
 476 548 l 1
 476 582 l 2
 476 592 483 592 493 592 c 0
321 406 m 1
 493 406 l 1
 665 406 l 1
 493 1 l 1
 321 406 l 1
393 358 m 1
 414 310 l 1
 572 310 l 1
 593 358 l 1
 493 358 l 1
 393 358 l 1
434 262 m 1
 493 123 l 1
 552 262 l 1
 434 262 l 1
EndSplineSet
Validated: 1
Comment: "Moderate or heavy snow shower(s)"
EndChar

StartChar: uF013F
Encoding: 983359 983359 92
Width: 1000
Flags: W
HStem: 0 21G<478.488 495.512> 338 45<393 581> 428 55<425 549>
VStem: 324 326
LayerCount: 3
Fore
SplineSet
487 699 m 1
 643 428 l 1
 378 428 l 1
 331 428 l 1
 487 699 l 1
487 590 m 1
 425 483 l 1
 549 483 l 1
 487 590 l 1
324 383 m 1
 487 383 l 1
 650 383 l 1
 487 0 l 1
 324 383 l 1
393 338 m 1
 487 116 l 1
 581 338 l 1
 487 338 l 1
 393 338 l 1
EndSplineSet
Validated: 1
Comment: "Slight shower(s) of soft or small hail with or without rain, or rain and snow mixed"
EndChar

StartChar: uF0140
Encoding: 983360 983360 93
Width: 1000
Flags: W
HStem: 1 21G<484.506 501.494> 262 48<434 552> 358 48<393 593> 452 55<432 556>
LayerCount: 3
Fore
SplineSet
321 406 m 1
 493 406 l 1
 665 406 l 1
 493 1 l 1
 321 406 l 1
393 358 m 1
 414 310 l 1
 572 310 l 1
 593 358 l 1
 493 358 l 1
 393 358 l 1
434 262 m 1
 493 123 l 1
 552 262 l 1
 434 262 l 1
494 723 m 1
 650 452 l 1
 385 452 l 1
 338 452 l 1
 494 723 l 1
494 614 m 1
 432 507 l 1
 556 507 l 1
 494 614 l 1
EndSplineSet
Validated: 1
Comment: "Moderate or heavy shower(s) of soft or small hail with or without rain, or rain and snow mixed"
EndChar

StartChar: uF0141
Encoding: 983361 983361 94
Width: 1000
Flags: W
HStem: 0 21G<478.488 495.512> 338 45<393 581>
VStem: 324 326
LayerCount: 3
Fore
SplineSet
487 699 m 1
 643 428 l 1
 378 428 l 1
 331 428 l 1
 487 699 l 1
324 383 m 1
 487 383 l 1
 650 383 l 1
 487 0 l 1
 324 383 l 1
393 338 m 1
 487 116 l 1
 581 338 l 1
 487 338 l 1
 393 338 l 1
EndSplineSet
Validated: 1
Comment: "Slight shower(s) of hail, with or without rain or rain and snow mixed, not associated with thunder"
EndChar

StartChar: uF015F
Encoding: 983391 983391 95
Width: 1000
Flags: W
HStem: 1 21G<484.506 501.494> 262 48<434 552> 358 48<393 593>
LayerCount: 3
Fore
SplineSet
321 406 m 1
 493 406 l 1
 665 406 l 1
 493 1 l 1
 321 406 l 1
393 358 m 1
 414 310 l 1
 572 310 l 1
 593 358 l 1
 493 358 l 1
 393 358 l 1
434 262 m 1
 493 123 l 1
 552 262 l 1
 434 262 l 1
494 723 m 1
 650 452 l 1
 385 452 l 1
 338 452 l 1
 494 723 l 1
EndSplineSet
Validated: 1
Comment: "Moderate or heavy showers of+AAoA-hail, with or without rain or rain+AAoA-and snow mixed, not associated+AAoA-with thunder."
EndChar

StartChar: uF0160
Encoding: 983392 983392 96
Width: 1000
HStem: 0 43.6357<579.363 659.363> 290.908 130.91<763.64 860.541> 589.091 43.6357<230.272 266.636 310.272 536.835> 669.091 43.6357<579.363 659.363>
VStem: 266.636 43.6367<72.7266 589.091> 579.363 123.637<0 43.6357 669.091 712.727> 659.363 43.6367<43.6357 669.091> 746.636 130.909<307.912 404.814>
LayerCount: 3
Fore
SplineSet
877.544921875 356.36328125 m 0xf9
 877.544921875 392.512695312 848.240234375 421.818359375 812.08984375 421.818359375 c 0
 775.94140625 421.818359375 746.635742188 392.512695312 746.635742188 356.36328125 c 0
 746.635742188 320.213867188 775.94140625 290.908203125 812.08984375 290.908203125 c 0
 848.240234375 290.908203125 877.544921875 320.213867188 877.544921875 356.36328125 c 0xf9
230.272460938 632.7265625 m 1
 621.891601562 632.7265625 l 1
 404.25 329.6015625 l 1
 579.36328125 154.48828125 l 1xfd
 608.454101562 183.579101562 l 1
 608.454101562 94.544921875 l 1
 572.08984375 94.544921875 l 1
 519.419921875 94.544921875 l 1
 548.510742188 123.635742188 l 1
 347.204101562 324.943359375 l 1
 536.834960938 589.090820312 l 1
 310.272460938 589.090820312 l 1
 310.272460938 72.7265625 l 1
 266.635742188 72.7265625 l 1
 266.635742188 589.090820312 l 1
 230.272460938 589.090820312 l 1
 230.272460938 632.7265625 l 1
579.36328125 712.7265625 m 1
 703 712.7265625 l 1
 703 0 l 1
 579.36328125 0 l 1
 579.36328125 43.6357421875 l 1xfd
 659.36328125 43.6357421875 l 1
 659.36328125 669.090820312 l 1xfb
 579.36328125 669.090820312 l 1
 579.36328125 712.7265625 l 1
EndSplineSet
Validated: 9
Comment: "Slight rain at time of observation;+AAoA-thunderstorm during past hour,+AAoA-but NOT at time of observation"
EndChar

StartChar: uF0160
Encoding: 983392 983392 97
Width: 1000
HStem: 0 44<579 659> 291 131<763.85 860.697> 589 44<230 267 310 537> 669 44<579 659>
VStem: 267 43<73 589> 579 124<0 44 669 713> 659 44<44 669> 747 131<307.85 404.697>
LayerCount: 3
Fore
SplineSet
878 356 m 0xf9
 878 392 848 422 812 422 c 0
 776 422 747 392 747 356 c 0
 747 320 776 291 812 291 c 0
 848 291 878 320 878 356 c 0xf9
230 633 m 1
 622 633 l 1
 404 330 l 1
 579 154 l 1xfd
 608 184 l 1
 608 95 l 1
 572 95 l 1
 519 95 l 1
 549 124 l 1
 347 325 l 1
 537 589 l 1
 310 589 l 1
 310 73 l 1
 267 73 l 1
 267 589 l 1
 230 589 l 1
 230 633 l 1
579 713 m 1
 703 713 l 1
 703 0 l 1
 579 0 l 1
 579 44 l 1xfd
 659 44 l 1
 659 669 l 1xfb
 579 669 l 1
 579 713 l 1
EndSplineSet
Validated: 9
Comment: "Slight rain at time of observation;+AAoA-thunderstorm during past hour,+AAoA-but NOT at time of observation"
EndChar

StartChar: uF0161
Encoding: 983393 983393 98
Width: 1000
Flags: W
HStem: 0 44<579 659> 221 131<763.85 860.697> 371 131<763.85 860.697> 589 44<230 267 310 537> 669 44<579 659>
VStem: 267 43<73 589> 579 124<0 44 669 713> 659 44<44 669> 747 131<237.85 334.697 387.85 484.697>
LayerCount: 3
Fore
SplineSet
878 436 m 0xfc80
 878 472 848 502 812 502 c 0
 776 502 747 472 747 436 c 0
 747 400 776 371 812 371 c 0
 848 371 878 400 878 436 c 0xfc80
878 286 m 0
 878 322 848 352 812 352 c 0
 776 352 747 322 747 286 c 0
 747 250 776 221 812 221 c 0
 848 221 878 250 878 286 c 0
230 633 m 1
 622 633 l 1
 404 330 l 1
 579 154 l 1xfe80
 608 184 l 1
 608 95 l 1
 572 95 l 1
 519 95 l 1
 549 124 l 1
 347 325 l 1
 537 589 l 1
 310 589 l 1
 310 73 l 1
 267 73 l 1
 267 589 l 1
 230 589 l 1
 230 633 l 1
579 713 m 1
 703 713 l 1
 703 0 l 1
 579 0 l 1
 579 44 l 1xfe80
 659 44 l 1
 659 669 l 1xfd80
 579 669 l 1
 579 713 l 1
EndSplineSet
Validated: 9
Comment: "Moderate or heavy rain at time of+AAoA-observation,;thunderstorm during+AAoA-past hour, but NOT at time of+AAoA-observation"
EndChar

StartChar: uF0162
Encoding: 983394 983394 99
Width: 1000
Flags: W
HStem: 0 44<579 659> 589 44<230 267 310 537> 669 44<579 659>
VStem: 267 43<73 589> 579 124<0 44 669 713> 659 44<44 669> 791 34<263.005 314 374 418>
LayerCount: 3
Fore
SplineSet
808 418 m 0xf2
 818 418 825 418 825 408 c 2
 825 374 l 1
 855 391 l 2
 858 392 860 393 863 393 c 0
 864 393 l 0
 870 393 876 390 879 385 c 0
 880 382 881 379 881 376 c 0
 881 370 877 364 872 361 c 2
 843 344 l 1
 872 327 l 2
 877 324 881 318 881 312 c 0
 881 309 880 306 879 303 c 0
 876 298 869 295 863 295 c 0
 860 295 858 296 855 297 c 2
 825 314 l 1
 825 280 l 2
 825 270 818 263 808 263 c 0
 798 263 791 270 791 280 c 2
 791 314 l 1
 761 297 l 2
 758 296 756 295 753 295 c 0
 747 295 740 298 737 303 c 0
 736 306 735 309 735 312 c 0
 735 318 739 324 744 327 c 2
 773 344 l 1
 744 361 l 2
 739 364 735 370 735 376 c 0
 735 379 736 382 737 385 c 0
 740 390 746 393 752 393 c 0
 753 393 l 0
 756 393 758 392 761 391 c 2
 791 374 l 1
 791 408 l 2
 791 418 798 418 808 418 c 0xf2
230 633 m 1
 622 633 l 1
 404 330 l 1
 579 154 l 1xfa
 608 184 l 1
 608 95 l 1
 572 95 l 1
 519 95 l 1
 549 124 l 1
 347 325 l 1
 537 589 l 1
 310 589 l 1
 310 73 l 1
 267 73 l 1
 267 589 l 1
 230 589 l 1
 230 633 l 1
579 713 m 1
 703 713 l 1
 703 0 l 1
 579 0 l 1
 579 44 l 1xfa
 659 44 l 1
 659 669 l 1xf6
 579 669 l 1
 579 713 l 1
EndSplineSet
Validated: 1
Comment: "Thunderstorms during the last hour, but now only light precipitation as snowfall , sleet or hail at the time of observation"
EndChar

StartChar: uF0163
Encoding: 983395 983395 100
Width: 1000
Flags: W
HStem: 0 44<579 659> 589 44<230 267 310 537> 669 44<579 659>
VStem: 267 43<73 589> 579 124<0 44 669 713> 659 44<44 669> 791 34<173.005 224 284 328 353.005 404 464 508>
LayerCount: 3
Fore
SplineSet
808 508 m 0xf2
 818 508 825 508 825 498 c 2
 825 464 l 1
 855 481 l 2
 858 482 860 483 863 483 c 0
 864 483 l 0
 870 483 876 480 879 475 c 0
 880 472 881 469 881 466 c 0
 881 460 877 454 872 451 c 2
 843 434 l 1
 872 417 l 2
 877 414 881 408 881 402 c 0
 881 399 880 396 879 393 c 0
 876 388 869 385 863 385 c 0
 860 385 858 386 855 387 c 2
 825 404 l 1
 825 370 l 2
 825 360 818 353 808 353 c 0
 798 353 791 360 791 370 c 2
 791 404 l 1
 761 387 l 2
 758 386 756 385 753 385 c 0
 747 385 740 388 737 393 c 0
 736 396 735 399 735 402 c 0
 735 408 739 414 744 417 c 2
 773 434 l 1
 744 451 l 2
 739 454 735 460 735 466 c 0
 735 469 736 472 737 475 c 0
 740 480 746 483 752 483 c 0
 753 483 l 0
 756 483 758 482 761 481 c 2
 791 464 l 1
 791 498 l 2
 791 508 798 508 808 508 c 0xf2
808 328 m 0
 818 328 825 328 825 318 c 2
 825 284 l 1
 855 301 l 2
 858 302 860 303 863 303 c 0
 864 303 l 0
 870 303 876 300 879 295 c 0
 880 292 881 289 881 286 c 0
 881 280 877 274 872 271 c 2
 843 254 l 1
 872 237 l 2
 877 234 881 228 881 222 c 0
 881 219 880 216 879 213 c 0
 876 208 869 205 863 205 c 0
 860 205 858 206 855 207 c 2
 825 224 l 1
 825 190 l 2
 825 180 818 173 808 173 c 0
 798 173 791 180 791 190 c 2
 791 224 l 1
 761 207 l 2
 758 206 756 205 753 205 c 0
 747 205 740 208 737 213 c 0
 736 216 735 219 735 222 c 0
 735 228 739 234 744 237 c 2
 773 254 l 1
 744 271 l 2
 739 274 735 280 735 286 c 0
 735 289 736 292 737 295 c 0
 740 300 746 303 752 303 c 0
 753 303 l 0
 756 303 758 302 761 301 c 2
 791 284 l 1
 791 318 l 2
 791 328 798 328 808 328 c 0
230 633 m 1
 622 633 l 1
 404 330 l 1
 579 154 l 1xfa
 608 184 l 1
 608 95 l 1
 572 95 l 1
 519 95 l 1
 549 124 l 1
 347 325 l 1
 537 589 l 1
 310 589 l 1
 310 73 l 1
 267 73 l 1
 267 589 l 1
 230 589 l 1
 230 633 l 1
579 713 m 1
 703 713 l 1
 703 0 l 1
 579 0 l 1
 579 44 l 1xfa
 659 44 l 1
 659 669 l 1xf6
 579 669 l 1
 579 713 l 1
EndSplineSet
Validated: 1
Comment: "Thunderstorms during the last hour, but now only moderate or heavy precipitation as snowfall , sleet or hail at the time of observation"
EndChar

StartChar: uF0164
Encoding: 983396 983396 101
Width: 1000
HStem: 0 21G<354 409> 545 55<309 354 409 620> 632 163<444.979 555.021>
VStem: 354 55<0 545> 418 164<658.432 768.021>
LayerCount: 3
Fore
SplineSet
418 713 m 0
 418 758 455 795 500 795 c 0
 545 795 582 758 582 713 c 0
 582 668 545 632 500 632 c 0
 455 632 418 668 418 713 c 0
309 600 m 1
 725 600 l 1
 499 276 l 1
 673 102 l 1
 709 139 l 1
 709 27 l 1
 664 27 l 1
 598 27 l 1
 634 64 l 1
 428 270 l 1
 620 545 l 1
 409 545 l 1
 409 0 l 1
 354 0 l 1
 354 545 l 1
 309 545 l 1
 309 600 l 1
EndSplineSet
Validated: 1
Comment: "Light or moderate thunderstorm without hail but with rain , snowfall or sleet at the time of observation"
EndChar

StartChar: uF0165
Encoding: 983397 983397 102
Width: 1000
Flags: W
HStem: 0 21G<354 409> 545 55<309 354 409 620> 641 27<484 544>
VStem: 354 55<0 545>
LayerCount: 3
Fore
SplineSet
514 774 m 5
 591 641 l 5
 461 641 l 5
 437 641 l 5
 514 774 l 5
514 721 m 5
 484 668 l 5
 544 668 l 5
 514 721 l 5
309 600 m 1
 725 600 l 1
 499 276 l 1
 673 102 l 1
 709 139 l 1
 709 27 l 1
 664 27 l 1
 598 27 l 1
 634 64 l 1
 428 270 l 1
 620 545 l 1
 409 545 l 1
 409 0 l 1
 354 0 l 1
 354 545 l 1
 309 545 l 1
 309 600 l 1
EndSplineSet
Validated: 1
EndChar

StartChar: uF0166
Encoding: 983398 983398 103
Width: 1000
HStem: 0 21G<347 402> 545 55<302 347 402 620> 629 131<455.85 552.15>
VStem: 347 55<0 545> 439 130<645.85 742.697>
LayerCount: 3
Fore
SplineSet
569 694 m 0
 569 730 540 760 504 760 c 0
 468 760 439 730 439 694 c 0
 439 658 468 629 504 629 c 0
 540 629 569 658 569 694 c 0
302 600 m 1
 710 600 l 1
 562 314 l 1
 686 191 l 1
 558 64 l 1
 595 27 l 1
 483 27 l 1
 483 139 l 1
 520 102 l 1
 608 191 l 1
 495 304 l 1
 620 545 l 1
 402 545 l 1
 402 0 l 1
 347 0 l 1
 347 545 l 1
 302 545 l 1
 302 600 l 1
EndSplineSet
Validated: 9
Comment: "Strong thunderstorm without hail but with rain or snowfall at the time of observation"
EndChar

StartChar: uF0167
Encoding: 983399 983399 104
Width: 1000
HStem: 1 21G<309 358> 492 49<268 309 358 548> 569 25<412.503 466.355> 667 25<325 391 412.764 467.261 488 542> 766 24<413.145 466.816>
VStem: 309 49<1 492> 378 25<603.283 631 701.706 756.278> 476 25<602.862 658.174 729 756.838>
LayerCount: 3
Fore
SplineSet
440 790 m 0
 455 790 470 785 482 775 c 0
 494 765 501 748 501 729 c 1
 476 729 l 1
 476 742 472 750 465 756 c 0
 458 762 450 766 440 766 c 0
 430 766 421 762 414 756 c 0
 407 750 403 742 403 729 c 0
 403 709 420 692 440 692 c 2
 542 692 l 1
 542 717 l 1
 580 680 l 1
 542 642 l 1
 542 667 l 1
 488 667 l 1
 496 657 501 645 501 631 c 0
 501 612 494 595 482 585 c 0
 470 575 455 569 440 569 c 0
 425 569 410 575 398 585 c 0
 386 595 378 612 378 631 c 1
 403 631 l 1
 403 618 407 609 414 603 c 0
 421 597 430 594 440 594 c 0
 450 594 458 597 465 603 c 0
 472 609 476 618 476 631 c 0
 476 651 460 667 440 667 c 2
 325 667 l 1
 325 692 l 1
 391 692 l 1
 383 702 378 715 378 729 c 0
 378 748 386 765 398 775 c 0
 410 785 425 790 440 790 c 0
268 541 m 1
 642 541 l 1
 439 249 l 1
 595 93 l 1
 628 125 l 1
 628 25 l 1
 587 25 l 1
 528 25 l 1
 560 58 l 1
 375 243 l 1
 548 492 l 1
 358 492 l 1
 358 1 l 1
 309 1 l 1
 309 492 l 1
 268 492 l 1
 268 541 l 1
EndSplineSet
Validated: 1
Comment: "Thunderstorm with dust or sandstorm at the time of observation"
EndChar

StartChar: uF0168
Encoding: 983400 983400 105
Width: 1000
HStem: 1 21G<309 358> 492 49<268 309 358 548>
VStem: 309 49<1 492>
LayerCount: 3
Fore
SplineSet
268 541 m 1
 642 541 l 1
 439 249 l 1
 595 93 l 1
 628 125 l 1
 628 25 l 1
 587 25 l 1
 528 25 l 1
 560 58 l 1
 375 243 l 1
 548 492 l 1
 358 492 l 1
 358 1 l 1
 309 1 l 1
 309 492 l 1
 268 492 l 1
 268 541 l 1
491 631 m 1
 425 631 l 1
 458 689 l 1
 491 631 l 1
346 586 m 1
 570 586 l 1
 458 780 l 1
 346 586 l 1
EndSplineSet
Validated: 9
Comment: "Strong thunderstorm with sleet or hail at the time of observation"
EndChar

StartChar: uF0249
Encoding: 983625 983625 106
Width: 1000
Flags: H
LayerCount: 3
Fore
SplineSet
524.99609375 432.510742188 m 4
 732.116210938 432.510742188 900 264.630859375 899.998046875 57.486328125 c 5
 899.998046875 209.35546875 776.948242188 332.5078125 624.98828125 332.5078125 c 4
 503.215820312 332.5078125 400.090820312 253.256835938 363.930664062 143.57421875 c 5
 500.024414062 7.4912109375 l 5
 100 7.4912109375 l 5
 100 407.514648438 l 5
 225.27734375 282.209960938 l 5
 293.692382812 373.331054688 402.2890625 432.510742188 524.99609375 432.510742188 c 4
EndSplineSet
Comment: "Undo"
EndChar

StartChar: uF024A
Encoding: 983626 983626 107
Width: 1000
Flags: HW
LayerCount: 3
Fore
SplineSet
475.001953125 432.510742188 m 4
 267.881835938 432.510742188 99.998046875 264.630859375 100 57.486328125 c 5
 100 209.35546875 223.049804688 332.5078125 375.009765625 332.5078125 c 4
 496.782226562 332.5078125 599.907226562 253.256835938 636.067382812 143.57421875 c 5
 499.973632812 7.4912109375 l 5
 899.998046875 7.4912109375 l 5
 899.998046875 407.514648438 l 5
 774.720703125 282.209960938 l 5
 706.305664062 373.331054688 597.708984375 432.510742188 475.001953125 432.510742188 c 4
EndSplineSet
Comment: "Redo"
EndChar

StartChar: uF024B
Encoding: 983627 983627 108
Width: 1000
Flags: H
LayerCount: 3
Fore
SplineSet
88 426 m 1
 255 426 l 1
 255 399 l 1
 88 399 l 1
 88 426 l 1
311 412 m 0
 311 499 381 569 468 569 c 0
 555 569 625 499 625 412 c 0
 625 377.997690482 614.307571188 346.592113676 596.086763732 320.947319749 c 1
 768.583984375 149.416015625 l 1
 734.4921875 115.32421875 l 1
 562.453827443 286.399231726 l 1
 536.207861069 266.668805571 503.520856925 255 468 255 c 0
 381 255 311 325 311 412 c 0
342.400390625 412 m 0
 342.400390625 342.400390625 398.400390625 286.400390625 468 286.400390625 c 0
 537.599609375 286.400390625 593.599609375 342.400390625 593.599609375 412 c 0
 593.599609375 481.599609375 537.599609375 537.599609375 468 537.599609375 c 0
 398.400390625 537.599609375 342.400390625 481.599609375 342.400390625 412 c 0
EndSplineSet
EndChar

StartChar: uF024C
Encoding: 983628 983628 109
Width: 1000
Flags: HW
LayerCount: 3
Fore
SplineSet
342.400390625 412 m 0
 342.400390625 342.400390625 398.400390625 286.400390625 468 286.400390625 c 0
 537.599609375 286.400390625 593.599609375 342.400390625 593.599609375 412 c 0
 593.599609375 481.599609375 537.599609375 537.599609375 468 537.599609375 c 0
 398.400390625 537.599609375 342.400390625 481.599609375 342.400390625 412 c 0
311 412 m 0
 311 499 381 569 468 569 c 0
 555 569 625 499 625 412 c 0
 625 377.997690482 614.307571188 346.592113676 596.086763732 320.947319749 c 1
 768.583984375 149.416015625 l 1
 734.4921875 115.32421875 l 1
 562.453827443 286.399231726 l 1
 536.207861069 266.668805571 503.520856925 255 468 255 c 0
 381 255 311 325 311 412 c 0
158 426 m 5
 158 496 l 5
 185 496 l 5
 185 426 l 5
 255 426 l 5
 255 399 l 5
 185 399 l 5
 185 329 l 5
 158 329 l 5
 158 399 l 5
 88 399 l 5
 88 426 l 5
 158 426 l 5
EndSplineSet
EndChar

StartChar: uF024D
Encoding: 983629 983629 110
Width: 1000
Flags: H
LayerCount: 3
Fore
SplineSet
747 274 m 5
 639 182 l 5
 639 232 l 5
 533 232 l 5
 533 126 l 5
 583 126 l 5
 483 18 l 5
 391 125 l 5
 441 125 l 5
 441 231 l 5
 335 231 l 5
 335 181 l 5
 227 274 l 5
 335 374 l 5
 335 324 l 5
 440 324 l 5
 440 430 l 5
 390 430 l 5
 483 538 l 5
 583 430 l 5
 533 430 l 5
 533 324 l 5
 639 324 l 5
 639 374 l 5
 747 274 l 5
EndSplineSet
EndChar

StartChar: uF024E
Encoding: 983630 983630 111
Width: 1000
Flags: HW
LayerCount: 3
Fore
SplineSet
220 572 m 1
 311 572 l 1
 311 541 l 1
 235 541 l 1
 235 480 l 1
 205 480 l 1
 205 556 l 1
 220 556 l 1
 220 572 l 1
341 572 m 1
 432 572 l 1
 432 541 l 1
 341 541 l 1
 341 572 l 1
462 572 m 1
 509 572 l 1
 509 541 l 1
 462 541 l 1
 462 572 l 1
205 449 m 1
 235 449 l 1
 235 359 l 1
 205 359 l 1
 205 449 l 1
802 387 m 1
 832 387 l 1
 832 337 l 1
 802 337 l 1
 802 387 l 1
205 329 m 1
 235 329 l 1
 235 238 l 1
 205 238 l 1
 205 329 l 1
802 306 m 1
 832 306 l 1
 832 216 l 1
 802 216 l 1
 802 306 l 1
205 208 m 1
 235 208 l 1
 235 117 l 1
 205 117 l 1
 205 208 l 1
802 185 m 1
 832 185 l 1
 832 95 l 1
 802 95 l 1
 802 185 l 1
205 87 m 1
 235 87 l 1
 235 41 l 1
 251 41 l 1
 251 11 l 1
 205 11 l 1
 205 87 l 1
802 64 m 1
 832 64 l 1
 832 11 l 1
 765 11 l 1
 765 41 l 1
 802 41 l 1
 802 64 l 1
281 41 m 1
 371 41 l 1
 371 11 l 1
 281 11 l 1
 281 41 l 1
402 41 m 1
 492 41 l 1
 492 11 l 1
 402 11 l 1
 402 41 l 1
523 41 m 1
 613 41 l 1
 613 11 l 1
 523 11 l 1
 523 41 l 1
644 41 m 1
 734 41 l 1
 734 11 l 1
 644 11 l 1
 644 41 l 1
764 434 m 0
 764 504 708 560 639 560 c 0
 569 560 513 504 513 434 c 0
 513 364 569 308 639 308 c 0
 708 308 764 364 764 434 c 0
796 434 m 0
 796 347 726 277 639 277 c 0
 603 277 570 289 544 308 c 1
 372 137 l 1
 338 171 l 1
 510 343 l 1
 492 369 482 400 482 434 c 0
 482 521 552 591 639 591 c 0
 726 591 796 521 796 434 c 0
EndSplineSet
EndChar

StartChar: uF024F
Encoding: 983631 983631 112
Width: 1000
Flags: HW
LayerCount: 3
Fore
SplineSet
217 -43 m 5
 294 90 l 5
 164 90 l 5
 140 90 l 5
 217 -43 l 5
217 10 m 5
 187 63 l 5
 247 63 l 5
 217 10 l 5
225 705 m 5
 302 572 l 5
 172 572 l 5
 148 572 l 5
 225 705 l 5
225 652 m 5
 195 599 l 5
 255 599 l 5
 225 652 l 5
222.8828125 388.893554688 m 4
 236.4140625 388.893554688 249.61328125 398.407226562 253.297851562 412.255859375 c 4
 254.602539062 417.159179688 254.536132812 459.903320312 253.286132812 464.700195312 c 4
 245.171875 495.850585938 201.157226562 495.708984375 193.168945312 464.528320312 c 4
 192.524414062 462.006835938 192.2578125 453.453125 192.2578125 443.759765625 c 4
 192.2578125 429.333984375 192.842773438 412.552734375 193.905273438 409.736328125 c 4
 197.422851562 400.421875 204.891601562 393.275390625 214.286132812 390.236328125 c 4
 217.107421875 389.325195312 220.002929688 388.893554688 222.8828125 388.893554688 c 4
218.88671875 118.299804688 m 4
 206.387695312 118.299804688 193.823242188 120.170898438 181.579101562 124.130859375 c 4
 140.8046875 137.319335938 108.387695312 168.338867188 93.119140625 208.764648438 c 4
 88.5048828125 220.982421875 85.96484375 293.829101562 85.96484375 356.431640625 c 4
 85.96484375 398.509765625 87.1220703125 435.63671875 89.9248046875 446.577148438 c 4
 124.596679688 581.911132812 315.629882812 582.529296875 350.846679688 447.322265625 c 4
 356.26953125 426.505859375 356.565429688 240.98828125 350.900390625 219.705078125 c 4
 334.905273438 159.594726562 277.6171875 118.299804688 218.88671875 118.299804688 c 4
774 401 m 4
 774 331 718 275 649 275 c 4
 579 275 523 331 523 401 c 4
 523 471 579 527 649 527 c 4
 718 527 774 471 774 401 c 4
806 401 m 4
 806 488 736 558 649 558 c 4
 562 558 492 488 492 401 c 4
 492 367 502 336 520 310 c 5
 348 138 l 5
 382 104 l 5
 554 275 l 5
 580 256 613 244 649 244 c 4
 736 244 806 314 806 401 c 4
EndSplineSet
EndChar

StartChar: uF0270
Encoding: 983664 983664 113
Width: 1000
Flags: H
LayerCount: 3
Fore
SplineSet
670 216 m 29
 707 216 l 29
 707 555 l 29
 144 555 l 29
 142 26 l 29
 142 26 585 24 585 26 c 4
 585 28 585 63 585 63 c 29
 186 63 l 29
 186 513 l 29
 670 510 l 29
 670 216 l 29
676 121 m 5
 676 191 l 5
 703 191 l 5
 703 121 l 5
 773 121 l 5
 773 94 l 5
 703 94 l 5
 703 24 l 5
 676 24 l 5
 676 94 l 5
 606 94 l 5
 606 121 l 5
 676 121 l 5
EndSplineSet
EndChar

StartChar: uF0271
Encoding: 983665 983665 114
Width: 1000
Flags: H
LayerCount: 3
Fore
SplineSet
702 30 m 25
 702 30 660 62 660 93 c 0
 660 124 652 134 627 130 c 0
 602 126 577 89 571 79 c 0
 565 69 538 64 519 71 c 0
 500 78 331 64.8019609728 331 75 c 3
 331 85.1980390272 239 89 239 89 c 1
 239 89 203 94 190 105 c 0
 177 116 177 88 177 88 c 1
 211 71 l 1
 238 66 l 1
 238 66 264 65 261 66 c 0
 258 67 287 62 287 62 c 1
 456 45 l 25
 548 47 l 25
 582 47 l 1
 582 47 600 69 601 83 c 4
 602 97 625 108 631 105 c 0
 637 102 640 81 640 81 c 25
 653 49 l 25
 679 16 l 25
 711 9 l 25
 702 30 l 25
651 661 m 1
 742 570 l 1
 697 525 l 1
 409 237 l 1
 393 221 l 1
 361 188 l 1
 344 173 l 1
 333 161 l 1
 299 150 l 1
 231 127 l 1
 197 116 l 1
 242 252 l 1
 253 263 l 1
 318 328 l 1
 651 661 l 1
608 586 m 1
 415 393 l 1
 473 334 l 1
 667 527 l 1
 608 586 l 1
382 360 m 1
 362 340 l 1
 350 328 l 1
 409 269 l 1
 441 301 l 1
 382 360 l 1
318 296 m 1
 286 264 l 1
 345 205 l 1
 377 237 l 1
 318 296 l 1
EndSplineSet
EndChar

StartChar: uF0272
Encoding: 983666 983666 115
Width: 1000
Flags: H
LayerCount: 3
Fore
SplineSet
228 722 m 1
 228 225 l 1
 615 491 l 1
 615 722 l 1
 228 722 l 1
207 744 m 1
 636 744 l 1
 636 487 l 1
 207 191 l 1
 207 744 l 1
625 290 m 5
 652 303 l 5
 711 176 l 5
 684 163 l 5
 625 290 l 5
580 434 m 4
 580 434 580 434 580 434 c 4
 581 434 586 428 586 428 c 6
 695 316 l 6
 697 315 697 313 696 311 c 4
 695 309 693 308 691 309 c 4
 685 310 679 311 673 311 c 4
 641 311 610 294 593 265 c 4
 592 263 589 262 587 263 c 4
 586 264 585 265 585 267 c 6
 574 430 l 6
 574 430 574 431 575 432 c 4
 576 434 578 435 580 434 c 4
EndSplineSet
EndChar

StartChar: uF0273
Encoding: 983667 983667 116
Width: 1000
Flags: HWO
LayerCount: 3
Fore
SplineSet
820 434 m 0
 821 434 826 428 826 428 c 2
 935 316 l 2
 937 315 937 313 936 311 c 0
 935 309 933 308 931 309 c 0
 925 310 919 311 913 311 c 0
 881 311 850 294 833 265 c 0
 832 263 829 262 827 263 c 0
 826 264 825 265 825 267 c 2
 814 430 l 2
 814 430 814 431 815 432 c 0
 816 434 818 435 820 434 c 0
865 290 m 1
 892 303 l 1
 951 176 l 1
 924 163 l 1
 865 290 l 1
559 387 m 1
 265 387 l 1
 265 412 l 1
 360 412 456 412 551 412 c 1
 551 436 571 456 595 456 c 0
 619 456 639 436 639 412 c 0
 639 388 619 368 595 368 c 0
 590 368 585 369 580 371 c 1
 482 102 l 1
 459 110 l 1
 559 387 l 1
EndSplineSet
EndChar
